<?xml version="1.0" encoding="utf-8"?>
<!-- Generator: Adobe Illustrator 16.0.4, SVG Export Plug-In . SVG Version: 6.00 Build 0)  -->
<!DOCTYPE svg PUBLIC "-//W3C//DTD SVG 1.1//EN" "http://www.w3.org/Graphics/SVG/1.1/DTD/svg11.dtd">
<svg version="1.1" id="Ebene_1" xmlns="http://www.w3.org/2000/svg" xmlns:xlink="http://www.w3.org/1999/xlink" x="0px" y="0px"
	 width="304px" height="154.002px" viewBox="0 0 304 154.002" enable-background="new 0 0 304 154.002" xml:space="preserve">
<g transform="translate(0.000000,3307.000000) scale(0.100000,-0.100000)">
	<path fill="#333366" d="M1517.06,33017.809c-2.451-1.27-6.377-2.746-8.818-3.332c-21.67-5.391-30.293-7.938-45.586-13.523
		c-20.195-7.453-31.953-11.379-39.707-13.527c-2.93-0.789-11.758-3.242-19.6-5.488c-7.842-2.254-20.586-5.789-28.428-7.84
		c-17.153-4.609-33.428-9.219-67.148-18.926c-14.019-4.016-40.288-11.367-58.325-16.27c-18.037-4.805-39.014-10.586-46.562-12.648
		c-29.702-8.328-47.349-13.328-53.428-15.098c-3.525-0.977-12.939-3.328-21.074-5.195c-8.037-1.961-15.977-3.914-17.642-4.414
		c-1.572-0.488-9.512-2.539-17.646-4.402c-8.037-1.965-19.507-5-25.488-6.867c-5.879-1.766-14.995-4.414-20.093-5.879
		c-5.098-1.375-17.256-4.707-26.958-7.449c-15.684-4.316-49.8-15.098-56.367-17.746c-3.135-1.27-11.567-3.523-35.776-9.609
		c-10.786-2.742-24.707-6.27-30.879-7.938c-6.177-1.562-22.939-5.293-37.251-8.234c-30.293-6.27-25.781-5-58.818-17.352
		c-49.209-18.527-58.228-21.27-88.223-27.246c-18.232-3.633-27.739-6.379-29.507-8.43c-0.684-0.789-1.079-3.145-0.977-5.098
		c0.098-1.961,0.586-17.938,1.074-35.486c0.981-33.916,2.061-51.367,3.14-52.441c1.665-1.768,3.037,5.195,4.312,22.832
		c0.786,10.596,1.567,21.768,1.772,24.707c0.293,2.939,0.977,12.939,1.562,22.061c1.274,18.328,1.86,21.074,4.902,21.074
		c1.172,0,4.8,0.684,8.135,1.465c3.33,0.789,14.214,3.242,24.214,5.391c26.274,5.789,29.209,6.766,65.19,21.375
		c9.6,3.918,20.977,7.551,32.832,10.488c10.005,2.551,19.517,5,21.079,5.488c3.823,1.172,33.032,8.43,43.135,10.684
		c7.354,1.672,25.977,6.465,48.027,12.258c18.921,5,33.14,9.402,58.325,18.035c14.214,4.797,31.958,9.992,53.916,15.684
		c1.86,0.488,7.451,1.965,12.251,3.332c4.902,1.375,14.609,3.816,21.567,5.488c7.061,1.668,14.312,3.426,16.177,4.023
		c1.86,0.488,17.056,4.207,33.623,8.328c33.423,8.137,37.246,9.211,75.674,21.074c27.349,8.43,49.897,14.707,76.953,21.562
		c13.232,3.34,27.544,7.16,31.855,8.34c9.707,2.844,25.195,7.148,30.391,8.527c2.153,0.586,6.372,1.863,9.312,2.84
		s10,3.137,15.688,4.707c5.684,1.562,20,5.781,31.855,9.406c11.86,3.633,27.251,8.34,34.204,10.391
		c6.973,2.156,17.559,5.398,23.535,7.254c20.195,6.281,44.209,13.43,47.637,14.219c1.865,0.488,5,1.27,6.865,1.867
		c2.549,0.781,4.795,0.684,8.818-0.305c10.977-2.742,36.172-10.391,40.781-12.441c8.135-3.438,17.939-6.473,31.27-9.707
		c18.135-4.219,48.916-12.645,67.148-18.328c6.172-1.965,13.232-4.121,15.684-4.805c2.461-0.684,13.438-4.316,24.512-8.234
		c11.074-3.828,30.879-10.098,44.101-13.828c13.242-3.816,26.27-7.645,28.926-8.426c2.744-0.781,6.27-1.77,7.842-2.258
		c12.451-3.328,24.014-6.953,26.465-8.23c1.67-0.781,9.6-3.039,17.646-4.902c16.953-4.016,39.307-9.707,48.516-12.355
		c29.316-8.523,44.902-13.328,72.051-22.148c17.256-5.684,34.707-11.082,38.73-12.156c23.809-5.879,59.795-16.172,82.832-23.723
		c5.391-1.668,13.33-3.73,20.781-5.293c4.023-0.781,9.6-2.547,12.441-3.828c14.805-6.758,35.293-13.23,72.148-22.637
		c4.902-1.277,29.316-9.219,43.145-14.219c56.26-19.902,68.809-23.523,89.102-25.391c9.316-0.879,12.539-1.465,13.516-2.742
		c1.084-1.367,1.279-5.195,0.889-19.307c-0.391-9.707-0.889-29.512-1.182-44.111l-0.684-26.465l2.744-10.293
		c1.475-5.693,3.037-10.693,3.438-11.084s0.977,12.158,1.367,28.037c0.4,15.879,1.279,33.428,2.061,39.014
		s2.168,17.354,3.047,26.172c1.66,15.779,1.66,16.084-0.293,18.623c-2.168,2.949-2.168,2.949-28.73,10.887
		c-28.516,8.625-60.967,18.723-91.162,28.527c-14.805,4.805-32.646,10.293-39.697,12.246c-26.562,7.352-39.805,11.375-59.307,17.938
		c-11.084,3.73-27.549,9.121-36.768,11.867c-9.111,2.84-18.428,5.781-20.586,6.465c-2.148,0.691-6.953,2.156-10.781,3.242
		c-3.73,1.172-13.428,4.012-21.562,6.367c-8.037,2.449-28.818,8.438-46.074,13.328c-17.246,4.902-36.66,10.488-43.125,12.355
		c-6.475,1.961-17.451,5.098-24.512,6.961c-24.414,6.66-73.711,20.879-79.004,22.844c-9.805,3.523-28.73,8.816-39.023,10.879
		c-5.684,1.172-16.953,4.207-24.99,6.863c-54.307,17.539-75.869,24.016-130.478,39.504c-38.516,10.977-53.418,15.391-66.172,19.402
		c-6.758,2.16-17.246,5.293-23.418,6.965c-6.182,1.57-14.414,4.219-18.34,5.781
		C1527.646,33020.758,1522.939,33020.855,1517.06,33017.809z"/>
	<path fill="#333366" d="M82.246,32616.1c-1.567-2.061-4.902-11.27-8.623-24.014c-1.865-6.572-6.475-19.121-10.195-27.939
		c-6.177-14.707-7.842-19.404-13.726-39.502c-4.116-14.023-11.274-22.256-20.488-23.623c-2.549-0.4-5.684-1.084-6.958-1.572
		l-2.256-0.781l2.354-1.963c1.372-0.977,4.902-2.939,7.939-4.219c3.921-1.758,5.879-3.33,7.158-5.781
		c1.958-3.818,1.958-10-0.103-14.902c-2.251-5.293-1.958-13.428,0.591-16.66s2.939-2.842,5.586,4.805
		c5.981,17.246,8.628,22.637,13.335,26.758c5.586,4.902,9.604,5.586,32.446,5.684c11.567,0,23.623,0.596,27.446,1.279
		c17.056,3.037,25.19,0.879,32.153-8.535c2.153-3.037,4.116-5.098,4.214-4.6c0.098,0.586,0.488,3.037,0.884,5.684
		c0.781,5.586,2.939,7.354,9.897,8.232c2.646,0.293,5,0.684,5.195,0.879c0.591,0.498-3.525,6.67-6.177,9.121
		c-2.056,1.963-3.525,2.354-9.604,2.451c-6.47,0.098-7.744,0.488-13.33,3.818c-10,6.182-9.019,4.609-36.27,57.842
		c-5.981,11.758-11.567,23.721-12.354,26.465c-0.781,2.842-2.451,8.916-3.73,13.721
		C85.483,32616.979,84.209,32618.648,82.246,32616.1z M90.483,32577.086c2.939,0,7.642-5.781,11.562-14.111
		c2.256-4.902,5.981-12.256,8.335-16.279c4.019-6.953,15.684-29.99,15.684-30.879c0-1.27-6.177-6.367-8.53-7.051
		c-2.744-0.693-12.642-0.889-38.521-0.498l-14.312,0.195l0.391,10.596c0.391,14.502,0.684,15.879,5.098,22.441
		c2.158,3.145,3.921,6.279,3.921,6.865c0,0.684,1.274,4.414,2.842,8.33c1.47,3.926,4.019,10.391,5.488,14.316
		c2.354,6.367,2.944,7.148,4.805,6.66C88.325,32577.379,89.795,32577.086,90.483,32577.086z"/>
	<path fill="#333366" d="M1808.984,32615.221c-2.061-0.986-4.316-3.135-5.098-4.609c-2.646-5.195-5.391-15.879-7.949-31.172
		c-4.404-26.27-12.246-52.051-19.697-65.283c-2.354-4.219-4.307-8.037-4.307-8.535c0-1.465-2.656-2.646-10.293-4.404
		c-15.293-3.73-15.684-5.098-4.902-16.084c8.33-8.623,8.232-7.939,6.367-26.953c-0.977-10.488-0.391-13.525,3.438-15.195
		c1.953-0.879,2.441-0.586,4.209,2.549c1.084,2.061,2.744,6.279,3.623,9.414c2.363,8.135,6.572,17.148,9.707,20.879
		c1.865,2.158,3.828,3.232,6.758,3.721c2.266,0.391,6.279,1.865,8.926,3.242c5.879,3.135,13.037,3.33,21.855,0.586
		c5.293-1.572,6.973-1.67,13.73-0.684c9.805,1.465,12.451,0.879,16.758-3.633c2.061-2.061,4.707-3.916,5.986-4.121
		c1.963-0.195,2.646-1.27,4.014-6.172c2.656-8.916,9.805-27.246,11.562-29.111c1.484-1.768,4.219-2.354,5.4-1.182
		c0.293,0.303,0.098,1.768-0.303,3.145c-10.391,32.051-11.172,35.879-8.027,38.721c3.037,2.842,10.391,5.488,17.93,6.562
		c3.926,0.586,8.633,1.279,10.391,1.572l3.047,0.488l-5.488,7.842l-5.586,7.842l-12.949-0.195l-12.832-0.195l-4.023,3.135
		c-4.121,3.232-11.855,12.061-11.855,13.428c0,0.488-1.572,3.135-3.535,5.879c-3.535,5.205-4.023,7.158-2.842,10.693
		c0.488,1.562,0,2.354-1.768,3.33c-3.721,2.061-5.098,5.586-13.428,36.172c-2.061,7.744-4.111,16.562-4.404,19.6
		c-1.084,10.4-2.461,14.707-5.693,17.842C1814.179,32617.77,1813.789,32617.77,1808.984,32615.221z M1818.691,32566.695
		c2.344,0.781,3.32-0.391,5.098-5.781c0.781-2.158,4.014-10.098,7.246-17.646c8.73-20.586,11.562-29.209,9.902-30.195
		c-1.074-0.586-1.27-1.758-0.781-4.111c0.586-3.145,0.391-3.34-2.754-3.828c-1.758-0.293-10.684-0.977-19.697-1.465
		c-16.572-0.986-21.27-0.498-21.27,2.051c0,0.693-0.195,5.293-0.4,10.098c-0.391,10.488,0.986,18.037,6.279,32.549
		c2.549,6.963,4.902,11.465,7.061,13.818c4.707,5.098,6.074,6.084,6.758,4.902
		C1816.523,32566.5,1817.607,32566.402,1818.691,32566.695z"/>
	<path fill="#333366" d="M615.312,32610.807c-2.646-5.977-2.646-14.902-0.098-47.539c3.237-39.512,1.567-47.451-10.391-51.562
		c-3.428-1.182-12.251-0.889-14.702,0.488c-1.079,0.586-3.237,0.391-6.274-0.586c-4.409-1.377-5.098-1.377-14.312,1.27
		c-5.391,1.475-10.391,3.037-11.274,3.535c-0.781,0.391-2.744,3.33-4.312,6.465c-2.744,5.488-2.842,6.377-3.53,25.781
		c-1.567,43.037-3.232,52.344-10.684,61.758l-1.963,2.451l-2.446-2.744c-2.944-3.34-3.237-8.232-0.884-14.512
		c1.274-3.232,1.86-9.805,2.451-26.855c0.391-12.354,1.079-26.562,1.47-31.562c0.786-10.098-0.688-16.475-5.293-23.232
		c-2.451-3.633-2.744-3.73-6.763-3.145c-2.354,0.303-5.293,0.791-6.572,1.182c-1.86,0.391-2.544,0.098-3.037-1.475
		c-0.981-3.135,1.079-5.781,7.158-8.818c6.274-3.232,11.269-7.939,12.939-12.354c1.567-4.121,3.726-16.27,4.507-25.488
		c0.688-8.33,2.158-11.27,5.688-11.27c4.111,0,5.488,4.609,6.074,19.307c0.884,21.768,2.153,23.828,16.27,26.865
		c5.684,1.27,14.8,2.158,24.316,2.549c14.697,0.488,15.283,0.488,18.037-1.67c3.521-2.842,10.879-17.939,12.349-25.293
		c1.963-10.391,3.237-13.33,6.177-14.697c1.567-0.791,3.037-1.182,3.232-0.889c1.367,1.279,2.158,11.963,1.27,17.549
		c-1.562,10.781,1.079,19.902,7.744,27.051c2.549,2.754,3.628,3.145,8.237,3.242c2.842,0.098,6.47,0.391,8.037,0.781l2.939,0.586
		l-4.604,4.023c-3.14,2.744-6.768,4.707-11.372,6.172c-6.372,2.061-6.958,2.451-7.451,5.293c-0.488,3.535-1.958,17.158-3.433,34.014
		c-0.977,10.693-7.251,45.293-8.623,47.646c-0.396,0.586-2.549,3.135-4.805,5.684l-4.116,4.609L615.312,32610.807z"/>
	<path fill="#333366" d="M267.222,32614.039c-0.293-0.293-5-0.684-10.391-0.781c-8.232-0.098-10.684-0.586-14.897-2.549
		c-4.121-1.963-6.665-2.451-13.14-2.451c-4.409,0-10.386-0.391-13.33-0.879c-5.879-0.889-13.232,0.293-15.977,2.646
		c-0.786,0.781-1.963,1.367-2.549,1.367c-1.47,0-2.158-14.209-1.177-24.99c0.884-9.316,2.744-57.646,3.433-89.209
		c0.684-31.758,1.172-36.66,3.921-39.404c1.372-1.377,3.428-2.256,5.391-2.256h3.135l-0.586,15.977
		c-0.396,8.73-0.884,16.963-1.177,18.33c-0.293,1.377-0.493,11.279-0.493,22.061c-0.098,15.684,0.298,21.367,1.768,28.232
		c1.079,4.707,2.061,8.721,2.256,8.818c4.116,2.549,17.642,7.939,22.446,8.926c9.507,2.051,31.465,2.744,46.758,1.465l13.53-1.074
		l5.879-4.316c3.237-2.451,6.958-4.707,8.335-5c1.567-0.293,4.214-2.939,7.446-7.549c6.567-9.111,8.237-12.549,12.939-26.562
		c8.628-25.781,10.586-35.684,9.414-49.6c-0.591-7.646-0.396-9.023,1.074-10.684c3.14-3.438,7.847-2.256,8.628,1.953
		c0.981,5.195-1.47,22.549-4.902,34.805c-5.781,20.879-9.312,29.307-20.288,48.027c-10.488,17.842-10,22.158,2.646,27.256
		c6.274,2.549,11.074,6.465,12.544,10.195c2.549,6.865-1.074,19.697-6.665,23.525c-2.451,1.768-16.86,8.525-22.349,10.586
		C307.51,32612.184,268.105,32614.928,267.222,32614.039z M306.04,32603.16c14.707-0.098,14.805-0.098,18.921-2.939
		c11.274-7.842,12.646-14.014,5-22.354c-0.884-0.977-5-3.33-9.214-5.195c-7.158-3.33-8.335-3.623-20.488-4.111
		c-7.158-0.391-15.684-0.488-19.116-0.391c-4.214,0.098-6.958-0.303-8.921-1.475c-2.549-1.572-3.037-1.572-7.842,0.098
		c-4.116,1.377-6.567,1.475-13.135,0.879c-4.414-0.488-9.312-0.684-10.981-0.586c-1.567,0.195-8.135,0.586-14.507,1.084
		c-6.372,0.391-12.056,1.27-12.646,1.855c-0.586,0.596-1.274,4.609-1.567,8.926c-0.391,7.744-0.391,7.939,2.451,10.684
		c4.707,4.316,15.684,7.061,47.349,11.953c13.037,2.061,19.8,2.656,24.014,2.158
		C288.594,32603.453,297.905,32603.16,306.04,32603.16z"/>
	<path fill="#333366" d="M435.732,32611.588c-1.279-1.562-6.475-5.879-11.572-9.502c-8.33-5.986-15.288-12.451-20.581-19.219
		c-3.433-4.512-5.884-10.391-8.921-22.051c-1.67-6.377-3.921-14.902-5-18.926c-2.061-7.539-1.567-11.172,1.567-13.818
		c1.079-0.879,1.47-0.195,1.963,3.623c0.684,5.195,6.86,25.781,8.916,29.707c0.688,1.377,3.042,6.27,5.2,10.879
		c3.921,8.33,5.391,10,17.056,19.512c1.079,0.781,3.232,2.646,4.897,4.111c4.023,3.34,10.981,5.488,20.786,6.279
		c14.214,1.172,19.312-1.084,37.446-15.879c2.441-2.061,4.6-3.145,5.586-2.754c0.884,0.303,1.562,0.889,1.562,1.279
		s-4.404,4.316-9.8,8.818c-5.298,4.512-10.391,9.121-11.079,10.293c-2.549,3.73-9.312,6.279-21.27,7.744
		c-6.172,0.791-11.958,1.768-12.837,2.158C438.574,32614.234,437.3,32613.551,435.732,32611.588z"/>
	<path fill="#333366" d="M916.645,32613.844c-0.488-0.293-5.488-1.074-10.977-1.865c-8.823-1.367-10.488-1.367-14.116-0.098
		c-5.879,2.158-6.47,1.963-7.256-2.539c-0.586-3.438-0.195-5.205,3.042-12.061c3.628-7.451,3.823-8.633,4.409-20.195
		c0.488-9.414,1.079-13.525,2.842-17.646c1.377-3.33,3.237-12.549,4.902-24.502c6.86-47.646,7.354-60.977,2.549-70.488
		c-3.921-7.646-3.726-10.488,1.177-14.893c5.586-4.902,10.586-5.586,17.646-2.354c6.763,3.037,10.879,3.818,14.214,2.549
		c3.921-1.572,26.27-1.572,35.093-0.098c5.488,0.977,8.525,1.074,11.763,0.195c3.33-0.781,5.981-0.684,11.177,0.293
		c9.019,1.865,18.428,1.768,24.409,0c7.939-2.451,10.977,0,6.074,4.902c-2.451,2.451-2.744,2.549-20.195,5
		c-9.507,1.27-13.135,1.367-24.209,0.391c-12.451-1.074-13.433-0.977-19.409,0.977l-6.274,2.061l-5.195-2.256
		c-4.214-1.758-6.958-2.256-14.214-2.256c-10.098,0-12.354,0.986-17.251,7.939c-2.354,3.438-2.847,5.293-3.726,15.098
		c-0.786,9.121-2.061,49.307-1.865,59.795c0.098,5.693,2.944,12.451,6.177,15c8.921,6.768,23.037,8.73,64.795,8.73
		c20.488-0.107,30.781,0.293,31.958,1.074c1.763,1.074,1.86,3.33,0.391,10.488l-0.586,2.451l-1.67-2.061
		c-0.879-1.172-2.744-2.451-4.019-2.842c-3.037-0.977-22.349,1.182-30.386,3.428c-11.079,3.047-14.507,3.047-26.074,0.293
		c-14.019-3.33-29.507-3.428-35.586-0.391c-3.135,1.67-4.019,2.744-4.604,5.488c-0.298,1.865-0.396,4.512,0,5.791
		c0.684,2.646,2.153,2.939,27.544,4.502c8.623,0.498,22.056,1.377,29.897,1.963c7.842,0.488,21.763,0.986,31.074,0.986
		c14.409,0,17.056,0.195,18.428,1.66c3.335,3.232-0.195,10.195-5.781,11.67c-2.549,0.586-45.781,1.465-67.344,1.367
		c-8.037-0.098-14.805,0.488-19.019,1.475C919.883,32614.332,918.413,32614.537,916.645,32613.844z"/>
	<path fill="#333366" d="M2780.127,32613.746c-1.572-0.293-5.293-1.367-8.135-2.549c-4.609-1.758-6.465-1.963-14.805-1.465
		c-7.93,0.586-10.586,0.391-16.27-1.377c-6.074-1.768-8.428-1.963-20.586-1.367c-13.623,0.586-13.721,0.586-15.977-1.768
		c-3.242-3.428-3.828-6.865-3.047-18.33c0.596-9.316,0.4-11.074-1.758-18.037c-2.939-9.512-2.549-13.232,2.061-16.768l3.232-2.451
		l0.879-15.879c0.488-8.818,0.889-29.209,0.889-45.381c0.098-19.805,0.488-30.684,1.279-33.33c1.27-4.414,5.781-9.609,10.391-11.963
		c4.014-2.061,39.395-3.525,52.441-2.158c5.684,0.596,19.502,0.693,34.697,0.303c18.818-0.498,25.195-0.4,25.195,0.488
		c0,1.562-7.744,16.758-8.525,16.758c-0.293,0-6.572-1.172-13.926-2.549c-13.037-2.549-13.623-2.549-29.512-1.465
		c-25.479,1.855-47.246,4.014-50.967,5c-1.865,0.488-4.902,0.684-6.865,0.391c-2.549-0.391-3.916-0.195-4.902,1.074
		c-2.061,2.451-2.354,15.293-0.586,28.428c1.963,14.609,1.963,21.367,0,38.428c-2.148,18.916-2.148,20.391,0.098,22.842
		c3.438,3.818,8.926,6.66,14.805,7.744c3.232,0.586,8.428,1.562,11.66,2.158c3.242,0.586,15.195,1.367,26.465,1.855
		c11.377,0.4,22.158,1.182,24.023,1.768c1.855,0.586,9.609,1.572,17.051,2.158c7.559,0.586,14.707,1.562,15.986,2.061
		c2.939,1.074,2.939,4.6,0.195,8.232c-1.865,2.256-2.549,2.549-5.195,1.865c-1.67-0.4-21.963-0.791-45.186-0.889
		c-23.145-0.098-45.977-0.488-50.684-0.879l-8.633-0.879v3.916c0,5,1.377,6.172,7.354,6.172c3.135,0,5.986,0.693,8.037,1.963
		c6.475,3.926,38.037,7.939,68.428,8.73l23.525,0.586l0.293,2.744c0.391,3.428-1.465,5.684-8.232,10.098
		c-4.902,3.135-5.195,3.232-18.623,3.623C2789.248,32613.941,2781.797,32613.941,2780.127,32613.746z"/>
	<path fill="#333366" d="M685.991,32610.611c-1.86-1.67-3.232-12.646-5.684-45.781c-0.298-3.721-0.981-8.428-1.572-10.391
		c-0.879-3.037-0.586-5.488,1.572-14.697c2.451-10.098,4.604-26.377,7.544-54.805c0.884-9.209,2.944-23.232,4.414-30.576
		c0.786-3.926,3.53-3.438,6.665,0.977c2.256,3.232,2.549,4.707,2.549,11.27c0,4.121-0.884,13.633-1.958,21.182
		c-1.67,11.465-1.865,17.344-1.475,38.223c0.298,20.684,0.2,25.293-1.177,28.818c-1.074,3.047-1.763,10.488-2.349,27.646
		c-0.493,12.939-1.274,24.512-1.865,25.684C691.186,32611.588,688.345,32612.672,685.991,32610.611z"/>
	<path fill="#333366" d="M1055.356,32611.783c0-0.391,1.274-8.525,2.842-17.939c3.823-22.441,5.981-46.855,5.981-65.771
		c0-15,0-15.293-3.042-21.562c-3.921-8.242-4.019-12.061-0.391-17.646c2.642-4.121,2.935-5.293,3.53-17.646
		c0.776-16.172,2.349-23.525,4.99-23.525c1.572,0,1.772,0.488,1.182,3.721c-1.182,6.279-0.879,38.525,0.493,43.037
		c3.135,11.172,17.642,28.037,28.813,33.623c7.549,3.721,8.628,3.232,17.549-8.916c15.396-20.977,25.391-36.67,35.19-55.488
		c10.098-19.502,10.879-20.684,12.939-21.27c1.177-0.293,2.153-0.391,2.251-0.293c0.396,0.391-5.391,16.172-8.525,23.623
		c-10.684,24.307-14.507,30.977-30.684,52.539c-9.604,12.842-9.8,13.232-10.195,19.121c-0.195,4.805,0.098,6.562,1.963,9.404
		c1.274,1.963,13.037,14.707,26.27,28.33c13.232,13.525,24.805,25.879,25.688,27.256c0.977,1.66,1.372,3.721,1.079,5.391
		c-0.396,2.158-1.079,2.646-3.335,2.646c-3.73,0-7.847-3.73-24.111-22.061c-25.981-29.307-29.8-33.33-34.409-36.367
		c-5.391-3.721-10-8.037-18.921-17.744c-5.781-6.367-6.86-7.148-9.995-7.148c-5.195,0-8.14,1.465-9.312,4.6
		c-0.591,1.475-1.274,9.121-1.479,16.963c-0.391,11.172-1.372,18.623-4.507,35.293c-2.549,12.842-4.805,21.953-5.786,23.428
		C1059.473,32610.025,1055.356,32613.062,1055.356,32611.783z"/>
	<path fill="#333366" d="M1380.019,32608.258c-0.688-2.354-1.865-9.512-2.744-15.977c-0.884-6.475-2.158-15.293-2.944-19.609
		c-0.781-4.307-1.86-11.758-2.349-16.562c-0.688-6.865-1.274-9.121-3.042-10.977c-2.056-2.158-2.153-2.646-0.981-5.791
		c0.688-1.953,1.572-11.953,2.061-22.832c1.079-25.781,2.939-30.586,17.056-45.098c9.312-9.609,18.53-16.758,29.995-23.525
		c11.67-6.768,14.121-7.451,26.367-6.768c12.354,0.596,20.293,3.242,30,9.902c12.939,8.828,17.549,8.633,27.148-1.562l6.475-6.865
		l1.768,2.646c1.953,2.939,1.953,4.023,0.879,30.098c-0.488,10.684-0.293,19.111,0.391,24.014c0.977,6.768,0.879,8.623-0.879,15.879
		c-2.852,11.768-5.488,38.623-5.781,59.111c-0.293,15.098-0.391,15.977-4.512,23.037c-3.633,6.465-5.781,6.758-7.549,1.074
		c-2.158-6.953-1.768-53.711,0.488-65.576c1.768-8.926,1.768-10,0.195-22.061c-4.307-33.818-9.795-42.246-33.33-50.576
		c-10.391-3.73-18.721-4.902-26.66-3.73c-12.051,1.67-20.293,5.391-26.562,12.158c-3.53,3.73-4.805,4.512-7.749,4.512
		c-2.842,0-4.312,0.781-7.349,4.014c-4.116,4.316-8.335,10.391-10.391,15.098c-2.061,4.512-1.67,20.879,0.684,31.27
		c1.274,5.889,1.67,9.414,0.981,10.488c-1.372,2.744-1.079,21.572,0.591,29.512c0.879,3.916,2.446,9.014,3.525,11.367
		c1.963,3.926,1.963,4.316,0.493,7.451c-1.963,4.121-1.963,5.879-0.098,13.037c1.86,6.963,1.172,11.074-2.354,14.512l-2.744,2.549
		L1380.019,32608.258z"/>
	<path fill="#333366" d="M1555.879,32611.686c-0.391-0.391-4.219-0.977-8.535-1.27l-7.832-0.488l-3.438-9.805
		c-3.135-8.721-3.33-10.293-2.441-14.219c1.66-7.646,2.246-19.99,1.074-23.125c-1.67-4.121-1.279-20.488,0.977-43.037
		c0.977-10.781,2.256-27.061,2.842-36.27c1.084-20.195,3.037-28.916,7.158-32.354c1.562-1.367,3.33-2.451,3.828-2.451
		c1.172,0,2.246,4.609,2.051,8.828c0,1.865-0.391,19.209-0.781,38.428c-0.586,33.623-0.488,35.283,1.367,41.66
		c3.242,10.586,2.363,10.098,21.367,12.148c23.438,2.549,30,2.451,43.535-1.074c6.172-1.67,13.623-2.939,16.66-2.939
		c8.037,0,16.465-2.451,19.893-5.879c1.67-1.67,4.814-3.828,7.061-4.902c5.293-2.549,10.977-8.633,16.465-17.646
		c5.498-9.121,7.266-15,8.047-27.158c0.684-10.879,4.902-38.623,6.465-42.637c1.475-3.633,3.047-3.926,7.158-1.182
		c4.111,2.852,4.111,3.145,1.67,7.451c-1.475,2.451-2.158,6.572-3.047,17.451c-1.758,23.33-3.418,31.367-7.93,37.939
		c-2.07,3.135-6.182,9.209-9.023,13.525c-2.939,4.316-7.354,10.098-9.805,12.939c-6.562,7.158-6.66,8.721-0.684,20.684
		c5.586,11.27,6.953,16.855,5.781,23.232c-0.781,4.014-2.148,6.67-8.525,16.367c-2.939,4.512-5.195,5.195-21.572,6.67
		c-6.66,0.586-15.684,1.768-20.088,2.549c-4.414,0.684-14.014,1.367-21.377,1.367c-10.781,0-16.074,0.596-28.125,2.949
		C1560.683,32612.477,1557.051,32612.867,1555.879,32611.686z M1629.297,32590.709c3.34-0.977,8.633-2.939,11.67-4.307
		c3.037-1.377,8.721-2.949,12.646-3.535c3.818-0.586,7.441-1.465,7.939-1.855c1.367-1.279-1.963-9.023-5.098-12.061
		c-2.061-1.963-4.707-3.037-10.4-4.121c-11.27-2.158-20.186-1.855-31.367,1.084c-5.293,1.367-12.148,2.451-15.195,2.451
		c-3.027,0.098-14.102,0.098-24.6,0.098c-12.842,0-19.307,0.293-19.795,0.977c-0.293,0.684-0.586,3.33-0.586,6.074
		c0,2.842-0.195,6.377-0.596,8.037c-0.488,2.158-0.195,3.438,0.889,4.316c3.223,2.646,43.32,6.182,60.078,5.195
		C1619.394,32592.867,1625.869,32591.793,1629.297,32590.709z"/>
	<path fill="#333366" d="M726.475,32609.342c-2.549-1.475-6.372-5-6.372-5.791c0-0.391,3.433-2.744,7.646-5.293
		c5.786-3.623,8.726-4.805,12.451-5.098c2.744-0.195,6.958-1.074,9.312-1.855c2.451-0.889,7.939-1.963,12.256-2.354
		c4.312-0.4,9.214-1.377,10.781-2.158c4.409-2.061,7.939-10.098,8.628-19.414c0.293-4.111,1.079-12.051,1.665-17.744
		c0.688-6.953,0.786-16.367,0.195-28.916c-0.781-17.148,0.391-49.6,2.256-59.795c0.488-2.842,5.391-9.316,7.056-9.316
		c2.842,0.098,3.042,2.256,3.628,43.135c0.391,22.939,0.884,43.916,1.177,46.562c0.293,2.744-0.195,8.037-1.079,12.256
		c-2.158,10-2.158,20.781,0.098,28.232l1.768,6.074h11.367c6.768,0,13.823,0.684,17.646,1.572c3.53,0.879,12.158,1.865,19.312,2.158
		c14.507,0.781,16.274,1.465,13.623,5.586c-2.744,4.209-6.665,5.098-24.702,5.781c-12.251,0.391-18.818,1.172-24.502,2.646
		c-6.963,1.865-9.019,1.963-20.488,1.279c-17.939-1.182-31.274-1.084-39.214,0.293c-3.726,0.586-9.507,1.27-12.744,1.562
		c-3.232,0.293-6.763,0.791-7.842,1.084C729.321,32610.123,727.554,32609.928,726.475,32609.342z"/>
	<path fill="#333366" d="M1968.183,32608.941c-3.73-1.66-18.633-11.855-22.656-15.586c-4.307-4.014-8.916-13.721-8.916-18.721
		c0-2.158,0.986-5.879,2.061-8.33c2.148-4.902,3.428-6.182,16.758-16.963c4.609-3.721,4.609-3.916,4.121-8.33
		c-0.879-6.465-4.023-20.977-5.391-24.307c-1.367-3.535-3.242-28.037-3.242-44.512c-0.098-11.27,0.098-12.734,2.559-17.832
		c2.148-4.707,3.037-5.693,5.098-5.693c2.734,0,3.916,2.451,2.939,6.279c-0.791,3.135,1.172,9.014,3.623,10.684
		c1.865,1.367,1.865,1.572,0.293,9.111c-2.148,10.293-1.367,27.451,1.572,37.158c3.232,10.293,5.293,14.404,10.391,20
		c10.391,11.465,28.037,17.93,49.404,17.93c9.512,0,12.344-0.391,18.135-2.441c10.879-3.926,15.488-6.182,18.623-9.512l2.949-3.037
		l0.293-21.865c0.293-18.33,0-23.232-1.572-30.586l-1.768-8.818l2.646-11.572c2.939-12.93,7.256-24.111,9.307-24.111
		c1.084,0,1.387,2.354,1.387,11.572c0,6.27,0.488,13.037,0.977,14.893c0.488,1.865,1.562,5.791,2.344,8.73
		c1.377,4.805,1.377,6.562,0.098,16.172c-2.148,16.465-5.391,37.842-5.977,40.293c-0.293,1.172-0.098,9.795,0.488,19.209
		c1.475,23.232-0.195,40.391-4.902,49.502c-4.707,9.414-4.805,9.512-20.283,10.391
		C2026.308,32610.025,1971.211,32610.221,1968.183,32608.941z M2041.211,32594.244c9.6-2.061,17.051-4.902,18.223-6.963
		c0.596-0.977,1.182-5.977,1.475-11.172c0.4-7.549,0.195-9.609-1.074-10.586c-3.926-3.34-50.088-2.256-74.209,1.758
		c-6.172,0.986-15.195,2.354-20.098,2.939c-12.148,1.377-14.209,1.963-14.209,3.438c0,1.465,12.549,12.549,16.66,14.697
		c3.525,1.865,24.902,4.414,37.744,4.512c5.391,0,12.939,0.684,16.66,1.377
		C2031.504,32595.904,2033.359,32596.002,2041.211,32594.244z"/>
	<path fill="#333366" d="M1246.308,32604.537c-9.507-0.986-20.781-1.963-25.093-2.256c-9.902-0.693-12.153-1.963-10.781-5.791
		c0.586-1.465,2.056-3.623,3.428-4.697c2.256-1.768,4.019-1.963,18.433-1.963c16.958,0,21.27-0.781,32.642-6.074
		c4.897-2.256,4.897-2.256,5.488-7.646c1.177-11.572,2.451-70.781,1.763-82.344c-0.977-17.744-0.391-28.818,1.865-36.758
		c5.195-17.744,5.586-18.438,8.037-13.438c1.177,2.158,1.274,6.865,0.591,25.684c-1.177,33.623-1.177,35.391,0.391,40
		c1.372,3.916,1.372,4.609-0.391,8.525c-1.572,3.525-1.865,6.572-1.865,17.842c0,7.451-0.786,20.293-1.665,28.525l-1.567,14.902
		l2.646,2.842c4.995,5.195,10.586,6.367,31.953,6.66c19.116,0.205,41.567,1.768,43.818,3.145c1.768,0.879-2.451,8.721-5.684,10.488
		c-1.567,0.879-6.079,1.367-13.135,1.367c-5.884,0-19.609,0.693-30.391,1.475
		C1282.285,32606.783,1268.364,32606.686,1246.308,32604.537z"/>
	<path fill="#333366" d="M2320.879,32606.295c0-0.195-0.488-2.842-0.977-5.879c-0.889-4.414-0.693-7.549,0.879-16.562
		c3.135-18.037,3.33-22.842,1.66-39.609c-2.148-20.684-2.246-27.832-0.684-31.66c1.074-2.549,1.172-5.879,0.684-14.209
		c-2.441-37.061-2.441-38.232,1.572-42.646c1.377-1.465,3.428-5.293,4.6-8.525c4.609-12.354,8.535-14.219,30.879-14.219
		c12.744,0,15.879,0.293,20.781,2.061c7.158,2.549,17.646,2.646,27.852,0.293c5.771-1.27,9.111-1.465,15.684-0.879
		c14.209,1.367,17.832,1.074,23.418-1.865c5.586-2.842,6.963-2.646,6.963,0.879c0,1.279,0.498,2.656,0.986,2.949
		c0.586,0.293,0.977,2.051,0.977,3.916c0,4.316-3.828,7.061-11.475,8.428c-3.135,0.596-10,1.963-15.293,3.047
		c-8.33,1.758-11.67,1.953-24.014,1.367c-11.172-0.488-15.977-0.293-21.27,0.781c-5.391,1.182-10.684,1.377-24.512,0.986
		c-14.219-0.488-18.037-0.293-19.404,0.781c-1.865,1.475-3.525,13.428-3.633,26.367c0,4.512-0.879,9.023-2.939,15.098
		c-3.223,9.609-2.93,14.023,1.084,17.744c1.963,1.768,2.061,2.549,1.562,13.623c-0.186,6.475-0.098,12.744,0.4,13.926
		c0.879,2.451,4.902,4.307,15.586,7.441c8.525,2.354,25.195,2.852,32.148,0.791c3.73-1.084,4.512-0.986,7.354,0.781
		c2.744,1.67,5.684,2.061,24.209,2.646c11.572,0.391,22.061,1.084,23.34,1.475c4.307,1.66,5.293,8.428,1.562,12.051
		c-1.074,1.182-3.535,1.572-8.828,1.572c-4.111,0-12.637,1.074-19.307,2.549c-11.279,2.354-12.646,2.354-23.721,1.367
		c-12.363-1.074-26.367-2.646-36.27-3.916c-6.865-0.977-13.73,0.098-16.084,2.354c-1.865,1.963-1.963,11.172,0,12.354
		c1.279,0.879,21.084,2.158,32.744,2.256c4.609,0.098,9.219-0.693,14.023-2.158c5.586-1.768,8.428-2.158,12.734-1.67
		c20.293,2.061,31.562,2.842,41.66,2.744c13.828,0,14.805,0.488,13.926,7.549c-0.879,6.377-1.572,9.902-1.963,9.902
		c-0.195,0-2.939-0.684-6.084-1.572c-4.6-1.172-9.111-1.367-24.795-0.879c-27.549,0.879-29.6,1.074-52.939,4.902
		C2361.562,32605.709,2320.879,32606.891,2320.879,32606.295z"/>
	<path fill="#333366" d="M2181.191,32603.648c-1.074-0.488-9.902-1.367-19.609-1.963c-18.721-1.27-41.562-3.623-44.209-4.697
		c-1.182-0.391-1.475-1.377-1.084-3.926c0.693-4.014,1.875-5.586,6.973-9.307c3.516-2.549,4.502-2.744,12.734-2.744
		c4.902,0,13.535,0.684,19.219,1.562c19.307,2.744,18.818,2.744,22.539,0.195c4.121-2.744,8.34-10.195,9.805-17.051
		c0.879-4.219,0.781-5.791-1.074-11.279c-1.768-5.391-2.158-9.307-2.559-28.525c-0.488-19.502-0.293-22.744,1.182-26.66
		c1.865-4.805,1.67-11.572-0.488-24.805c-1.084-6.465-0.986-7.939,0.986-15.977c1.172-4.902,3.125-10,4.209-11.367l1.963-2.549
		l1.172,2.256c0.684,1.27,1.572,5.879,1.963,10.195c0.391,4.404,1.67,10.391,2.939,13.721c3.73,9.404,4.219,13.428,4.512,35.781
		c0.293,20.781,0.293,21.172-2.061,25.186l-2.354,4.023l2.158,6.768c1.865,5.684,2.158,8.135,1.67,15.088
		c-0.586,9.414,0.195,17.744,1.855,20c0.684,1.084,5.488,2.451,12.852,4.023c9.697,1.953,13.418,2.256,21.074,1.758
		c7.734-0.488,10.586-0.195,16.66,1.475c7.842,2.158,12.744,5.977,12.744,9.902c0,2.939-2.646,8.721-4.219,9.404
		c-0.781,0.303-3.721-0.488-6.67-1.758c-4.502-1.865-7.246-2.158-18.027-2.256c-6.963-0.098-17.354-0.488-23.047-0.977
		c-9.99-0.693-10.488-0.596-18.418,2.344C2188.34,32604.537,2184.717,32605.025,2181.191,32603.648z"/>
	<path fill="#333366" d="M2490.361,32597.965c-2.842-5.781-3.33-7.646-3.33-14.014c-0.098-4.023-0.488-15.293-0.879-25
		c-0.684-14.512-0.488-19.609,0.879-28.428c1.172-8.135,1.562-16.465,1.367-33.916c-0.195-27.939-0.879-33.037-5.293-43.33
		c-1.855-4.316-3.428-8.721-3.428-9.805c0-0.977,1.182-3.037,2.744-4.502c3.242-3.34,8.73-3.828,17.842-1.67
		c3.525,0.879,9.707,1.572,13.916,1.572c4.121,0,10.977,0.684,15.195,1.465c12.256,2.354,36.172,3.828,40.684,2.549
		c2.354-0.781,4.316-0.781,5.391-0.293c1.172,0.586,4.902,0.488,10.586-0.391c11.963-1.865,14.121-1.963,15.781-0.195
		c1.279,1.27,1.074,2.061-1.367,6.758c-3.438,6.572-5.488,7.744-12.256,6.67c-5.781-0.977-13.232,0.098-23.037,3.33
		c-5.781,1.865-8.623,2.158-24.209,2.061c-12.158,0-20.391-0.586-26.475-1.67c-4.805-0.879-9.209-1.66-9.6-1.66
		c-0.4,0-1.67,1.865-2.744,4.209c-1.074,2.256-2.451,4.805-3.047,5.791c-0.879,1.172-0.781,6.953,0.195,24.014
		c2.07,35.391,1.084,99.795-1.66,110.869C2496.64,32606.49,2493.886,32604.83,2490.361,32597.965z"/>
	<path fill="#333366" d="M2879.619,32602.965c-1.855-0.684-5.977-1.279-9.014-1.279l-5.586-0.098l-1.172-4.111
		c-0.586-2.354-1.182-11.074-1.279-19.414c-0.098-15.088-0.098-15.283,3.232-23.525c2.744-7.148,3.135-8.916,2.451-12.744
		c-0.391-2.451-0.586-8.818-0.391-14.209c0.586-17.354,0.488-27.939-0.391-51.953c-0.791-22.939-0.791-23.623,1.27-28.232
		c1.182-2.549,2.744-4.609,3.535-4.609c0.781,0,1.465,0.293,1.465,0.781c0,0.4,1.084,1.963,2.451,3.535
		c2.451,2.842,2.549,4.307,0.293,10.293c-0.977,2.646-0.879,57.539,0.195,71.064c0.693,9.707,0.195,9.023,10,14.805
		c7.744,4.512,16.172,7.256,23.037,7.451c3.135,0.098,13.428-0.098,22.842-0.488c19.404-0.889,27.051-2.451,42.734-8.633
		c12.158-4.707,20.889-11.758,23.232-18.721c3.145-9.014,6.572-27.051,6.572-34.795c0-4.902,0.586-9.219,1.562-11.572
		c1.572-3.623,1.475-5.195-0.488-12.646c-0.781-2.939-0.586-6.27,0.596-13.525c1.367-8.525,1.855-9.805,4.307-11.562l2.744-1.963
		l2.549,8.135c3.73,11.855,4.121,16.172,1.572,21.562c-2.549,5.684-2.549,6.475,0,9.219l2.061,2.256l-3.232,5.586
		c-2.559,4.512-3.145,6.562-2.949,10.293c0.391,9.014-7.842,29.795-17.148,43.33c-2.939,4.209-5.293,8.232-5.293,8.818
		c0,0.684,0.879,2.256,1.953,3.623c1.084,1.377,1.963,2.852,1.963,3.242s1.768,3.428,4.023,6.66
		c2.158,3.242,4.609,7.354,5.293,9.023c1.66,4.111,0.977,9.902-1.963,14.893c-5.781,9.902-13.135,13.145-39.697,17.256
		c-17.744,2.744-21.279,3.037-49.502,3.232C2890.41,32604.137,2882.275,32603.941,2879.619,32602.965z M2966.474,32588.854
		c6.367,0,13.33-1.963,16.66-4.805c2.754-2.256,5.596-7.744,4.902-9.512c-0.293-0.781-3.623-3.428-7.441-5.879
		c-10.596-6.865-16.084-7.646-41.67-6.182c-11.27,0.693-21.074,1.572-21.758,2.061c-3.037,2.354-7.256,2.549-15.098,0.684
		c-9.805-2.344-20.098-2.646-22.051-0.684c-0.791,0.781-1.67,3.037-2.061,5c-2.158,13.623,11.074,19.316,49.209,20.879
		c6.963,0.195,12.744,0.586,12.939,0.684c0.098,0.205,4.805-0.293,10.293-0.977
		C2955.986,32589.439,2963.144,32588.951,2966.474,32588.854z"/>
	<path fill="#333366" d="M2638.476,32601.49c-0.781-1.758-0.488-6.172,1.377-18.525c2.354-15.977,2.549-24.6,1.084-37.441
		c-0.596-5.293-0.4-7.549,0.879-11.074c0.977-2.451,2.344-4.414,3.135-4.414c1.67,0,1.67,0.098-0.195-7.158
		c-1.279-4.902-1.279-6.66-0.293-10.391c0.684-2.744,1.279-14.707,1.572-30.195c0.391-27.441,0.781-29.697,5.684-37.539
		c1.66-2.646,2.93-3.828,3.525-3.232c0.586,0.586,1.67,5.098,2.451,10.186c1.367,8.34,1.367,10.498,0,21.963
		c-3.73,30.684-4.414,42.939-2.549,49.6c0.684,2.646,0.586,6.475-0.4,13.828c-0.781,5.586-1.758,14.404-2.051,19.502
		c-0.889,13.428-2.363,21.562-5.098,29.111c-1.377,3.633-3.232,8.73-4.219,11.279
		C2641.133,32603.355,2639.853,32604.537,2638.476,32601.49z"/>
	<path fill="#333366" d="M387.891,32515.816c0.493-2.451,1.279-5.293,1.865-6.27c0.488-1.084,0.981-4.609,0.981-7.842
		c0-5.293,0.586-7.158,5.488-16.572c6.665-12.939,11.274-18.525,20.195-24.307c15.977-10.488,24.995-12.646,47.837-11.66
		c19.111,0.879,26.66,3.33,35.386,11.465c9.312,8.623,11.177,13.623,7.354,19.404c-1.372,2.158-2.944,3.926-3.433,3.926
		s-3.433-3.828-6.567-8.428c-5.981-8.73-8.823-11.475-15.586-14.902c-6.079-2.939-9.609-3.428-26.372-3.33h-15.586l-11.86,5.879
		c-6.567,3.232-12.842,6.172-14.019,6.572c-2.744,0.781-9.214,8.037-12.544,14.014c-3.042,5.488-5.981,16.758-6.865,26.465
		c-0.586,5.684-1.074,7.354-2.744,8.525C387.793,32521.305,387.012,32520.621,387.891,32515.816z"/>
	<path fill="#333366" d="M686.284,32372.994c-2.842-1.562-3.135-2.354-5.293-11.562c-1.958-8.242-3.037-23.037-4.507-60.781
		c-0.293-8.33-1.177-17.646-1.865-20.586c-0.879-3.623-1.567-15.488-1.958-35.781c-0.396-16.66-0.884-33.916-1.177-38.223
		c-0.293-4.316-0.098-14.023,0.586-21.572c2.847-35.781,2.944-39.404,2.061-51.953c-0.591-6.953-1.274-19.307-1.567-27.441
		c-0.298-8.047-1.079-22.158-1.567-31.367c-0.688-9.902-0.786-26.865-0.396-41.66c0.493-18.73,0.195-31.279-0.981-50
		c-0.879-13.721-1.763-34.893-1.958-47.051s-0.786-25.098-1.372-28.916c-0.591-3.73-0.981-15.781-1.079-26.67
		c0-10.879-0.391-19.99-0.884-20.293c-0.981-0.684,0.591-6.465,3.042-10.879c0.879-1.66,3.726-4.697,6.372-6.953
		c4.312-3.633,8.428-5.195,48.325-18.33c24.019-7.939,53.13-17.842,64.697-21.865c60.483-21.27,64.502-22.539,126.455-41.074
		c7.842-2.354,16.172-5,18.623-5.879c18.232-6.66,41.27-14.014,60.874-19.512c12.842-3.525,28.037-8.232,33.818-10.293
		c38.428-13.916,39.604-14.307,66.27-20.684c9.019-2.148,21.763-5.781,28.428-7.93c16.958-5.693,30.679-10,52.539-16.572
		c10.391-3.232,19.214-5.977,19.707-6.377c1.47-0.781,45.776-13.027,64.302-17.637c9.214-2.256,20-5.098,24.019-6.279
		c6.86-2.061,35.386-12.051,39.697-13.818c15.591-6.768,93.125-31.172,122.822-38.818c23.34-5.977,25.986-6.67,41.572-11.768
		c7.354-2.441,15.391-4.404,17.744-4.502c2.637,0,8.525,1.465,15.977,4.111c27.344,9.707,37.93,12.842,45.391,13.33
		c4.111,0.205,10.098,0.596,13.32,0.889c3.242,0.195,7.852,1.074,10.293,1.953c12.949,4.805,25.586,8.438,39.219,11.279
		c8.33,1.768,18.721,4.404,23.027,5.879c4.316,1.572,11.182,3.926,15.195,5.293c7.559,2.549,25.684,7.354,44.609,11.963
		c20.195,4.805,38.125,10.293,75.478,23.037c56.66,19.502,77.93,26.367,95.576,30.781c29.404,7.451,53.516,14.6,79.893,23.721
		c24.697,8.525,45.967,14.307,95.576,26.27c8.33,2.061,17.246,4.512,19.805,5.488c2.539,0.977,10.488,3.33,17.637,5.195
		c7.158,1.865,18.828,5.488,25.781,7.939c7.061,2.549,14.121,5,15.684,5.391c1.67,0.391,7.549,2.158,13.242,3.73
		c5.684,1.562,13.125,3.623,16.66,4.404c3.525,0.889,21.562,5.293,40.195,9.805c18.613,4.512,38.418,9.121,44.102,10.195
		c6.963,1.377,15.586,4.121,26.562,8.535c10.693,4.209,18.828,6.855,24.023,7.637c5.977,0.986,9.902,2.354,17.637,6.377
		c5.4,2.842,10.693,6.074,11.768,7.256c1.768,1.953,1.768,2.051-1.074,7.344c-1.67,3.047-3.037,6.377-3.135,7.549
		c-0.195,1.182-0.586,18.232-0.879,37.939c-0.693,35.879,0.391,58.027,4.502,98.027c1.182,10.977,1.572,17.158,2.451,32.344
		c0.293,6.182,0.781,12.646,0.977,14.219c2.158,18.037,3.438,58.125,3.438,107.637c0,25.967,0.488,53.418,0.977,60.967
		c2.256,34.014,2.744,60.283,1.963,104.395c-0.293,14.316-0.098,19.316,1.182,23.73c1.367,4.795,1.465,8.721,0.586,29.893
		c-0.488,13.33-1.377,25.293-1.865,26.562c-1.182,2.939-3.916,2.451-5.391-0.781c-2.158-4.414-3.33-33.916-4.316-103.418
		c-0.586-37.744-1.475-73.223-1.865-78.906c-0.488-5.693-0.977-34.805-1.074-64.697c0-29.902-0.293-59.014-0.488-64.697
		c-0.684-15-2.354-41.074-3.926-61.27c-0.684-9.707-1.562-22.256-1.953-27.939c-0.293-5.684-0.791-13.33-0.986-17.148
		c-2.256-35.098-3.037-112.344-1.182-120.771c1.377-6.572,0-8.633-6.367-10.098c-2.842-0.684-9.805-3.525-15.488-6.27
		c-5.684-2.852-13.135-5.889-16.66-6.768c-3.535-0.879-16.074-4.023-27.939-6.963s-25.088-6.465-29.404-7.744
		c-4.316-1.367-11.377-3.33-15.684-4.404c-41.465-10.889-75.098-20.293-94.6-26.377c-25.586-7.939-50.977-14.99-70.576-19.502
		c-18.633-4.219-31.758-8.135-70.586-20.977c-41.465-13.73-64.395-20.586-87.734-26.465c-29.209-7.256-44.102-11.67-79.883-23.535
		c-12.656-4.209-33.633-11.074-46.562-15.195c-44.316-14.209-57.939-18.223-98.027-28.818c-8.047-2.158-20.879-5.781-28.438-7.939
		c-10.088-2.939-19.404-4.805-34.795-6.953c-39.307-5.391-43.428-6.475-79.893-21.865c-7.441-3.135-10.879-3.135-20.586-0.098
		c-4.316,1.377-16.465,5-26.953,7.939c-19.609,5.586-25.098,7.354-36.367,11.572c-3.535,1.27-10.488,3.135-15.488,3.916
		c-5.098,0.879-17.158,4.316-26.958,7.646c-16.079,5.391-23.135,7.939-41.367,15c-9.019,3.623-21.958,7.744-38.135,12.256
		c-17.739,4.902-22.642,6.465-44.209,13.721c-9.116,3.135-21.562,6.572-27.544,7.744s-16.763,3.818-23.916,5.879
		c-11.768,3.438-22.256,6.377-52.349,14.512c-4.805,1.27-12.939,3.232-18.037,4.316c-5.098,1.172-16.074,4.502-24.507,7.441
		c-22.251,7.939-32.446,10.986-45.679,13.535c-11.079,2.148-17.549,4.014-37.739,11.172c-4.609,1.562-23.135,7.549-41.172,13.232
		c-38.037,11.963-85.479,27.451-89.697,29.404c-3.33,1.572-40.386,13.73-56.855,18.73c-52.734,15.977-118.511,38.32-137.236,46.562
		c-1.86,0.781-6.958,2.744-20.879,7.939c-3.433,1.27-7.842,3.721-9.702,5.293c-3.335,2.842-3.433,3.232-4.805,14.697
		c-1.567,12.256-1.177,26.377,0.884,32.158c0.684,2.061,1.172,21.562,1.372,59.014c0.684,124.688,0.684,124.688,2.549,139.688
		c1.665,12.646,1.86,23.33,2.056,97.529c0.195,48.232,0.688,90.771,1.372,100.967c0.591,9.707,1.572,26.963,2.256,38.232
		c0.586,11.367,1.665,23.916,2.451,27.939c1.47,8.037,1.763,14.707,0.684,14.707
		C688.54,32374.176,687.363,32373.58,686.284,32372.994z"/>
	<path fill="#333366" d="M1272.583,32366.529c-0.195-0.4-0.688-54.111-0.981-119.307c-0.391-65.283-0.786-125.664-1.079-134.287
		l-0.488-15.684l6.958-7.158c3.823-4.023,7.061-7.061,7.256-6.865c0.098,0.195,0.586,63.818,0.977,141.553l0.688,141.25
		l-2.256,0.596C1280.425,32367.506,1273.169,32367.506,1272.583,32366.529z"/>
	<path fill="#333366" d="M1177.397,32097.252c-41.66-6.475-72.051-36.367-79.497-78.33c-3.335-19.111,0.293-40.869,9.702-58.418
		c12.744-23.818,35.879-41.172,62.441-47.148c8.726-1.963,12.842-2.061,60.874-2.451l51.562-0.498l0.591,19.902
		c0.977,29.307,0.776,75.576-0.293,85.088c-1.177,10.293-3.237,18.232-6.67,25.977c-10.981,24.902-29.404,42.148-55.283,51.758
		C1209.746,32097.252,1189.751,32099.107,1177.397,32097.252z"/>
	<path fill="#333366" d="M1506.269,32096.754c-8.516-0.879-18.027-3.135-24.99-5.977c-7.842-3.232-15.195-7.051-15.195-7.939
		c0-0.391-0.586-0.781-1.279-0.781c-2.539,0-16.465-12.549-22.734-20.488c-19.316-24.609-25.293-56.27-16.172-85.869
		c2.051-6.67,8.428-21.074,9.707-22.061c0.391-0.293,1.758-2.061,3.027-3.916c3.535-5.098,14.512-16.377,20.586-21.074
		c27.549-21.279,70.098-23.926,101.074-6.279c27.832,15.977,44.502,41.66,47.93,73.721c0.488,5,0.977,29.6,0.977,54.697v45.771
		l-7.539,0.4C1587.93,32097.74,1513.828,32097.545,1506.269,32096.754z"/>
	<path fill="#333366" d="M1824.375,32095.387c-38.135-6.367-70.391-38.232-77.051-76.074c-1.367-8.135-1.172-27.051,0.488-34.893
		c7.451-35.186,32.939-61.855,68.711-71.758c8.828-2.451,8.926-2.451,62.549-2.842l53.623-0.391v51.27
		c0,31.172-0.391,53.721-1.084,57.637c-2.646,16.465-11.377,34.512-22.744,47.148c-6.367,7.061-15.684,14.707-21.367,17.549
		c-2.354,1.279-5.391,2.939-6.66,3.828C1869.756,32094.117,1841.914,32098.326,1824.375,32095.387z"/>
	<path fill="#333366" d="M1133.481,31856.988c-0.391-0.391-0.684-7.256-0.684-15.391v-14.609l-3.921,3.135
		c-3.14,2.451-5.195,3.242-9.707,3.633c-7.549,0.684-10.098,0-14.702-4.121c-5.786-5.195-7.939-11.367-8.037-22.344
		c-0.103-7.451,0.293-10.098,1.958-14.023c3.823-8.623,8.726-12.158,16.47-12.061c5.586,0.098,9.702,1.475,14.019,4.805
		c1.763,1.377,3.428,2.354,3.823,2.256c0.293-0.098,0.781-1.67,1.074-3.428c0.396-2.451,0.981-3.232,2.451-3.232
		c1.67,0,2.061,0.781,2.451,6.367c0.293,3.525,0.493,20.488,0.493,37.744v31.367l-2.451,0.293
		C1135.342,31857.574,1133.872,31857.379,1133.481,31856.988z M1121.719,31827.965c1.47-0.586,4.609-2.939,6.958-5.098l4.121-3.916
		v-10.879v-10.977l-4.121-4.219c-2.251-2.256-5.684-4.805-7.446-5.586c-6.963-2.842-13.823,0.586-16.86,8.525
		c-2.158,5.391-1.768,19.121,0.781,24.707C1108.486,31827.867,1114.956,31830.816,1121.719,31827.965z"/>
	<path fill="#333366" d="M1350.122,31856.891c-0.396-0.293-0.688-17.549-0.688-38.232v-37.549h2.354c1.372,0,2.646,0.4,2.939,0.791
		c0.391,0.684,0.981,67.344,0.688,74.502C1355.317,31857.574,1351.196,31858.062,1350.122,31856.891z"/>
	<path fill="#333366" d="M1691.445,31832.379c0-13.33-0.098-30.488-0.195-38.027l-0.195-13.73h2.949h2.93l0.293,18.135l0.195,18.135
		l3.73,3.73c6.27,6.562,11.855,8.135,17.744,5.098c4.404-2.256,5.293-6.084,5.879-26.465c0.498-16.865,0.791-18.633,2.354-18.926
		c4.023-0.781,4.609,1.182,4.609,16.865c0,18.33-1.074,25.186-4.512,29.697c-6.074,7.939-19.219,8.135-26.27,0.391
		c-1.074-1.172-2.256-2.051-2.744-2.051c-0.498,0-0.791,6.953-0.693,15.488l0.098,15.381l-3.027,0.303l-3.047,0.293
		L1691.445,31832.379z"/>
	<path fill="#333366" d="M1866.23,31855.416c-0.879-0.879-1.172-10.098-1.172-38.232v-37.051h2.832c1.67,0,3.047,0.586,3.438,1.572
		c0.293,0.879,0.586,7.256,0.586,14.307v12.744l3.535-4.307c1.953-2.256,4.209-5.098,5.098-6.182
		c0.977-1.074,3.418-4.111,5.488-6.865c7.539-9.502,9.6-11.27,13.027-11.27c1.973,0,3.242,0.488,3.242,1.27
		c-0.098,0.596-4.902,6.963-10.781,13.926c-5.879,7.061-10.781,13.232-10.781,13.721c0,1.182,1.465,2.744,12.637,13.623
		c4.316,4.219,7.656,8.145,7.354,8.535c-0.293,0.488-1.865,0.879-3.525,0.879c-2.549,0-4.805-1.758-14.121-10.977l-11.172-10.977
		l-0.195,23.027c-0.293,22.158-0.391,22.939-2.256,23.242C1868.379,31856.5,1866.914,31856.1,1866.23,31855.416z"/>
	<path fill="#333366" d="M1493.633,31846.891c-0.586-1.074-1.074-4.609-1.074-7.842c0-5.889-0.098-5.986-2.656-6.084
		c-5.781-0.195-22.344,0.303-22.734,0.693c-0.195,0.195-0.293,2.256-0.293,4.502c0.098,5.4-0.498,7.354-2.266,8.047
		c-3.33,1.27-4.404-0.391-4.404-6.865v-6.279h-3.33c-3.73,0-6.67-2.246-5.879-4.404c0.293-0.791,2.246-1.475,4.6-1.67l4.111-0.293
		l0.498-19.805c0.488-18.027,0.684-19.99,2.549-22.441c2.451-3.438,6.27-4.512,12.549-3.926c4.893,0.586,6.465,1.67,6.465,4.707
		c0,1.572-0.684,1.67-5.586,1.172c-5-0.586-5.879-0.391-7.646,1.572c-1.758,1.963-1.953,3.525-1.953,20.488v18.232l13.027,0.293
		l12.949,0.293v-18.037c0-16.66,0.195-18.232,2.246-22.246c2.559-5.098,5.391-6.865,11.27-6.865c5.498,0,8.047,1.377,8.047,4.512
		c0,2.354-0.195,2.451-4.316,1.855c-9.512-1.465-10.391,0.596-10.391,23.633v17.051h7.256c5.977,0,7.354,0.293,7.842,1.67
		c1.074,2.646-2.158,4.307-7.744,4.209c-2.646-0.098-5.391-0.098-6.084-0.098c-0.781,0.098-1.27,2.656-1.465,7.754
		c-0.293,6.855-0.488,7.539-2.451,7.832C1495.391,31848.756,1494.219,31848.16,1493.633,31846.891z"/>
	<path fill="#333366" d="M1776.338,31844.635c-0.195-0.684-0.586-3.721-0.781-6.67l-0.303-5.391l-4.014-0.293
		c-6.963-0.488-6.475-6.074,0.596-6.074h3.516v-17.939c0-9.805,0.303-19.014,0.693-20.391c1.182-4.014,4.014-6.572,8.525-7.646
		c6.27-1.367,10.879-0.391,11.963,2.646c1.27,3.33,0,4.316-4.023,3.037c-5.098-1.562-8.428,0.098-9.707,4.707
		c-0.586,2.061-1.084,10.879-1.084,19.609v15.879l7.656,0.293c7.344,0.293,7.539,0.391,7.539,2.744s-0.195,2.451-7.539,2.744
		l-7.559,0.293l-0.293,6.572c-0.293,5.977-0.488,6.562-2.539,6.855C1777.812,31845.816,1776.631,31845.318,1776.338,31844.635z"/>
	<path fill="#333366" d="M1917.207,31844.635c-0.684-0.684-1.182-3.818-1.182-7.256c0-5.586-0.195-6.074-1.963-5.586
		c-1.074,0.293-3.037,0.195-4.414-0.098c-1.953-0.488-2.539-1.172-2.246-2.842c0.195-1.768,0.977-2.256,4.512-2.451l4.111-0.293
		l0.098-17.158c0.098-9.404,0.303-17.451,0.4-18.037c0.098-0.488,0.293-1.855,0.391-2.939c0-1.074,1.27-3.232,2.832-4.902
		c2.168-2.549,3.633-3.135,8.145-3.623c6.562-0.684,9.707,0.684,9.707,4.209c0,2.354-0.195,2.451-4.316,1.865
		c-9.609-1.465-10.391,0.195-10.391,23.037v17.646h7.344c7.168,0,7.363,0.098,7.363,2.451c0,2.646-0.391,2.744-9.316,2.842
		l-4.902,0.098l-0.293,6.367c-0.293,5.889-1.172,7.754-3.633,7.852C1918.867,31845.816,1917.89,31845.318,1917.207,31844.635z"/>
	<path fill="#333366" d="M1164.165,31832.574c-1.865-0.781-4.214-1.758-5.195-2.051c-1.763-0.693-3.335-4.902-2.256-5.986
		c0.293-0.391,2.842,0.391,5.488,1.67c5,2.354,11.86,3.037,16.763,1.66c3.53-0.879,5.884-4.795,6.47-10.879l0.591-5.195
		l-9.707-0.488c-11.074-0.586-16.074-2.451-19.995-7.744c-1.768-2.549-2.354-4.609-2.354-8.33c0-9.023,5.586-14.121,15.293-14.121
		c5.488,0,14.507,3.145,14.507,5.098c0,2.061,1.865,0.391,2.158-1.855c0.195-2.158,0.781-2.744,2.744-2.744h2.451l0.293,20.381
		c0.293,22.744-0.293,25.195-6.079,29.414C1181.514,31834.146,1169.556,31834.83,1164.165,31832.574z M1185.532,31800.426
		c0.298-5.293,0.103-5.781-2.939-8.623c-5.098-4.707-8.428-6.084-13.33-5.498c-5.391,0.596-8.037,3.145-8.726,8.242
		c-0.391,3.135,0,4.307,2.061,6.855c3.135,3.73,7.744,5.098,16.27,4.902l6.372-0.195L1185.532,31800.426z"/>
	<path fill="#333366" d="M1224.941,31832.184c-1.865-1.074-4.316-2.744-5.293-3.916c-2.646-2.939-3.53-2.549-3.53,1.367
		c0,3.135-0.195,3.428-2.939,3.428h-2.944l0.2-25.674c0.293-24.219,0.391-25.781,2.153-26.084c0.981-0.195,2.158,0,2.646,0.498
		c0.396,0.391,0.884,8.818,0.884,18.525l0.195,17.646l2.744,2.939c6.665,6.953,11.665,9.111,17.256,7.256
		c2.646-0.889,3.921-2.158,5.391-5.303c1.567-3.428,1.86-6.562,1.86-22.441c0-16.074,0.195-18.428,1.567-19.023
		c0.884-0.293,2.354-0.195,3.237,0.4c1.372,0.879,1.562,3.623,1.562,20.488c0,18.721-0.098,19.697-2.354,23.525
		C1243.271,31833.463,1232.881,31836.305,1224.941,31832.184z"/>
	<path fill="#333366" d="M1304.932,31832.672c-9.316-3.525-14.512-12.344-14.609-25.088c-0.293-18.721,7.256-26.963,24.312-26.768
		c11.567,0.098,18.53,3.242,16.86,7.451c-0.488,1.377-1.177,1.377-5.977-0.391c-10.884-3.818-22.256-1.572-25.684,5.195
		c-0.884,1.67-1.865,5.391-2.256,8.232l-0.786,5.293l18.237,0.195l18.232,0.293l-0.098,6.377
		c-0.107,12.256-6.67,19.502-18.237,20.195C1311.006,31833.951,1307.383,31833.561,1304.932,31832.672z M1320.81,31826.598
		c3.335-2.158,6.079-7.256,6.079-11.367v-3.73h-14.707h-14.702v2.451c0,1.377,0.884,4.219,1.86,6.279
		C1303.359,31828.072,1313.652,31831.109,1320.81,31826.598z"/>
	<path fill="#333366" d="M1413.149,31833.16c-4.019-1.27-8.232-3.721-10.488-6.172c-8.428-8.916-8.623-31.172-0.488-40.391
		c3.037-3.33,11.074-6.465,16.958-6.465c6.67,0,14.697,3.73,18.721,8.828c8.438,10.684,6.572,33.027-3.33,40.479
		C1429.131,31833.561,1419.717,31835.123,1413.149,31833.16z M1428.838,31825.914c4.6-3.047,6.768-7.158,7.451-14.121
		c1.66-16.074-4.805-25.781-17.354-25.781c-11.665,0-18.428,11.377-15.684,26.67c1.177,6.855,3.037,9.99,7.939,13.33
		C1415.703,31829.049,1424.326,31829.049,1428.838,31825.914z"/>
	<path fill="#333366" d="M1268.955,31815.914c-0.195-37.744-0.391-35,2.842-34.609l2.646,0.303l0.293,25.781l0.195,25.674h-2.939
		h-2.939L1268.955,31815.914z"/>
	<path fill="#333366" d="M1558.525,31831.305c-5.293-2.158-7.451-4.219-6.572-6.377c0.684-1.855,3.34-2.256,4.902-0.781
		c0.488,0.586,3.438,1.67,6.475,2.451c10.684,2.744,16.963-1.27,17.646-11.172l0.293-4.414l-8.34-0.586
		c-11.758-0.791-14.404-1.572-18.711-5.488c-6.582-5.986-6.182-16.279,0.879-21.67c3.037-2.354,4.307-2.646,10.586-2.646
		c6.367,0,7.539,0.293,11.562,3.145l4.414,3.135l0.293-3.135c0.195-2.559,0.684-3.145,2.744-3.145h2.451l0.293,18.135
		c0.391,25.879,0,27.549-7.646,32.256C1575.391,31833.658,1564.697,31833.756,1558.525,31831.305z M1580.586,31799.049
		c-0.293-6.465-0.391-6.66-4.512-9.795c-3.633-2.754-5.098-3.242-9.512-3.242c-4.609,0-5.488,0.293-7.744,3.047
		c-2.744,3.232-3.135,5.195-1.572,9.111c1.67,4.609,7.852,6.865,19.414,7.256l4.219,0.098L1580.586,31799.049z"/>
	<path fill="#333366" d="M1606.562,31832.379c-1.67-0.586-1.865-50.771-0.195-51.758c0.488-0.391,2.051-0.391,3.418-0.098
		l2.363,0.586v17.451v17.354l4.414,5.098c4.795,5.391,8.223,6.855,12.539,5.293c2.158-0.879,2.744-0.684,3.535,0.781
		c1.66,3.037-1.279,5.977-5.879,5.977c-4.609,0-7.07-1.074-11.377-5.195l-3.232-3.037v3.037
		C1612.148,31831.695,1609.785,31833.561,1606.562,31832.379z"/>
	<path fill="#333366" d="M1653.808,31831.402c-5.879-2.451-10.586-8.33-12.744-15.781c-0.693-2.451-0.791-13.633-0.098-18.525
		c0.684-4.902,4.111-10.693,8.037-13.73c3.037-2.256,4.805-2.744,10.879-3.037c6.27-0.391,7.842-0.098,12.549,2.256
		c5,2.354,5.391,2.842,5.391,5.977c0,1.865-0.293,3.34-0.791,3.34c-0.391,0-2.441-1.182-4.6-2.646
		c-4.512-3.047-11.377-4.023-16.572-2.256c-6.562,2.158-10.195,14.014-7.93,25.879c1.367,7.549,2.734,9.99,6.66,12.354
		c5.293,3.33,15.586,2.051,19.219-2.256c1.66-2.061,3.623-2.158,4.404-0.107
		C1680.762,31829.635,1663.711,31835.621,1653.808,31831.402z"/>
	<path fill="#333366" d="M1820.449,31831.207c-9.609-4.512-15-15.586-13.916-28.721c1.377-16.572,11.562-24.609,28.721-22.842
		c9.609,1.074,14.316,3.916,12.842,7.744c-0.498,1.172-1.67,1.074-7.256-0.586c-15.195-4.609-25.684,0.488-26.562,12.939
		l-0.391,5.391l16.367-0.195c9.805-0.195,17.051,0.098,18.232,0.684c2.354,1.27,2.451,6.367,0.391,13.428
		c-2.549,8.428-8.525,12.939-18.428,13.623C1825.937,31832.965,1823.398,31832.574,1820.449,31831.207z M1837.998,31824.439
		c2.256-2.061,5.391-8.721,5.488-11.66c0-2.256-0.098-2.256-14.697-2.256h-14.707v2.744c0,4.111,5.391,11.758,9.111,12.939
		C1827.412,31827.477,1835.644,31826.5,1837.998,31824.439z"/>
	<path fill="#333366" d="M1749.375,31821.109c0-6.074-0.293-16.66-0.586-23.525c-0.781-15.586-0.391-17.451,3.535-17.451h2.939
		l0.098,23.33c0.098,12.744,0.195,24.307,0.293,25.684c0.098,2.061-0.391,2.451-3.037,2.744l-3.242,0.293V31821.109
		L1749.375,31821.109z"/>
</g>
</svg>
