<?xml version="1.0" encoding="utf-8"?>
<!-- Generator: Adobe Illustrator 16.0.4, SVG Export Plug-In . SVG Version: 6.00 Build 0)  -->
<!DOCTYPE svg PUBLIC "-//W3C//DTD SVG 1.1//EN" "http://www.w3.org/Graphics/SVG/1.1/DTD/svg11.dtd">
<svg version="1.1" id="Ebene_1" xmlns="http://www.w3.org/2000/svg" xmlns:xlink="http://www.w3.org/1999/xlink" x="0px" y="0px"
	 width="304px" height="154.002px" viewBox="9 81 304 154.002" enable-background="new 9 81 304 154.002" xml:space="preserve">
<g transform="translate(0.000000,3307.000000) scale(0.100000,-0.100000)">
	<path fill="#333366" d="M1627.06,32157.824c-2.451-1.275-6.372-2.746-8.823-3.332c-21.665-5.395-30.293-7.943-45.581-13.529
		c-20.195-7.451-31.958-11.373-39.702-13.525c-2.939-0.785-11.763-3.238-19.604-5.488c-7.842-2.256-20.586-5.785-28.428-7.842
		c-17.153-4.609-33.428-9.219-67.148-18.92c-14.019-4.02-40.288-11.373-58.325-16.275c-18.037-4.805-39.014-10.586-46.562-12.646
		c-29.702-8.33-47.349-13.33-53.428-15.094c-3.525-0.98-12.939-3.334-21.074-5.195c-8.037-1.961-15.977-3.92-17.642-4.414
		c-1.572-0.488-9.512-2.543-17.646-4.408c-8.037-1.963-19.507-5-25.488-6.865c-5.879-1.762-14.995-4.41-20.093-5.879
		c-5.098-1.371-17.256-4.707-26.958-7.451c-15.684-4.311-49.8-15.098-56.367-17.744c-3.135-1.27-11.567-3.525-35.776-9.605
		c-10.786-2.742-24.707-6.273-30.879-7.938c-6.177-1.568-22.939-5.293-37.251-8.238c-30.293-6.27-25.781-4.996-58.818-17.348
		c-49.209-18.527-58.228-21.27-88.223-27.252c-18.232-3.627-27.739-6.373-29.507-8.428c-0.684-0.785-1.079-3.141-0.977-5.098
		c0.098-1.963,0.586-17.939,1.074-35.488c0.981-33.916,2.061-51.367,3.14-52.441c1.665-1.768,3.037,5.195,4.312,22.836
		c0.786,10.592,1.567,21.764,1.768,24.703c0.293,2.945,0.977,12.939,1.567,22.061c1.274,18.33,1.86,21.074,4.902,21.074
		c1.172,0,4.8,0.684,8.135,1.471c3.33,0.785,14.214,3.236,24.214,5.391c26.27,5.785,29.209,6.762,65.186,21.371
		c9.604,3.916,20.977,7.549,32.837,10.488c10,2.549,19.512,5,21.079,5.488c3.823,1.176,33.032,8.428,43.13,10.684
		c7.354,1.67,25.977,6.469,48.032,12.256c18.921,5,33.135,9.408,58.325,18.037c14.214,4.801,31.958,9.996,53.916,15.684
		c1.86,0.488,7.451,1.963,12.251,3.33c4.902,1.377,14.609,3.822,21.567,5.494c7.061,1.664,14.312,3.426,16.177,4.018
		c1.86,0.488,17.056,4.213,33.623,8.33c33.423,8.135,37.246,9.215,75.674,21.074c27.349,8.434,49.897,14.707,76.953,21.566
		c13.232,3.336,27.544,7.154,31.855,8.336c9.707,2.842,25.195,7.152,30.391,8.525c2.153,0.586,6.372,1.865,9.312,2.842
		c2.939,0.98,10,3.141,15.684,4.707s20,5.781,31.86,9.41c11.86,3.627,27.251,8.334,34.209,10.391
		c6.963,2.156,17.549,5.395,23.525,7.254c20.195,6.275,44.214,13.43,47.642,14.215c1.865,0.488,5,1.273,6.865,1.865
		c2.544,0.781,4.8,0.684,8.818-0.299c10.981-2.742,36.172-10.391,40.781-12.445c8.135-3.434,17.939-6.475,31.27-9.707
		c18.135-4.215,48.916-12.646,67.148-18.33c6.177-1.963,13.232-4.121,15.684-4.805s13.433-4.311,24.507-8.232
		c11.079-3.824,30.879-10.098,44.111-13.824c13.232-3.822,26.27-7.645,28.921-8.432c2.744-0.781,6.27-1.764,7.842-2.252
		c12.446-3.334,24.014-6.957,26.465-8.236c1.665-0.781,9.604-3.037,17.646-4.902c16.958-4.014,39.307-9.701,48.521-12.35
		c29.312-8.529,44.897-13.328,72.051-22.152c17.251-5.684,34.702-11.078,38.721-12.158c23.818-5.879,59.795-16.172,82.832-23.721
		c5.391-1.664,13.33-3.727,20.781-5.293c4.019-0.781,9.604-2.549,12.451-3.824c14.8-6.762,35.288-13.23,72.144-22.641
		c4.902-1.279,29.312-9.219,43.135-14.215c56.265-19.902,68.813-23.529,89.106-25.391c9.312-0.883,12.544-1.469,13.525-2.742
		c1.079-1.373,1.274-5.195,0.884-19.312c-0.391-9.707-0.884-29.508-1.177-44.111l-0.688-26.465l2.744-10.293
		c1.475-5.689,3.042-10.689,3.433-11.08c0.396-0.395,0.981,12.154,1.372,28.033c0.391,15.885,1.274,33.428,2.061,39.014
		c0.781,5.59,2.158,17.354,3.037,26.176c1.665,15.781,1.665,16.08-0.293,18.625c-2.158,2.943-2.158,2.943-28.721,10.883
		c-28.525,8.623-60.972,18.721-91.167,28.525c-14.8,4.805-32.642,10.293-39.697,12.252c-26.567,7.352-39.8,11.371-59.307,17.938
		c-11.079,3.727-27.549,9.117-36.763,11.861c-9.116,2.842-18.428,5.787-20.586,6.471c-2.153,0.688-6.958,2.156-10.781,3.236
		c-3.726,1.178-13.428,4.018-21.567,6.373c-8.037,2.445-28.818,8.432-46.069,13.328c-17.256,4.902-36.665,10.488-43.135,12.355
		c-6.47,1.957-17.446,5.092-24.507,6.957c-24.409,6.664-73.716,20.879-79.009,22.842c-9.8,3.525-28.721,8.818-39.014,10.879
		c-5.684,1.178-16.958,4.213-24.995,6.865c-54.307,17.543-75.874,24.014-130.474,39.502c-38.525,10.977-53.423,15.391-66.167,19.408
		c-6.768,2.154-17.256,5.293-23.428,6.959c-6.177,1.572-14.409,4.219-18.335,5.787
		C1637.646,32160.768,1632.938,32160.865,1627.06,32157.824z"/>
	<path fill="#333366" d="M192.246,31756.109c-1.567-2.055-4.902-11.27-8.623-24.014c-1.865-6.568-6.475-19.115-10.195-27.939
		c-6.177-14.703-7.842-19.404-13.726-39.502c-4.116-14.018-11.274-22.256-20.488-23.623c-2.549-0.395-5.684-1.078-6.958-1.572
		l-2.256-0.781l2.354-1.963c1.372-0.977,4.902-2.939,7.939-4.215c3.921-1.762,5.879-3.334,7.158-5.785
		c1.958-3.818,1.958-9.996-0.103-14.898c-2.251-5.293-1.958-13.426,0.591-16.664c2.549-3.232,2.939-2.842,5.586,4.805
		c5.981,17.25,8.628,22.641,13.335,26.758c5.586,4.902,9.604,5.59,32.446,5.688c11.567,0,23.623,0.592,27.446,1.275
		c17.056,3.037,25.19,0.879,32.153-8.529c2.153-3.039,4.116-5.098,4.214-4.605c0.098,0.586,0.488,3.037,0.884,5.684
		c0.781,5.586,2.939,7.354,9.897,8.232c2.646,0.299,5,0.689,5.195,0.885c0.591,0.492-3.525,6.664-6.177,9.115
		c-2.056,1.963-3.525,2.354-9.604,2.451c-6.47,0.098-7.744,0.488-13.33,3.824c-10,6.176-9.019,4.604-36.27,57.836
		c-5.981,11.762-11.567,23.721-12.354,26.465c-0.781,2.842-2.451,8.922-3.726,13.727
		C195.483,31756.992,194.209,31758.658,192.246,31756.109z M200.483,31717.096c2.939,0,7.642-5.781,11.562-14.111
		c2.256-4.902,5.981-12.256,8.335-16.273c4.019-6.959,15.684-29.996,15.684-30.879c0-1.275-6.177-6.373-8.53-7.057
		c-2.744-0.689-12.642-0.885-38.521-0.494l-14.312,0.195l0.391,10.592c0.391,14.506,0.684,15.879,5.098,22.447
		c2.158,3.139,3.921,6.273,3.921,6.859c0,0.688,1.274,4.414,2.842,8.336c1.47,3.92,4.019,10.385,5.488,14.311
		c2.354,6.367,2.944,7.154,4.805,6.666C198.325,31717.389,199.795,31717.096,200.483,31717.096z"/>
	<path fill="#333366" d="M1918.979,31755.23c-2.056-0.98-4.312-3.135-5.098-4.609c-2.642-5.195-5.391-15.879-7.939-31.172
		c-4.409-26.27-12.251-52.051-19.702-65.283c-2.354-4.219-4.312-8.037-4.312-8.529c0-1.471-2.646-2.648-10.293-4.41
		c-15.293-3.727-15.684-5.098-4.902-16.078c8.335-8.625,8.237-7.941,6.372-26.959c-0.981-10.488-0.391-13.525,3.433-15.189
		c1.958-0.885,2.451-0.592,4.214,2.543c1.079,2.061,2.744,6.279,3.628,9.414c2.354,8.135,6.567,17.152,9.702,20.879
		c1.865,2.158,3.823,3.232,6.763,3.727c2.256,0.391,6.274,1.859,8.921,3.236c5.884,3.135,13.037,3.33,21.86,0.586
		c5.293-1.568,6.963-1.666,13.726-0.684c9.8,1.465,12.451,0.879,16.763-3.633c2.056-2.057,4.702-3.916,5.981-4.115
		c1.958-0.195,2.642-1.275,4.019-6.178c2.646-8.916,9.8-27.246,11.562-29.111c1.475-1.762,4.219-2.354,5.396-1.176
		c0.293,0.297,0.098,1.762-0.298,3.139c-10.391,32.051-11.172,35.879-8.037,38.721c3.042,2.842,10.391,5.488,17.939,6.566
		c3.921,0.586,8.628,1.275,10.391,1.568l3.037,0.488l-5.488,7.842l-5.586,7.842l-12.939-0.195l-12.842-0.195l-4.019,3.135
		c-4.116,3.238-11.86,12.061-11.86,13.434c0,0.488-1.567,3.133-3.53,5.879c-3.53,5.199-4.019,7.156-2.842,10.688
		c0.488,1.566,0,2.354-1.768,3.33c-3.721,2.061-5.098,5.586-13.428,36.172c-2.061,7.744-4.116,16.568-4.409,19.604
		c-1.079,10.396-2.451,14.707-5.688,17.844C1924.174,31757.779,1923.783,31757.779,1918.979,31755.23z M1928.686,31706.705
		c2.354,0.787,3.33-0.391,5.098-5.781c0.786-2.158,4.019-10.098,7.251-17.646c8.726-20.586,11.567-29.209,9.902-30.191
		c-1.079-0.59-1.274-1.762-0.781-4.115c0.586-3.139,0.391-3.334-2.749-3.822c-1.763-0.299-10.684-0.982-19.702-1.471
		c-16.567-0.982-21.27-0.494-21.27,2.057c0,0.688-0.195,5.293-0.396,10.098c-0.391,10.488,0.981,18.035,6.274,32.543
		c2.549,6.963,4.902,11.469,7.061,13.824c4.702,5.098,6.079,6.078,6.763,4.896
		C1926.527,31706.51,1927.606,31706.412,1928.686,31706.705z"/>
	<path fill="#333366" d="M725.312,31750.816c-2.646-5.977-2.646-14.898-0.098-47.539c3.237-39.508,1.567-47.445-10.391-51.562
		c-3.428-1.176-12.251-0.883-14.702,0.488c-1.079,0.59-3.237,0.391-6.274-0.586c-4.409-1.371-5.098-1.371-14.312,1.273
		c-5.391,1.471-10.391,3.039-11.274,3.531c-0.781,0.391-2.744,3.33-4.312,6.465c-2.744,5.492-2.842,6.377-3.53,25.781
		c-1.567,43.037-3.232,52.348-10.684,61.758l-1.963,2.451l-2.446-2.744c-2.944-3.336-3.237-8.232-0.884-14.508
		c1.274-3.236,1.86-9.805,2.451-26.859c0.391-12.354,1.079-26.562,1.47-31.562c0.786-10.098-0.688-16.469-5.293-23.232
		c-2.451-3.627-2.744-3.725-6.763-3.139c-2.354,0.297-5.293,0.785-6.572,1.176c-1.86,0.391-2.544,0.098-3.037-1.469
		c-0.981-3.141,1.079-5.787,7.158-8.824c6.274-3.232,11.27-7.939,12.939-12.354c1.567-4.115,3.726-16.27,4.507-25.482
		c0.688-8.336,2.158-11.275,5.688-11.275c4.116,0,5.488,4.609,6.074,19.311c0.884,21.764,2.158,23.824,16.274,26.861
		c5.684,1.275,14.8,2.158,24.312,2.549c14.702,0.488,15.288,0.488,18.037-1.67c3.525-2.842,10.879-17.936,12.349-25.287
		c1.963-10.391,3.237-13.336,6.177-14.703c1.567-0.785,3.037-1.176,3.232-0.883c1.372,1.273,2.158,11.957,1.274,17.543
		c-1.567,10.785,1.079,19.902,7.744,27.055c2.549,2.75,3.628,3.141,8.237,3.238c2.842,0.098,6.47,0.391,8.037,0.781l2.939,0.59
		l-4.604,4.02c-3.14,2.744-6.768,4.707-11.372,6.176c-6.372,2.057-6.958,2.453-7.451,5.293c-0.488,3.531-1.958,17.154-3.433,34.016
		c-0.977,10.688-7.251,45.287-8.623,47.641c-0.396,0.586-2.549,3.135-4.805,5.684l-4.116,4.609L725.312,31750.816z"/>
	<path fill="#333366" d="M377.222,31754.055c-0.293-0.293-5-0.689-10.391-0.787c-8.232-0.098-10.684-0.586-14.897-2.549
		c-4.121-1.957-6.665-2.451-13.14-2.451c-4.409,0-10.386-0.391-13.33-0.879c-5.879-0.885-13.232,0.293-15.977,2.646
		c-0.786,0.781-1.963,1.371-2.549,1.371c-1.47,0-2.158-14.213-1.177-24.994c0.884-9.316,2.744-57.643,3.433-89.209
		c0.684-31.758,1.172-36.66,3.921-39.404c1.372-1.373,3.428-2.256,5.391-2.256h3.135l-0.586,15.98
		c-0.396,8.727-0.884,16.959-1.177,18.332c-0.293,1.371-0.493,11.273-0.493,22.055c-0.098,15.684,0.298,21.367,1.768,28.232
		c1.079,4.707,2.061,8.721,2.256,8.818c4.116,2.555,17.642,7.945,22.446,8.926c9.507,2.055,31.465,2.744,46.758,1.469l13.53-1.078
		l5.879-4.316c3.237-2.445,6.958-4.703,8.335-5c1.567-0.293,4.214-2.939,7.446-7.543c6.566-9.117,8.236-12.551,12.938-26.568
		c8.628-25.781,10.586-35.684,9.414-49.6c-0.591-7.646-0.396-9.02,1.074-10.684c3.14-3.434,7.847-2.256,8.628,1.957
		c0.981,5.195-1.47,22.545-4.902,34.801c-5.781,20.879-9.312,29.312-20.288,48.031c-10.487,17.844-9.999,22.154,2.646,27.252
		c6.274,2.549,11.074,6.471,12.544,10.195c2.549,6.865-1.074,19.701-6.665,23.525c-2.451,1.768-16.859,8.531-22.348,10.586
		C417.51,31752.193,378.105,31754.938,377.222,31754.055z M416.04,31743.17c14.706-0.098,14.804-0.098,18.92-2.939
		c11.274-7.842,12.646-14.014,5-22.348c-0.884-0.982-5-3.336-9.214-5.195c-7.157-3.336-8.334-3.629-20.487-4.117
		c-7.158-0.391-15.684-0.488-19.116-0.391c-4.214,0.098-6.958-0.297-8.921-1.475c-2.549-1.568-3.037-1.568-7.842,0.098
		c-4.116,1.377-6.567,1.475-13.135,0.885c-4.414-0.488-9.312-0.689-10.981-0.592c-1.567,0.201-8.135,0.592-14.507,1.084
		c-6.372,0.391-12.056,1.27-12.646,1.859c-0.586,0.592-1.274,4.605-1.567,8.922c-0.391,7.744-0.391,7.939,2.451,10.684
		c4.707,4.316,15.684,7.061,47.349,11.957c13.037,2.062,19.8,2.652,24.014,2.16C398.594,31743.469,407.905,31743.17,416.04,31743.17
		z"/>
	<path fill="#333366" d="M545.731,31751.602c-1.279-1.566-6.475-5.883-11.572-9.506c-8.33-5.982-15.288-12.451-20.581-19.213
		c-3.433-4.512-5.884-10.391-8.921-22.057c-1.67-6.373-3.921-14.902-5-18.92c-2.061-7.545-1.567-11.178,1.567-13.824
		c1.079-0.879,1.47-0.195,1.963,3.629c0.684,5.195,6.86,25.781,8.916,29.701c0.688,1.377,3.042,6.275,5.2,10.879
		c3.921,8.334,5.391,10,17.056,19.512c1.079,0.781,3.232,2.646,4.897,4.115c4.023,3.336,10.981,5.488,20.786,6.275
		c14.214,1.178,19.312-1.08,37.446-15.879c2.446-2.061,4.604-3.139,5.586-2.748c0.884,0.297,1.567,0.883,1.567,1.273
		s-4.409,4.316-9.8,8.824c-5.298,4.512-10.391,9.115-11.079,10.293c-2.549,3.725-9.312,6.273-21.274,7.742
		c-6.172,0.787-11.958,1.764-12.837,2.16C548.573,31754.25,547.299,31753.561,545.731,31751.602z"/>
	<path fill="#333366" d="M1026.645,31753.859c-0.488-0.299-5.488-1.08-10.977-1.867c-8.823-1.371-10.488-1.371-14.116-0.098
		c-5.879,2.16-6.47,1.965-7.256-2.543c-0.586-3.434-0.195-5.199,3.042-12.061c3.628-7.451,3.823-8.627,4.409-20.195
		c0.488-9.408,1.079-13.525,2.842-17.643c1.377-3.334,3.237-12.547,4.902-24.506c6.86-47.643,7.354-60.977,2.549-70.482
		c-3.921-7.648-3.726-10.488,1.177-14.898c5.586-4.902,10.586-5.586,17.646-2.354c6.763,3.037,10.879,3.822,14.214,2.549
		c3.921-1.566,26.27-1.566,35.093-0.098c5.488,0.977,8.525,1.074,11.763,0.195c3.33-0.781,5.981-0.684,11.177,0.293
		c9.019,1.865,18.428,1.768,24.409,0c7.939-2.451,10.977,0,6.074,4.902c-2.451,2.451-2.744,2.549-20.195,5
		c-9.507,1.273-13.135,1.371-24.209,0.391c-12.451-1.074-13.433-0.977-19.409,0.98l-6.274,2.057l-5.195-2.252
		c-4.214-1.762-6.958-2.254-14.214-2.254c-10.098,0-12.354,0.98-17.251,7.938c-2.354,3.434-2.847,5.293-3.726,15.098
		c-0.786,9.117-2.061,49.309-1.865,59.797c0.098,5.688,2.944,12.449,6.177,15c8.921,6.762,23.037,8.725,64.795,8.725
		c20.488-0.104,30.781,0.293,31.958,1.074c1.763,1.08,1.86,3.334,0.391,10.488l-0.586,2.451l-1.67-2.055
		c-0.879-1.178-2.744-2.453-4.019-2.848c-3.037-0.977-22.349,1.182-30.386,3.434c-11.079,3.041-14.507,3.041-26.074,0.293
		c-14.019-3.332-29.507-3.43-35.586-0.391c-3.135,1.664-4.019,2.742-4.604,5.488c-0.298,1.863-0.396,4.512,0,5.785
		c0.684,2.646,2.153,2.939,27.544,4.508c8.623,0.492,22.056,1.371,29.897,1.961c7.842,0.488,21.763,0.982,31.074,0.982
		c14.409,0,17.056,0.195,18.428,1.666c3.335,3.23-0.195,10.189-5.781,11.664c-2.549,0.586-45.781,1.469-67.344,1.371
		c-8.037-0.098-14.805,0.488-19.019,1.471C1029.882,31754.348,1028.412,31754.547,1026.645,31753.859z"/>
	<path fill="#333366" d="M2890.126,31753.762c-1.567-0.299-5.293-1.373-8.135-2.551c-4.604-1.762-6.47-1.961-14.8-1.469
		c-7.939,0.586-10.591,0.391-16.274-1.371c-6.079-1.77-8.428-1.965-20.586-1.373c-13.623,0.586-13.721,0.586-15.977-1.768
		c-3.237-3.428-3.823-6.859-3.042-18.33c0.591-9.311,0.396-11.074-1.763-18.037c-2.939-9.508-2.549-13.232,2.061-16.762l3.232-2.453
		l0.884-15.879c0.488-8.822,0.884-29.213,0.884-45.385c0.098-19.805,0.488-30.684,1.274-33.33
		c1.274-4.414,5.781-9.609,10.391-11.957c4.019-2.062,39.404-3.531,52.441-2.16c5.688,0.592,19.507,0.689,34.702,0.299
		c18.823-0.494,25.195-0.396,25.195,0.488c0,1.568-7.749,16.764-8.53,16.764c-0.293,0-6.567-1.178-13.921-2.551
		c-13.037-2.547-13.623-2.547-29.507-1.469c-25.483,1.859-47.246,4.02-50.972,5c-1.865,0.488-4.902,0.684-6.86,0.391
		c-2.549-0.391-3.921-0.195-4.902,1.074c-2.061,2.451-2.354,15.293-0.591,28.428c1.963,14.609,1.963,21.373,0,38.428
		c-2.153,18.922-2.153,20.391,0.098,22.842c3.433,3.822,8.921,6.666,14.805,7.744c3.232,0.586,8.428,1.566,11.665,2.158
		c3.232,0.586,15.195,1.367,26.465,1.861c11.372,0.395,22.153,1.176,24.019,1.762c1.86,0.59,9.604,1.572,17.056,2.158
		c7.549,0.586,14.707,1.568,15.981,2.061c2.939,1.074,2.939,4.605,0.195,8.232c-1.865,2.256-2.549,2.549-5.195,1.865
		c-1.67-0.395-21.958-0.785-45.19-0.883c-23.135-0.098-45.977-0.494-50.684-0.885l-8.623-0.879v3.916c0,5,1.372,6.176,7.349,6.176
		c3.14,0,5.981,0.689,8.042,1.965c6.47,3.92,38.032,7.938,68.423,8.725l23.525,0.586l0.293,2.744
		c0.391,3.434-1.47,5.684-8.232,10.098c-4.902,3.135-5.195,3.232-18.628,3.623
		C2899.247,31753.957,2891.796,31753.957,2890.126,31753.762z"/>
	<path fill="#333366" d="M795.99,31750.621c-1.86-1.664-3.232-12.646-5.684-45.777c-0.298-3.725-0.981-8.432-1.572-10.391
		c-0.879-3.041-0.586-5.492,1.572-14.701c2.451-10.098,4.604-26.373,7.544-54.799c0.884-9.215,2.944-23.234,4.414-30.582
		c0.786-3.926,3.53-3.434,6.665,0.977c2.256,3.238,2.549,4.707,2.549,11.273c0,4.117-0.884,13.629-1.958,21.178
		c-1.67,11.465-1.865,17.35-1.475,38.229c0.298,20.684,0.2,25.287-1.177,28.816c-1.074,3.043-1.763,10.488-2.349,27.643
		c-0.493,12.939-1.274,24.512-1.865,25.684C801.186,31751.602,798.344,31752.682,795.99,31750.621z"/>
	<path fill="#333366" d="M1165.355,31751.797c0-0.391,1.274-8.523,2.842-17.938c3.823-22.447,5.981-46.855,5.981-65.777
		c0-14.996,0-15.289-3.042-21.562c-3.921-8.238-4.019-12.061-0.391-17.646c2.646-4.115,2.939-5.293,3.53-17.646
		c0.781-16.172,2.349-23.525,4.995-23.525c1.572,0,1.768,0.494,1.177,3.725c-1.177,6.275-0.879,38.527,0.493,43.033
		c3.135,11.178,17.642,28.037,28.818,33.623c7.549,3.727,8.628,3.238,17.549-8.916c15.391-20.977,25.386-36.666,35.19-55.488
		c10.098-19.502,10.879-20.678,12.939-21.27c1.177-0.293,2.153-0.391,2.251-0.293c0.396,0.391-5.391,16.172-8.525,23.623
		c-10.684,24.312-14.507,30.977-30.684,52.543c-9.604,12.844-9.8,13.234-10.195,19.117c-0.195,4.805,0.098,6.566,1.963,9.41
		c1.274,1.957,13.037,14.701,26.27,28.328c13.232,13.527,24.8,25.879,25.684,27.252c0.981,1.666,1.372,3.725,1.079,5.391
		c-0.391,2.158-1.079,2.646-3.335,2.646c-3.726,0-7.842-3.727-24.111-22.055c-25.977-29.312-29.8-33.332-34.409-36.367
		c-5.391-3.727-10-8.039-18.921-17.746c-5.781-6.371-6.86-7.152-9.995-7.152c-5.195,0-8.14,1.469-9.312,4.605
		c-0.591,1.469-1.274,9.115-1.475,16.957c-0.391,11.176-1.372,18.629-4.507,35.293c-2.549,12.842-4.805,21.957-5.786,23.428
		C1169.472,31750.035,1165.355,31753.072,1165.355,31751.797z"/>
	<path fill="#333366" d="M1490.019,31748.268c-0.688-2.35-1.865-9.506-2.744-15.977c-0.884-6.471-2.158-15.293-2.944-19.604
		c-0.781-4.312-1.86-11.764-2.349-16.568c-0.688-6.861-1.274-9.115-3.042-10.977c-2.056-2.158-2.153-2.646-0.981-5.787
		c0.688-1.957,1.572-11.957,2.061-22.836c1.079-25.781,2.939-30.586,17.056-45.094c9.312-9.609,18.53-16.762,29.995-23.529
		c11.67-6.764,14.116-7.451,26.372-6.764c12.349,0.592,20.288,3.238,29.995,9.902c12.939,8.824,17.549,8.629,27.153-1.566
		l6.47-6.865l1.763,2.646c1.963,2.945,1.963,4.023,0.884,30.098c-0.488,10.684-0.293,19.111,0.391,24.014
		c0.981,6.768,0.884,8.627-0.879,15.879c-2.847,11.768-5.488,38.623-5.786,59.111c-0.293,15.098-0.391,15.977-4.507,23.037
		c-3.628,6.471-5.786,6.764-7.549,1.08c-2.158-6.959-1.768-53.717,0.488-65.582c1.768-8.922,1.768-10,0.195-22.055
		c-4.312-33.82-9.8-42.252-33.325-50.582c-10.391-3.727-18.726-4.902-26.665-3.727c-12.056,1.666-20.293,5.391-26.562,12.154
		c-3.53,3.73-4.805,4.512-7.749,4.512c-2.842,0-4.312,0.781-7.349,4.018c-4.116,4.312-8.335,10.391-10.391,15.098
		c-2.061,4.508-1.67,20.879,0.684,31.27c1.274,5.885,1.67,9.41,0.981,10.488c-1.372,2.746-1.079,21.568,0.591,29.508
		c0.879,3.922,2.446,9.02,3.525,11.371c1.963,3.922,1.963,4.312,0.493,7.447c-1.963,4.121-1.963,5.885-0.098,13.037
		c1.86,6.963,1.172,11.078-2.354,14.512l-2.744,2.549L1490.019,31748.268z"/>
	<path fill="#333366" d="M1665.878,31751.699c-0.396-0.391-4.219-0.98-8.53-1.273l-7.842-0.488l-3.433-9.805
		c-3.135-8.721-3.33-10.293-2.446-14.215c1.665-7.645,2.251-19.994,1.074-23.129c-1.665-4.121-1.274-20.488,0.981-43.037
		c0.981-10.781,2.256-27.057,2.842-36.27c1.079-20.195,3.042-28.916,7.158-32.35c1.567-1.371,3.33-2.449,3.823-2.449
		c1.177,0,2.256,4.609,2.056,8.822c0,1.865-0.391,19.213-0.781,38.428c-0.591,33.623-0.488,35.289,1.372,41.66
		c3.232,10.586,2.354,10.098,21.367,12.152c23.433,2.551,30,2.453,43.525-1.078c6.177-1.664,13.628-2.939,16.665-2.939
		c8.037,0,16.47-2.451,19.897-5.879c1.67-1.67,4.805-3.828,7.061-4.902c5.293-2.549,10.977-8.627,16.465-17.646
		c5.493-9.117,7.256-15,8.042-27.152c0.684-10.879,4.902-38.625,6.47-42.643c1.47-3.627,3.037-3.92,7.153-1.178
		c4.116,2.848,4.116,3.141,1.665,7.453c-1.47,2.449-2.153,6.566-3.037,17.445c-1.763,23.33-3.428,31.371-7.939,37.939
		c-2.061,3.135-6.177,9.213-9.019,13.525c-2.939,4.316-7.354,10.098-9.8,12.939c-6.572,7.158-6.67,8.725-0.688,20.684
		c5.586,11.275,6.958,16.861,5.786,23.232c-0.786,4.02-2.158,6.67-8.53,16.371c-2.939,4.508-5.195,5.195-21.567,6.666
		c-6.665,0.586-15.684,1.768-20.093,2.549c-4.414,0.684-14.019,1.371-21.372,1.371c-10.781,0-16.074,0.592-28.135,2.945
		C1670.678,31752.486,1667.055,31752.877,1665.878,31751.699z M1739.296,31730.723c3.335-0.98,8.628-2.938,11.67-4.311
		c3.037-1.377,8.721-2.943,12.642-3.529c3.823-0.592,7.451-1.471,7.944-1.861c1.367-1.279-1.963-9.023-5.098-12.061
		c-2.061-1.963-4.707-3.037-10.396-4.117c-11.27-2.156-20.19-1.859-31.367,1.08c-5.293,1.373-12.153,2.451-15.195,2.451
		c-3.037,0.098-14.111,0.098-24.604,0.098c-12.837,0-19.312,0.293-19.8,0.977c-0.293,0.688-0.586,3.336-0.586,6.078
		c0,2.844-0.195,6.373-0.591,8.039c-0.488,2.156-0.195,3.432,0.884,4.316c3.232,2.645,43.325,6.176,60.088,5.195
		C1729.398,31732.877,1735.868,31731.803,1739.296,31730.723z"/>
	<path fill="#333366" d="M836.474,31749.352c-2.549-1.475-6.372-5-6.372-5.785c0-0.396,3.433-2.746,7.646-5.293
		c5.786-3.629,8.726-4.805,12.451-5.098c2.744-0.195,6.958-1.08,9.312-1.861c2.451-0.889,7.939-1.963,12.256-2.354
		c4.312-0.395,9.214-1.377,10.781-2.158c4.409-2.061,7.939-10.098,8.628-19.408c0.293-4.117,1.079-12.057,1.665-17.746
		c0.688-6.957,0.786-16.371,0.195-28.914c-0.781-17.154,0.391-49.605,2.256-59.801c0.488-2.842,5.391-9.312,7.056-9.312
		c2.842,0.098,3.042,2.258,3.628,43.137c0.391,22.934,0.884,43.91,1.177,46.562c0.293,2.742-0.195,8.035-1.079,12.25
		c-2.158,10-2.158,20.781,0.098,28.232l1.768,6.08h11.367c6.768,0,13.823,0.684,17.646,1.566c3.53,0.879,12.158,1.865,19.312,2.158
		c14.507,0.781,16.274,1.471,13.623,5.586c-2.744,4.213-6.665,5.098-24.702,5.781c-12.251,0.396-18.818,1.178-24.502,2.646
		c-6.963,1.865-9.019,1.963-20.488,1.279c-17.939-1.182-31.274-1.084-39.214,0.293c-3.726,0.586-9.507,1.27-12.744,1.568
		c-3.232,0.293-6.763,0.785-7.842,1.078C839.32,31750.133,837.553,31749.938,836.474,31749.352z"/>
	<path fill="#333366" d="M2078.178,31748.957c-3.726-1.666-18.628-11.861-22.646-15.586c-4.312-4.02-8.921-13.727-8.921-18.727
		c0-2.152,0.981-5.879,2.061-8.33c2.153-4.902,3.428-6.178,16.763-16.959c4.604-3.725,4.604-3.92,4.116-8.334
		c-0.884-6.465-4.019-20.977-5.391-24.307c-1.372-3.531-3.237-28.037-3.237-44.508c-0.098-11.273,0.098-12.738,2.549-17.836
		c2.158-4.707,3.042-5.688,5.098-5.688c2.744,0,3.921,2.449,2.944,6.273c-0.786,3.135,1.172,9.02,3.623,10.684
		c1.865,1.371,1.865,1.572,0.298,9.117c-2.158,10.293-1.377,27.445,1.567,37.152c3.232,10.293,5.293,14.41,10.391,20
		c10.391,11.465,28.032,17.934,49.404,17.934c9.507,0,12.349-0.391,18.135-2.445c10.879-3.926,15.488-6.176,18.623-9.512
		l2.944-3.037l0.293-21.861c0.293-18.328,0-23.23-1.567-30.586l-1.768-8.822l2.646-11.568c2.939-12.934,7.256-24.109,9.312-24.109
		c1.079,0,1.377,2.348,1.377,11.566c0,6.27,0.488,13.037,0.977,14.898c0.493,1.863,1.567,5.785,2.354,8.725
		c1.372,4.805,1.372,6.568,0.098,16.172c-2.153,16.471-5.391,37.842-5.977,40.293c-0.298,1.172-0.103,9.799,0.488,19.209
		c1.47,23.232-0.195,40.391-4.902,49.508c-4.707,9.408-4.805,9.506-20.288,10.391
		C2136.308,31750.035,2081.215,31750.23,2078.178,31748.957z M2151.205,31734.254c9.604-2.061,17.056-4.902,18.232-6.963
		c0.591-0.977,1.177-5.977,1.47-11.172c0.396-7.549,0.195-9.609-1.074-10.586c-3.926-3.334-50.093-2.256-74.209,1.764
		c-6.177,0.98-15.195,2.352-20.093,2.938c-12.158,1.373-14.214,1.959-14.214,3.434c0,1.469,12.544,12.549,16.66,14.703
		c3.53,1.859,24.902,4.408,37.744,4.506c5.391,0,12.939,0.689,16.66,1.377
		C2141.503,31735.918,2143.363,31736.016,2151.205,31734.254z"/>
	<path fill="#333366" d="M1356.308,31744.547c-9.507-0.98-20.781-1.963-25.093-2.256c-9.902-0.689-12.153-1.963-10.781-5.787
		c0.586-1.469,2.056-3.627,3.428-4.701c2.256-1.768,4.019-1.963,18.433-1.963c16.958,0,21.27-0.781,32.642-6.074
		c4.897-2.256,4.897-2.256,5.488-7.646c1.177-11.568,2.451-70.775,1.763-82.344c-0.977-17.744-0.391-28.818,1.865-36.758
		c5.195-17.744,5.586-18.432,8.037-13.432c1.177,2.156,1.274,6.859,0.591,25.684c-1.177,33.621-1.177,35.385,0.391,39.994
		c1.372,3.92,1.372,4.609-0.391,8.525c-1.572,3.531-1.865,6.572-1.865,17.842c0,7.451-0.786,20.293-1.665,28.525l-1.567,14.902
		l2.646,2.842c4.995,5.195,10.586,6.373,31.953,6.666c19.116,0.199,41.567,1.762,43.818,3.139c1.768,0.879-2.451,8.721-5.684,10.488
		c-1.567,0.879-6.079,1.373-13.135,1.373c-5.884,0-19.609,0.688-30.391,1.469
		C1392.284,31746.797,1378.363,31746.699,1356.308,31744.547z"/>
	<path fill="#333366" d="M2430.873,31746.309c0-0.195-0.488-2.84-0.977-5.883c-0.884-4.41-0.688-7.549,0.879-16.562
		c3.14-18.037,3.335-22.842,1.665-39.605c-2.153-20.684-2.251-27.836-0.684-31.664c1.079-2.549,1.177-5.879,0.684-14.209
		c-2.446-37.057-2.446-38.232,1.572-42.646c1.372-1.465,3.428-5.293,4.604-8.525c4.609-12.354,8.53-14.213,30.879-14.213
		c12.744,0,15.879,0.293,20.781,2.055c7.158,2.549,17.646,2.646,27.842,0.297c5.781-1.273,9.116-1.469,15.684-0.883
		c14.214,1.371,17.842,1.078,23.428-1.865c5.586-2.842,6.958-2.643,6.958,0.885c0,1.273,0.493,2.65,0.981,2.943
		c0.591,0.293,0.981,2.057,0.981,3.916c0,4.316-3.823,7.061-11.47,8.434c-3.135,0.59-10,1.957-15.293,3.041
		c-8.33,1.764-11.665,1.959-24.014,1.367c-11.177-0.488-15.981-0.293-21.274,0.787c-5.391,1.176-10.684,1.371-24.507,0.98
		c-14.214-0.488-18.037-0.293-19.409,0.781c-1.86,1.475-3.53,13.434-3.628,26.371c0,4.508-0.879,9.02-2.939,15.094
		c-3.232,9.609-2.939,14.023,1.079,17.744c1.958,1.768,2.061,2.549,1.567,13.627c-0.195,6.471-0.098,12.746,0.391,13.922
		c0.884,2.451,4.902,4.312,15.591,7.445c8.525,2.355,25.19,2.848,32.148,0.787c3.726-1.08,4.512-0.982,7.354,0.787
		c2.744,1.664,5.684,2.055,24.214,2.641c11.567,0.395,22.056,1.084,23.33,1.475c4.312,1.666,5.293,8.428,1.567,12.057
		c-1.079,1.176-3.53,1.566-8.823,1.566c-4.116,0-12.642,1.078-19.312,2.549c-11.27,2.354-12.646,2.354-23.721,1.373
		c-12.354-1.08-26.367-2.648-36.27-3.922c-6.86-0.977-13.726,0.098-16.079,2.354c-1.86,1.963-1.958,11.178,0,12.354
		c1.279,0.879,21.079,2.158,32.744,2.256c4.604,0.098,9.214-0.689,14.019-2.158c5.586-1.768,8.428-2.158,12.744-1.67
		c20.288,2.061,31.562,2.842,41.66,2.744c13.818,0,14.8,0.492,13.916,7.549c-0.879,6.377-1.567,9.902-1.958,9.902
		c-0.195,0-2.939-0.684-6.079-1.568c-4.604-1.176-9.116-1.371-24.8-0.883c-27.544,0.883-29.604,1.078-52.935,4.902
		C2471.557,31745.719,2430.873,31746.9,2430.873,31746.309z"/>
	<path fill="#333366" d="M2291.186,31743.664c-1.074-0.494-9.897-1.373-19.604-1.965c-18.721-1.273-41.562-3.621-44.209-4.701
		c-1.177-0.391-1.47-1.373-1.079-3.92c0.688-4.02,1.865-5.592,6.963-9.312c3.525-2.549,4.507-2.744,12.739-2.744
		c4.902,0,13.53,0.684,19.214,1.562c19.312,2.748,18.823,2.748,22.549,0.201c4.116-2.746,8.33-10.195,9.8-17.057
		c0.884-4.219,0.786-5.787-1.079-11.275c-1.763-5.391-2.153-9.311-2.549-28.523c-0.488-19.508-0.293-22.746,1.177-26.666
		c1.865-4.805,1.67-11.568-0.488-24.799c-1.079-6.471-0.981-7.941,0.981-15.977c1.177-4.902,3.135-10,4.214-11.373l1.958-2.549
		l1.177,2.256c0.688,1.275,1.572,5.879,1.963,10.195c0.391,4.408,1.665,10.391,2.939,13.721c3.726,9.41,4.214,13.428,4.512,35.781
		c0.293,20.781,0.293,21.172-2.061,25.191l-2.354,4.018l2.158,6.768c1.86,5.684,2.158,8.135,1.665,15.094
		c-0.586,9.408,0.195,17.742,1.865,20c0.684,1.078,5.488,2.449,12.842,4.018c9.702,1.959,13.428,2.256,21.074,1.764
		c7.744-0.488,10.586-0.195,16.665,1.469c7.842,2.158,12.744,5.98,12.744,9.902c0,2.939-2.646,8.727-4.219,9.41
		c-0.781,0.297-3.721-0.488-6.665-1.764c-4.507-1.865-7.251-2.158-18.037-2.256c-6.958-0.098-17.349-0.488-23.037-0.977
		c-9.995-0.688-10.488-0.59-18.428,2.348C2298.344,31744.547,2294.716,31745.035,2291.186,31743.664z"/>
	<path fill="#333366" d="M2600.36,31737.975c-2.842-5.781-3.33-7.646-3.33-14.014c-0.098-4.02-0.493-15.293-0.884-25
		c-0.684-14.508-0.488-19.605,0.884-28.428c1.177-8.135,1.567-16.465,1.372-33.916c-0.195-27.939-0.884-33.031-5.293-43.324
		c-1.865-4.316-3.433-8.727-3.433-9.805c0-0.982,1.177-3.043,2.744-4.508c3.237-3.336,8.726-3.824,17.842-1.67
		c3.53,0.885,9.707,1.572,13.921,1.572c4.116,0,10.977,0.684,15.195,1.465c12.251,2.354,36.167,3.828,40.679,2.549
		c2.354-0.781,4.312-0.781,5.391-0.293c1.177,0.592,4.902,0.494,10.586-0.391c11.963-1.865,14.116-1.963,15.781-0.195
		c1.279,1.275,1.079,2.061-1.367,6.764c-3.433,6.566-5.493,7.742-12.256,6.664c-5.781-0.977-13.232,0.098-23.037,3.336
		c-5.781,1.859-8.623,2.152-24.209,2.055c-12.158,0-20.391-0.586-26.47-1.664c-4.805-0.885-9.214-1.666-9.604-1.666
		c-0.396,0-1.67,1.865-2.744,4.213c-1.079,2.258-2.451,4.805-3.042,5.787c-0.884,1.172-0.786,6.959,0.195,24.014
		c2.061,35.391,1.079,99.795-1.665,110.869C2606.635,31746.504,2603.891,31744.84,2600.36,31737.975z"/>
	<path fill="#333366" d="M2989.623,31742.975c-1.86-0.684-5.977-1.275-9.019-1.275l-5.586-0.098l-1.177-4.115
		c-0.586-2.354-1.177-11.074-1.274-19.408c-0.098-15.094-0.098-15.289,3.237-23.527c2.744-7.152,3.135-8.92,2.451-12.742
		c-0.396-2.453-0.591-8.824-0.396-14.215c0.591-17.348,0.493-27.939-0.391-51.953c-0.786-22.939-0.786-23.623,1.274-28.232
		c1.177-2.549,2.744-4.609,3.53-4.609c0.781,0,1.47,0.299,1.47,0.787c0,0.395,1.079,1.957,2.451,3.529
		c2.451,2.842,2.549,4.311,0.293,10.293c-0.981,2.646-0.884,57.539,0.195,71.068c0.688,9.703,0.195,9.02,10,14.801
		c7.744,4.512,16.172,7.256,23.037,7.451c3.135,0.098,13.428-0.098,22.837-0.488c19.409-0.885,27.056-2.451,42.739-8.627
		c12.158-4.707,20.884-11.764,23.232-18.727c3.14-9.014,6.567-27.051,6.567-34.795c0-4.902,0.591-9.219,1.572-11.568
		c1.567-3.627,1.47-5.199-0.493-12.645c-0.781-2.945-0.586-6.275,0.591-13.531c1.372-8.525,1.86-9.801,4.312-11.562l2.744-1.963
		l2.549,8.135c3.726,11.859,4.116,16.176,1.567,21.566c-2.549,5.684-2.549,6.471,0,9.215l2.061,2.256l-3.232,5.586
		c-2.554,4.512-3.14,6.568-2.944,10.293c0.391,9.018-7.842,29.799-17.153,43.33c-2.939,4.215-5.293,8.232-5.293,8.818
		c0,0.689,0.884,2.256,1.958,3.627c1.079,1.373,1.963,2.848,1.963,3.238s1.763,3.428,4.019,6.664c2.158,3.238,4.609,7.35,5.293,9.02
		c1.665,4.117,0.981,9.902-1.963,14.898c-5.781,9.902-13.135,13.139-39.697,17.25c-17.744,2.75-21.274,3.043-49.502,3.238
		C3000.409,31744.152,2992.274,31743.957,2989.623,31742.975z M3076.474,31728.863c6.372,0,13.335-1.963,16.665-4.805
		c2.749-2.256,5.591-7.744,4.902-9.512c-0.293-0.781-3.628-3.428-7.446-5.879c-10.591-6.865-16.079-7.646-41.665-6.176
		c-11.274,0.688-21.074,1.566-21.763,2.059c-3.037,2.35-7.251,2.545-15.093,0.684c-9.805-2.348-20.098-2.645-22.056-0.684
		c-0.786,0.781-1.67,3.039-2.061,4.996c-2.158,13.629,11.079,19.316,49.209,20.879c6.963,0.199,12.744,0.59,12.939,0.688
		c0.098,0.201,4.805-0.293,10.293-0.98C3065.985,31729.449,3073.144,31728.961,3076.474,31728.863z"/>
	<path fill="#333366" d="M2748.48,31741.504c-0.786-1.762-0.493-6.176,1.372-18.523c2.354-15.982,2.549-24.605,1.079-37.447
		c-0.591-5.293-0.396-7.549,0.884-11.074c0.977-2.451,2.349-4.414,3.135-4.414c1.665,0,1.665,0.098-0.195-7.158
		c-1.274-4.898-1.274-6.66-0.293-10.391c0.684-2.744,1.274-14.703,1.567-30.191c0.391-27.445,0.781-29.701,5.684-37.543
		c1.665-2.646,2.939-3.824,3.53-3.232c0.586,0.586,1.665,5.098,2.451,10.189c1.372,8.336,1.372,10.494,0,21.959
		c-3.726,30.684-4.414,42.939-2.549,49.604c0.684,2.648,0.586,6.471-0.396,13.824c-0.781,5.586-1.763,14.41-2.056,19.502
		c-0.884,13.432-2.354,21.568-5.098,29.115c-1.372,3.629-3.232,8.727-4.214,11.275
		C2751.127,31743.371,2749.853,31744.547,2748.48,31741.504z"/>
	<path fill="#333366" d="M497.89,31655.832c0.493-2.453,1.279-5.293,1.865-6.275c0.488-1.08,0.981-4.604,0.981-7.842
		c0-5.293,0.586-7.158,5.488-16.566c6.665-12.941,11.274-18.527,20.195-24.312c15.977-10.488,24.995-12.641,47.837-11.66
		c19.111,0.879,26.66,3.33,35.386,11.465c9.312,8.629,11.177,13.629,7.354,19.41c-1.372,2.156-2.944,3.92-3.433,3.92
		s-3.433-3.822-6.567-8.428c-5.981-8.727-8.823-11.469-15.586-14.902c-6.079-2.939-9.609-3.428-26.372-3.33h-15.586l-11.86,5.879
		c-6.567,3.236-12.842,6.178-14.019,6.572c-2.744,0.781-9.214,8.037-12.544,14.014c-3.042,5.488-5.981,16.764-6.865,26.471
		c-0.586,5.684-1.074,7.348-2.744,8.523C497.792,31661.32,497.011,31660.637,497.89,31655.832z"/>
	<path fill="#333366" d="M796.283,31513.004c-2.842-1.562-3.135-2.348-5.293-11.562c-1.958-8.238-3.037-23.037-4.507-60.781
		c-0.293-8.33-1.177-17.641-1.865-20.582c-0.879-3.627-1.567-15.488-1.958-35.781c-0.396-16.664-0.884-33.914-1.177-38.227
		c-0.293-4.316-0.098-14.02,0.586-21.566c2.847-35.781,2.944-39.41,2.061-51.959c-0.591-6.953-1.274-19.307-1.567-27.441
		c-0.298-8.047-1.079-22.158-1.567-31.367c-0.688-9.902-0.786-26.865-0.396-41.66c0.493-18.73,0.195-31.279-0.981-49.998
		c-0.879-13.723-1.763-34.895-1.958-47.051c-0.195-12.16-0.786-25.098-1.372-28.918c-0.591-3.73-0.981-15.781-1.079-26.668
		c0-10.879-0.391-19.992-0.884-20.293c-0.981-0.684,0.591-6.465,3.042-10.879c0.879-1.66,3.726-4.699,6.372-6.953
		c4.312-3.633,8.428-5.195,48.325-18.332c24.019-7.938,53.13-17.84,64.697-21.863c60.483-21.27,64.502-22.539,126.455-41.074
		c7.842-2.355,16.172-5,18.623-5.879c18.232-6.66,41.27-14.016,60.874-19.512c12.842-3.527,28.037-8.234,33.818-10.293
		c38.428-13.918,39.604-14.309,66.27-20.684c9.019-2.148,21.763-5.781,28.428-7.93c16.958-5.695,30.679-10,52.539-16.574
		c10.391-3.23,19.214-5.977,19.707-6.375c1.47-0.781,45.776-13.027,64.302-17.637c9.214-2.258,20-5.098,24.019-6.281
		c6.86-2.059,35.386-12.051,39.697-13.816c15.591-6.77,93.125-31.172,122.827-38.82c23.33-5.977,25.981-6.668,41.567-11.766
		c7.349-2.441,15.391-4.406,17.739-4.504c2.646,0,8.53,1.465,15.981,4.113c27.349,9.707,37.935,12.84,45.386,13.328
		c4.116,0.207,10.098,0.598,13.33,0.891c3.237,0.195,7.842,1.074,10.293,1.953c12.939,4.805,25.586,8.438,39.209,11.277
		c8.335,1.77,18.726,4.406,23.037,5.879c4.316,1.574,11.177,3.926,15.195,5.293c7.549,2.551,25.684,7.355,44.6,11.965
		c20.195,4.805,38.135,10.293,75.483,23.035c56.66,19.504,77.93,26.367,95.576,30.781c29.404,7.453,53.521,14.602,79.893,23.723
		c24.702,8.523,45.972,14.305,95.571,26.27c8.335,2.059,17.256,4.512,19.805,5.488s10.488,3.328,17.642,5.195
		c7.158,1.863,18.823,5.488,25.781,7.938c7.061,2.551,14.116,5,15.684,5.391c1.67,0.391,7.549,2.16,13.237,3.73
		c5.684,1.562,13.135,3.625,16.665,4.406c3.525,0.887,21.562,5.293,40.19,9.805c18.623,4.512,38.423,9.121,44.111,10.195
		c6.958,1.375,15.586,4.121,26.562,8.535c10.688,4.207,18.823,6.855,24.019,7.637c5.977,0.984,9.902,2.352,17.642,6.375
		c5.396,2.844,10.688,6.074,11.763,7.258c1.768,1.953,1.768,2.051-1.074,7.344c-1.67,3.047-3.037,6.375-3.14,7.547
		c-0.195,1.184-0.586,18.234-0.879,37.941c-0.688,35.879,0.391,58.027,4.507,98.027c1.177,10.977,1.567,17.156,2.451,32.342
		c0.293,6.182,0.786,12.646,0.981,14.219c2.153,18.037,3.428,58.125,3.428,107.637c0,25.971,0.493,53.418,0.981,60.967
		c2.256,34.02,2.744,60.289,1.963,104.398c-0.293,14.312-0.098,19.312,1.177,23.727c1.372,4.801,1.47,8.721,0.586,29.893
		c-0.488,13.334-1.372,25.293-1.86,26.568c-1.177,2.938-3.921,2.449-5.391-0.787c-2.158-4.408-3.335-33.916-4.316-103.418
		c-0.586-37.74-1.47-73.223-1.86-78.906c-0.493-5.689-0.981-34.805-1.079-64.697c0-29.902-0.293-59.014-0.488-64.697
		c-0.688-15-2.354-41.074-3.926-61.268c-0.684-9.707-1.567-22.258-1.958-27.941c-0.293-5.684-0.786-13.328-0.981-17.148
		c-2.256-35.098-3.037-112.344-1.177-120.77c1.372-6.574,0-8.633-6.372-10.098c-2.842-0.684-9.8-3.527-15.488-6.27
		c-5.684-2.852-13.135-5.891-16.665-6.77c-3.525-0.879-16.074-4.023-27.935-6.961c-11.86-2.941-25.093-6.465-29.409-7.746
		c-4.312-1.367-11.372-3.328-15.684-4.402c-41.465-10.891-75.088-20.293-94.595-26.379c-25.586-7.938-50.977-14.988-70.581-19.5
		c-18.623-4.219-31.758-8.137-70.576-20.977c-41.465-13.73-64.404-20.586-87.734-26.465c-29.214-7.258-44.111-11.672-79.893-23.535
		c-12.646-4.211-33.623-11.074-46.562-15.195c-44.307-14.211-57.935-18.223-98.027-28.82c-8.037-2.156-20.879-5.781-28.428-7.938
		c-10.093-2.941-19.409-4.805-34.8-6.953c-39.307-5.391-43.423-6.477-79.888-21.867c-7.451-3.133-10.884-3.133-20.586-0.098
		c-4.316,1.379-16.47,5-26.958,7.941c-19.604,5.586-25.098,7.352-36.367,11.57c-3.53,1.27-10.488,3.137-15.488,3.918
		c-5.098,0.879-17.158,4.316-26.958,7.645c-16.079,5.391-23.135,7.941-41.367,15c-9.019,3.625-21.958,7.746-38.135,12.258
		c-17.739,4.902-22.642,6.465-44.209,13.719c-9.116,3.137-21.562,6.574-27.544,7.746s-16.763,3.816-23.916,5.879
		c-11.768,3.438-22.256,6.375-52.349,14.512c-4.805,1.27-12.939,3.23-18.037,4.316c-5.098,1.172-16.074,4.5-24.507,7.441
		c-22.251,7.938-32.446,10.984-45.679,13.535c-11.079,2.148-17.549,4.012-37.739,11.172c-4.609,1.562-23.135,7.547-41.172,13.23
		c-38.037,11.965-85.479,27.453-89.697,29.406c-3.33,1.57-40.386,13.73-56.855,18.73c-52.734,15.977-118.511,38.32-137.236,46.562
		c-1.86,0.781-6.958,2.742-20.879,7.938c-3.433,1.27-7.842,3.723-9.702,5.293c-3.335,2.844-3.433,3.234-4.805,14.699
		c-1.567,12.254-1.177,26.375,0.884,32.156c0.684,2.062,1.172,21.562,1.372,59.016c0.684,124.686,0.684,124.686,2.549,139.686
		c1.665,12.646,1.86,23.33,2.056,97.533c0.195,48.229,0.688,90.773,1.372,100.969c0.591,9.701,1.572,26.957,2.256,38.227
		c0.586,11.371,1.665,23.922,2.451,27.939c1.47,8.037,1.763,14.707,0.684,14.707
		C798.539,31514.186,797.362,31513.594,796.283,31513.004z"/>
	<path fill="#333366" d="M1382.582,31506.539c-0.195-0.395-0.688-54.111-0.981-119.301c-0.391-65.285-0.786-125.67-1.079-134.293
		l-0.488-15.684l6.958-7.158c3.823-4.023,7.061-7.061,7.256-6.865c0.098,0.195,0.586,63.818,0.977,141.553l0.688,141.256
		l-2.256,0.59C1390.424,31507.516,1383.168,31507.516,1382.582,31506.539z"/>
	<path fill="#333366" d="M1287.396,31237.262c-41.66-6.475-72.051-36.367-79.497-78.33c-3.335-19.111,0.293-40.869,9.702-58.416
		c12.744-23.82,35.879-41.172,62.441-47.148c8.726-1.965,12.842-2.062,60.874-2.453l51.562-0.496l0.591,19.902
		c0.981,29.305,0.781,75.574-0.293,85.086c-1.177,10.293-3.237,18.232-6.67,25.977c-10.977,24.902-29.404,42.148-55.283,51.758
		C1319.745,31237.262,1299.75,31239.117,1287.396,31237.262z"/>
	<path fill="#333366" d="M1616.273,31236.764c-8.525-0.879-18.037-3.135-24.995-5.977c-7.842-3.232-15.195-7.051-15.195-7.939
		c0-0.391-0.586-0.781-1.274-0.781c-2.549,0-16.465-12.549-22.739-20.488c-19.312-24.609-25.293-56.27-16.177-85.867
		c2.061-6.672,8.433-21.074,9.707-22.062c0.391-0.293,1.763-2.059,3.037-3.914c3.53-5.098,14.507-16.379,20.586-21.074
		c27.544-21.281,70.088-23.926,101.064-6.281c27.842,15.977,44.507,41.66,47.935,73.723c0.493,4.998,0.981,29.598,0.981,54.695
		v45.771l-7.549,0.4C1697.929,31237.75,1623.822,31237.555,1616.273,31236.764z"/>
	<path fill="#333366" d="M1934.369,31235.396c-38.13-6.367-70.381-38.232-77.046-76.074c-1.372-8.135-1.177-27.049,0.488-34.893
		c7.451-35.184,32.939-61.855,68.716-71.758c8.823-2.449,8.921-2.449,62.544-2.84l53.618-0.391v51.27
		c0,31.172-0.391,53.719-1.079,57.635c-2.646,16.465-11.372,34.512-22.739,47.148c-6.372,7.061-15.684,14.707-21.372,17.549
		c-2.354,1.279-5.391,2.939-6.665,3.828C1979.755,31234.127,1951.918,31238.336,1934.369,31235.396z"/>
	<path fill="#333366" d="M1243.48,30997c-0.391-0.391-0.684-7.258-0.684-15.391V30967l-3.921,3.133
		c-3.14,2.453-5.195,3.242-9.707,3.633c-7.549,0.684-10.098,0-14.702-4.121c-5.786-5.195-7.939-11.367-8.037-22.344
		c-0.103-7.449,0.293-10.098,1.958-14.023c3.823-8.621,8.726-12.156,16.47-12.059c5.586,0.098,9.702,1.473,14.019,4.805
		c1.763,1.375,3.428,2.352,3.823,2.254c0.293-0.098,0.781-1.668,1.074-3.426c0.396-2.453,0.981-3.234,2.451-3.234
		c1.67,0,2.061,0.781,2.451,6.367c0.293,3.527,0.493,20.488,0.493,37.746v31.367l-2.451,0.293
		C1245.341,30997.586,1243.871,30997.391,1243.48,30997z M1231.718,30967.977c1.47-0.586,4.609-2.941,6.958-5.098l4.121-3.918
		v-10.879v-10.977l-4.121-4.219c-2.251-2.254-5.684-4.805-7.446-5.586c-6.963-2.84-13.823,0.586-16.86,8.527
		c-2.158,5.391-1.768,19.121,0.781,24.707C1218.485,30967.879,1224.955,30970.828,1231.718,30967.977z"/>
	<path fill="#333366" d="M1460.121,30996.902c-0.396-0.293-0.688-17.551-0.688-38.234v-37.547h2.354
		c1.372,0,2.646,0.398,2.939,0.789c0.391,0.684,0.981,67.344,0.688,74.504
		C1465.316,30997.586,1461.195,30998.074,1460.121,30996.902z"/>
	<path fill="#333366" d="M1801.449,30972.391c0-13.332-0.103-30.488-0.2-38.027l-0.195-13.73h2.944h2.939l0.293,18.133l0.195,18.137
		l3.726,3.73c6.274,6.562,11.86,8.133,17.744,5.098c4.409-2.258,5.293-6.086,5.879-26.465c0.493-16.867,0.786-18.633,2.354-18.926
		c4.019-0.781,4.609,1.18,4.609,16.863c0,18.332-1.079,25.188-4.512,29.699c-6.074,7.938-19.214,8.133-26.27,0.391
		c-1.079-1.172-2.256-2.051-2.744-2.051c-0.493,0-0.786,6.953-0.688,15.488l0.098,15.379l-3.037,0.305l-3.037,0.293
		L1801.449,30972.391z"/>
	<path fill="#333366" d="M1976.229,30995.426c-0.884-0.879-1.177-10.098-1.177-38.23v-37.051h2.842c1.665,0,3.037,0.586,3.433,1.57
		c0.293,0.879,0.586,7.258,0.586,14.309v12.742l3.53-4.305c1.958-2.258,4.214-5.098,5.098-6.184
		c0.981-1.074,3.428-4.109,5.488-6.863c7.549-9.504,9.604-11.27,13.037-11.27c1.963,0,3.237,0.488,3.237,1.27
		c-0.098,0.594-4.902,6.961-10.786,13.926c-5.879,7.059-10.781,13.23-10.781,13.719c0,1.184,1.47,2.746,12.646,13.625
		c4.312,4.219,7.646,8.145,7.349,8.535c-0.293,0.488-1.86,0.879-3.525,0.879c-2.549,0-4.805-1.758-14.116-10.977l-11.177-10.977
		l-0.195,23.027c-0.293,22.156-0.391,22.938-2.256,23.242C1978.383,30996.512,1976.913,30996.109,1976.229,30995.426z"/>
	<path fill="#333366" d="M1603.632,30986.902c-0.591-1.074-1.079-4.609-1.079-7.844c0-5.887-0.098-5.984-2.646-6.082
		c-5.786-0.195-22.354,0.301-22.744,0.691c-0.195,0.195-0.293,2.258-0.293,4.504c0.098,5.398-0.493,7.352-2.256,8.047
		c-3.335,1.27-4.409-0.391-4.409-6.867v-6.277h-3.335c-3.726,0-6.665-2.246-5.879-4.406c0.293-0.789,2.251-1.473,4.604-1.668
		l4.116-0.293l0.493-19.805c0.488-18.027,0.684-19.992,2.549-22.441c2.451-3.438,6.274-4.512,12.549-3.926
		c4.897,0.586,6.465,1.668,6.465,4.707c0,1.57-0.684,1.668-5.586,1.172c-5-0.586-5.879-0.391-7.646,1.57
		c-1.763,1.965-1.958,3.527-1.958,20.488v18.234l13.037,0.293l12.939,0.293v-18.039c0-16.66,0.195-18.23,2.251-22.246
		c2.554-5.098,5.396-6.863,11.274-6.863c5.493,0,8.037,1.375,8.037,4.512c0,2.352-0.195,2.449-4.312,1.855
		c-9.507-1.465-10.391,0.594-10.391,23.633v17.051h7.256c5.977,0,7.349,0.293,7.842,1.668c1.079,2.648-2.158,4.309-7.744,4.211
		c-2.646-0.098-5.391-0.098-6.079-0.098c-0.786,0.098-1.274,2.656-1.47,7.754c-0.293,6.855-0.488,7.539-2.451,7.832
		C1605.395,30988.766,1604.218,30988.172,1603.632,30986.902z"/>
	<path fill="#333366" d="M1886.337,30984.645c-0.195-0.684-0.586-3.719-0.781-6.668l-0.298-5.391l-4.019-0.293
		c-6.958-0.488-6.47-6.074,0.591-6.074h3.525v-17.941c0-9.805,0.298-19.012,0.688-20.391c1.177-4.012,4.019-6.57,8.53-7.645
		c6.27-1.367,10.879-0.391,11.958,2.645c1.274,3.332,0,4.316-4.019,3.039c-5.098-1.562-8.433,0.098-9.707,4.707
		c-0.586,2.059-1.079,10.879-1.079,19.609v15.879l7.646,0.293c7.354,0.293,7.549,0.391,7.549,2.742c0,2.355-0.195,2.453-7.549,2.746
		l-7.549,0.293l-0.293,6.57c-0.293,5.977-0.488,6.562-2.549,6.855C1887.807,30985.828,1886.63,30985.328,1886.337,30984.645z"/>
	<path fill="#333366" d="M2027.201,30984.645c-0.684-0.684-1.177-3.816-1.177-7.254c0-5.586-0.195-6.074-1.958-5.586
		c-1.079,0.293-3.042,0.195-4.414-0.098c-1.958-0.488-2.549-1.172-2.251-2.844c0.195-1.766,0.977-2.254,4.507-2.449l4.116-0.293
		l0.098-17.16c0.098-9.402,0.298-17.449,0.396-18.035c0.098-0.488,0.293-1.855,0.391-2.941c0-1.074,1.274-3.23,2.842-4.902
		c2.158-2.547,3.628-3.133,8.135-3.621c6.567-0.684,9.707,0.684,9.707,4.207c0,2.355-0.195,2.453-4.312,1.867
		c-9.609-1.465-10.391,0.195-10.391,23.035v17.648h7.349c7.158,0,7.354,0.098,7.354,2.449c0,2.648-0.391,2.746-9.312,2.844
		l-4.902,0.098l-0.293,6.367c-0.293,5.887-1.177,7.754-3.628,7.852C2028.866,30985.828,2027.89,30985.328,2027.201,30984.645z"/>
	<path fill="#333366" d="M1274.164,30972.586c-1.865-0.781-4.214-1.758-5.195-2.051c-1.763-0.695-3.335-4.902-2.256-5.988
		c0.293-0.391,2.842,0.391,5.488,1.672c5,2.352,11.86,3.035,16.763,1.66c3.53-0.879,5.884-4.797,6.47-10.879l0.591-5.195
		l-9.707-0.488c-11.074-0.586-16.074-2.453-19.995-7.746c-1.768-2.547-2.354-4.609-2.354-8.328c0-9.023,5.586-14.121,15.293-14.121
		c5.488,0,14.507,3.145,14.507,5.098c0,2.059,1.865,0.391,2.158-1.855c0.195-2.16,0.781-2.746,2.744-2.746h2.451l0.293,20.383
		c0.293,22.742-0.293,25.195-6.079,29.414C1291.513,30974.156,1279.555,30974.84,1274.164,30972.586z M1295.531,30940.438
		c0.298-5.293,0.103-5.781-2.939-8.625c-5.098-4.707-8.428-6.082-13.33-5.496c-5.391,0.594-8.037,3.145-8.726,8.242
		c-0.391,3.133,0,4.305,2.061,6.855c3.135,3.73,7.744,5.098,16.27,4.902l6.372-0.195L1295.531,30940.438z"/>
	<path fill="#333366" d="M1334.94,30972.195c-1.865-1.074-4.316-2.746-5.293-3.918c-2.646-2.938-3.53-2.547-3.53,1.367
		c0,3.137-0.195,3.43-2.939,3.43h-2.944l0.2-25.676c0.293-24.219,0.391-25.781,2.153-26.082c0.981-0.195,2.158,0,2.646,0.496
		c0.396,0.391,0.884,8.82,0.884,18.527l0.195,17.645l2.744,2.941c6.665,6.953,11.665,9.109,17.256,7.254
		c2.646-0.887,3.921-2.156,5.391-5.301c1.567-3.43,1.86-6.562,1.86-22.441c0-16.074,0.195-18.43,1.567-19.023
		c0.884-0.293,2.354-0.195,3.237,0.398c1.372,0.879,1.567,3.625,1.567,20.488c0,18.723-0.098,19.699-2.354,23.527
		C1353.271,30973.473,1342.88,30976.316,1334.94,30972.195z"/>
	<path fill="#333366" d="M1414.931,30972.684c-9.316-3.527-14.512-12.344-14.609-25.09c-0.293-18.719,7.256-26.961,24.312-26.766
		c11.567,0.098,18.53,3.242,16.86,7.449c-0.488,1.379-1.177,1.379-5.977-0.391c-10.884-3.816-22.256-1.57-25.684,5.195
		c-0.884,1.672-1.865,5.391-2.256,8.234l-0.786,5.293l18.237,0.195l18.232,0.293l-0.098,6.375
		c-0.103,12.258-6.67,19.504-18.237,20.195C1421.005,30973.961,1417.382,30973.57,1414.931,30972.684z M1430.81,30966.609
		c3.335-2.16,6.079-7.258,6.079-11.367v-3.73h-14.707h-14.702v2.449c0,1.379,0.884,4.219,1.86,6.281
		C1413.358,30968.082,1423.651,30971.121,1430.81,30966.609z"/>
	<path fill="#333366" d="M1523.148,30973.172c-4.019-1.27-8.232-3.723-10.488-6.172c-8.428-8.918-8.623-31.172-0.488-40.391
		c3.037-3.332,11.074-6.465,16.958-6.465c6.665,0,14.702,3.73,18.721,8.828c8.433,10.684,6.572,33.027-3.33,40.477
		C1539.13,30973.57,1529.716,30975.133,1523.148,30973.172z M1538.837,30965.926c4.604-3.047,6.763-7.16,7.446-14.121
		c1.665-16.074-4.8-25.781-17.349-25.781c-11.665,0-18.428,11.375-15.684,26.668c1.177,6.855,3.037,9.992,7.939,13.332
		C1525.697,30969.059,1534.325,30969.059,1538.837,30965.926z"/>
	<path fill="#333366" d="M1378.954,30955.926c-0.195-37.746-0.391-35,2.842-34.609l2.646,0.301l0.293,25.781l0.195,25.676h-2.939
		h-2.939L1378.954,30955.926z"/>
	<path fill="#333366" d="M1668.524,30971.316c-5.293-2.16-7.451-4.219-6.567-6.379c0.684-1.855,3.33-2.254,4.897-0.781
		c0.493,0.586,3.433,1.672,6.475,2.453c10.684,2.742,16.958-1.27,17.642-11.172l0.293-4.414l-8.33-0.586
		c-11.763-0.793-14.409-1.574-18.721-5.488c-6.572-5.988-6.177-16.281,0.879-21.672c3.042-2.352,4.312-2.645,10.586-2.645
		c6.372,0,7.549,0.293,11.567,3.145l4.414,3.133l0.293-3.133c0.195-2.559,0.684-3.145,2.744-3.145h2.451l0.293,18.133
		c0.391,25.879,0,27.551-7.646,32.258C1685.385,30973.668,1674.696,30973.766,1668.524,30971.316z M1690.58,30939.059
		c-0.293-6.465-0.391-6.66-4.512-9.793c-3.623-2.754-5.098-3.242-9.507-3.242c-4.609,0-5.488,0.293-7.744,3.047
		c-2.744,3.23-3.135,5.195-1.567,9.109c1.665,4.609,7.842,6.867,19.409,7.258l4.214,0.098L1690.58,30939.059z"/>
	<path fill="#333366" d="M1716.557,30972.391c-1.665-0.586-1.86-50.773-0.195-51.758c0.488-0.391,2.056-0.391,3.428-0.098
		l2.354,0.586v17.449v17.355l4.414,5.098c4.8,5.391,8.232,6.855,12.544,5.293c2.158-0.879,2.744-0.684,3.53,0.781
		c1.665,3.035-1.274,5.977-5.879,5.977c-4.609,0-7.061-1.074-11.372-5.195l-3.237-3.039v3.039
		C1722.143,30971.707,1719.789,30973.57,1716.557,30972.391z"/>
	<path fill="#333366" d="M1763.803,30971.414c-5.879-2.453-10.586-8.332-12.739-15.781c-0.688-2.453-0.786-13.633-0.098-18.527
		c0.684-4.902,4.116-10.691,8.037-13.73c3.037-2.254,4.8-2.742,10.879-3.035c6.274-0.391,7.842-0.098,12.549,2.254
		c5,2.355,5.391,2.844,5.391,5.977c0,1.867-0.293,3.34-0.786,3.34c-0.391,0-2.446-1.18-4.604-2.645
		c-4.512-3.047-11.372-4.023-16.567-2.258c-6.567,2.16-10.195,14.016-7.939,25.879c1.372,7.551,2.744,9.992,6.665,12.355
		c5.293,3.328,15.586,2.051,19.214-2.258c1.665-2.059,3.628-2.156,4.409-0.105
		C1790.761,30969.645,1773.705,30975.633,1763.803,30971.414z"/>
	<path fill="#333366" d="M1930.448,30971.219c-9.604-4.512-14.995-15.586-13.916-28.723c1.372-16.57,11.562-24.609,28.721-22.84
		c9.604,1.074,14.312,3.914,12.842,7.742c-0.493,1.172-1.67,1.074-7.256-0.586c-15.195-4.609-25.684,0.488-26.562,12.941
		l-0.396,5.391l16.372-0.195c9.805-0.195,17.056,0.098,18.232,0.684c2.354,1.27,2.451,6.367,0.391,13.426
		c-2.549,8.43-8.525,12.941-18.428,13.625C1935.937,30972.977,1933.393,30972.586,1930.448,30971.219z M1947.997,30964.449
		c2.256-2.059,5.391-8.719,5.488-11.66c0-2.254-0.098-2.254-14.702-2.254h-14.707v2.742c0,4.113,5.396,11.758,9.116,12.941
		C1937.411,30967.488,1945.644,30966.512,1947.997,30964.449z"/>
	<path fill="#333366" d="M1859.379,30961.121c0-6.074-0.293-16.66-0.586-23.527c-0.786-15.586-0.391-17.449,3.53-17.449h2.939
		l0.098,23.328c0.098,12.746,0.195,24.309,0.293,25.684c0.098,2.062-0.391,2.453-3.037,2.746l-3.237,0.293V30961.121z"/>
</g>
</svg>
