<?xml version="1.0" encoding="utf-8"?>
<!-- Generator: Adobe Illustrator 16.0.4, SVG Export Plug-In . SVG Version: 6.00 Build 0)  -->
<!DOCTYPE svg PUBLIC "-//W3C//DTD SVG 1.1//EN" "http://www.w3.org/Graphics/SVG/1.1/DTD/svg11.dtd">
<svg version="1.1" id="Ebene_1" xmlns="http://www.w3.org/2000/svg" xmlns:xlink="http://www.w3.org/1999/xlink" x="0px" y="0px"
	 width="3307px" height="3307px" viewBox="0 0 3307 3307" enable-background="new 0 0 3307 3307" xml:space="preserve">
<g transform="translate(0.000000,3307.000000) scale(0.100000,-0.100000)">
	<path fill="#FFFFFF" d="M17039.998,24025.992c-25-12.996-65-27.996-90-33.992c-220.996-55-309.004-81.008-465-138
		c-205.996-76.004-325.996-116.004-405-138.008c-30-7.996-120-32.996-200-55.996c-80-22.996-210-59.004-290-80
		c-175-47-340.996-94.004-685-192.996c-142.998-41.006-410.996-116.006-595-166.006c-184.004-48.994-397.998-107.998-475-128.994
		c-302.998-85-482.998-136.006-545-154.004c-35.996-10-132.002-33.994-215-52.998c-82.002-20-162.998-40-180-45
		c-15.996-5-97.002-25.996-180-45c-82.002-20-199.004-50.996-260-70c-60-17.998-152.998-45-205-60
		c-52.002-14.004-175.996-47.998-275-75.996c-160-44.004-507.998-154.004-575-181.006c-32.002-12.998-117.998-35.996-365-97.998
		c-110-27.998-252.002-64.004-315-80.996c-62.998-16.006-234.004-54.004-380-84.004c-309.004-64.004-262.998-50.996-600-177.002
		c-502.002-188.994-594.004-217.002-900-277.998c-185.996-37.002-282.998-65-300.996-85.996c-7.002-8.008-11.006-32.002-10-52.002
		c0.996-20,5.996-182.998,10.996-362.002c10-345.996,20.996-524.004,32.002-535c17.002-17.998,30.996,52.998,43.994,232.998
		c8.008,107.998,16.006,222.002,18.008,252.002c2.998,30,10,132.002,15.996,225c12.998,187.002,19.004,215,50,215
		c12.002,0,49.004,7.002,82.998,15c34.004,7.998,145,32.998,247.002,55c267.998,59.004,297.998,69.004,665,217.998
		c97.998,40,214.004,77.002,335,107.002c102.002,25.996,199.004,50.996,215,55.996c39.004,12.002,337.002,86.006,440,109.004
		c75,17.002,265,65.996,490,125c192.998,50.996,337.998,95.996,595,184.004c145,48.994,325.996,101.992,550,160
		c19.004,5,75.996,20,125,33.994c50,14.004,149.004,39.004,220,56.006c72.002,16.992,145.996,35,165,40.996
		c19.004,5,174.004,42.998,342.998,85c341.006,82.998,380,94.004,772.002,215c279.004,85.996,509.004,150,785,220
		c135,34.004,280.996,72.998,325,85c99.004,29.004,257.002,72.998,310,87.002c22.002,5.996,65,18.994,95,28.992
		c30,10,102.002,32.004,160,48.008c57.998,15.996,204.004,58.996,325,95.996c120.996,37.004,277.998,85,349.004,105.996
		c70.996,22.004,178.994,55,240,74.004c205.996,64.004,450.996,137.004,485.996,145c19.004,5,50.996,13,70,19.004
		c25.996,8,49.004,6.992,90-3.008c112.002-27.996,369.004-105.996,415.996-126.992c83.008-35,183.008-66.004,319.004-99.004
		c185-42.996,499.004-129.004,685-187c62.998-20,135-42.004,160-48.996c25-7,137.002-44.002,250-84.002
		c112.998-39.004,315-102.998,450-140.996c135-39.004,267.998-78.008,295-86.006c27.998-7.998,64.004-17.998,80-22.998
		c127.002-34.004,245-70.996,270-84.004c17.002-7.998,97.998-30.996,180-50c172.998-40.996,400.996-98.994,495-125.996
		c299.004-87.002,457.998-135.996,735-225.996c175.996-58.008,354.004-113.008,395-124.004c242.998-60,610-165,845-242.002
		c55-17.002,135.996-37.998,212.002-53.994c40.996-8.008,97.998-26.006,127.002-39.004c150.996-69.004,360-135,735.994-230.996
		c50-13.008,299.004-94.004,440-145c574.004-203.008,702.004-240,909.004-259.004c95-9.004,128-15,138-27.998
		c10.996-14.004,12.996-52.998,8.992-197.002c-3.992-99.004-8.992-300.996-11.992-450l-7-270l27.996-105
		c15-57.998,30.996-109.004,35-112.998c4.004-4.004,10,123.994,14.004,285.996c3.996,162.002,13,341.006,20.996,397.998
		c8,57.002,22.004,177.002,30.996,267.002c17.004,161.006,17.004,164.004-2.996,190c-22.004,30-22.004,30-293,111.006
		c-290.996,87.998-622,190.996-930,290.996c-150.996,49.004-332.996,105-405,125c-270.996,75-405.994,115.996-604.998,182.998
		c-112.998,37.998-280.996,92.998-375,121.006c-92.998,28.994-187.998,58.994-210,65.996s-70.996,22.002-110,32.998
		c-37.998,12.002-137.002,41.006-220,65c-82.002,25-294.004,86.006-470,136.006s-374.004,106.992-440,125.996
		c-65.996,20-177.998,52.002-250,70.996c-249.004,68.008-752.002,213.008-805.996,233.008c-100,35.996-293.008,90-398.008,110.996
		c-57.998,12.002-172.998,42.998-255,70C19112,23469,18892,23534.996,18334.998,23692.996c-392.998,112-545,157-675,197.996
		c-69.004,22.004-175.996,54.004-239.004,71.008c-62.998,15.996-146.992,42.996-186.992,58.992
		C17147.996,24055.992,17099.998,24057,17039.998,24025.992z"/>
	<path fill="#FFFFFF" d="M2402.997,19927.996c-15.996-20.996-50-115-87.998-245c-18.999-67.002-66.001-195-103.999-285
		c-63.003-150-80-197.998-140-402.998c-42.002-142.998-115-227.002-208.999-240.996c-26.001-4.004-58.003-11.006-71.001-16.006
		l-23.003-7.998l24.004-20c13.999-10,50-30,80.996-42.998c40-17.998,60-34.004,73.003-59.004c20-38.994,20-102.002-1.001-152.002
		c-22.998-53.994-20-136.992,6.001-170c26.001-32.998,30-28.994,56.997,49.004c61.001,175.996,88.003,230.996,136.001,272.998
		c57.002,50,98.003,57.002,331.001,57.998c117.998,0,241.001,6.006,280,13.008c173.999,30.996,257.002,8.994,327.998-87.002
		c22.002-31.006,42.002-52.002,42.998-47.002c1.006,5.996,5,30.996,9.004,57.998c7.998,57.002,30,75,100.996,84.004
		c27.002,2.998,51.006,7.002,53.008,8.994c5.996,5-36.006,68.008-63.008,93.008c-20.996,20-35.996,23.994-97.998,25
		c-65.996,0.996-78.994,5-135.996,38.994c-102.002,62.998-92.002,47.002-370,590c-61.001,120-118.003,242.002-126.001,270
		c-8.003,29.004-25,91.006-38.003,140C2436,19937,2422.997,19954.002,2402.997,19927.996z M2487.001,19529.998
		c30,0,77.998-59.004,117.998-144.004c22.998-50,61.001-125,85-165.996c41.001-70.996,160-305.996,160-315
		c0-12.998-62.998-65-87.002-72.002c-27.998-7.002-128.999-8.994-392.998-5l-146.001,2.002l3.999,107.998
		c4.004,147.998,7.002,162.002,52.002,229.004c22.002,32.002,40,63.994,40,70c0,7.002,12.998,45,28.999,85
		c15,40,41.001,105.996,56.001,145.996c23.999,65,30,72.998,48.999,67.998
		C2464.999,19532.996,2479.999,19529.998,2487.001,19529.998z"/>
	<path fill="#FFFFFF" d="M20017.996,19919.002c-20.996-10-43.994-32.002-52.002-47.002c-26.992-52.998-55-162.002-80.996-317.998
		c-45-268.008-125-531.006-200.996-666.006c-24.004-42.998-44.004-82.002-44.004-87.002c0-15-27.002-26.992-105-45
		c-155.996-37.998-160-51.992-50-163.994c85-87.998,84.004-81.006,65-275c-10-107.002-4.004-137.998,35-155
		c20-9.004,25-6.006,42.998,25.996c11.006,21.006,27.998,64.004,37.002,96.006c24.004,82.998,67.002,175,99.004,212.998
		c18.994,22.002,38.994,32.998,68.994,37.998c22.998,4.004,64.004,19.004,91.006,32.998c60,32.002,132.998,34.004,222.998,6.006
		c53.994-16.006,70.996-17.002,140-7.002c100,15,127.002,8.994,170.996-37.002c21.006-20.996,47.998-40,61.006-42.002
		c20-2.002,26.992-12.998,40.996-62.998c27.002-90.996,100-277.998,117.998-297.002c15-17.998,42.998-23.994,55-12.002
		c2.998,3.008,1.006,18.008-2.998,32.002c-105.996,327.002-114.004,366.006-82.002,395c31.006,29.004,106.006,56.006,182.998,67.002
		c40,5.996,88.008,12.998,106.006,15.996l30.996,5l-55.996,80l-57.002,80l-132.002-1.992L20592,18787l-41.006,32.002
		c-41.992,32.998-120.996,122.998-120.996,136.992c0,5-15.996,32.002-35.996,60c-36.006,53.008-41.006,73.008-29.004,109.004
		c5,15.996,0,24.004-17.998,34.004c-37.998,20.996-52.002,56.992-137.002,368.994c-20.996,79.004-42.002,169.004-45,200
		c-10.996,106.006-25,150-57.998,182.002C20070.994,19944.998,20067,19944.998,20017.996,19919.002z M20117,19424.002
		c23.994,7.998,33.994-4.004,52.002-59.004c7.998-22.002,40.996-102.998,73.994-180c89.004-210,117.998-297.998,101.006-307.998
		c-11.006-6.006-13.008-17.998-8.008-42.002c6.006-32.002,4.004-34.004-27.998-39.004c-17.998-2.998-108.994-10-200.996-15
		c-169.004-10-217.002-5-217.002,21.006c0,7.002-2.002,53.994-4.004,102.998c-3.994,107.002,10,184.004,64.004,332.002
		c25.996,70.996,50,117.002,72.002,140.996c47.998,52.002,62.002,62.002,68.994,50
		C20094.998,19422,20105.994,19420.994,20117,19424.002z"/>
	<path fill="#FFFFFF" d="M7840.995,19874.002c-26.992-61.006-26.992-152.002-0.996-485
		c32.998-403.008,15.996-484.004-105.996-526.006c-35-12.002-125-8.994-150,5c-11.006,6.006-33.008,4.004-64.004-5.996
		c-45-14.004-52.002-14.004-145.996,12.998c-55,15-106.006,30.996-115,35.996c-8.008,4.004-28.008,34.004-44.004,66.006
		c-27.998,55.996-29.004,65-35.996,262.998c-16.006,439.004-33.008,534.004-109.004,630l-20,25l-25-27.998
		c-30-34.004-32.998-84.004-9.004-147.998c13.008-33.008,19.004-100,25-274.004c4.004-125.996,11.006-270.996,15-322.002
		c8.008-102.998-6.992-167.998-53.994-237.002c-25-36.992-27.998-37.998-69.004-31.992c-23.994,2.998-53.994,7.998-67.002,11.992
		c-18.994,4.004-25.996,1.006-30.996-15c-10-31.992,10.996-58.994,72.998-90c64.004-32.998,115-80.996,132.002-125.996
		c15.996-42.002,37.998-165.996,45.996-260c7.002-85,22.002-115,58.008-115c41.992,0,55.996,47.002,61.992,197.002
		c9.004,222.002,22.002,242.998,166.006,273.994c57.998,13.008,150.996,22.002,247.998,26.006c150,5,155.996,5,184.004-17.002
		c35.996-29.004,110.996-182.998,125.996-257.998c20-106.006,32.998-136.006,62.998-150c16.006-7.998,31.006-12.002,32.998-9.004
		c14.004,12.998,22.002,122.002,13.008,179.004c-16.006,110,10.996,202.998,78.994,275.996
		c26.006,27.998,37.002,32.002,84.003,32.998c28.994,1.006,65.996,4.004,82.002,8.008l30,5.996l-47.002,40.996
		c-32.002,28.008-69.004,48.008-116.005,63.008c-65,20.996-70.996,25-75.996,53.994c-5,36.006-20,175-35,347.002
		c-10,109.004-74.004,462.002-87.998,485.996c-4.004,6.006-26.006,32.002-49.004,58.008l-42.002,46.992L7840.995,19874.002z"/>
	<path fill="#FFFFFF" d="M4289.999,19907c-2.998-2.998-50.996-7.002-105.996-7.998c-84.004-1.006-109.004-6.006-152.002-26.006
		c-42.002-20-67.998-25-134.004-25c-45,0-105.996-3.994-135.996-8.994c-60-9.004-135,2.998-162.998,26.992
		c-8.008,8.008-20,14.004-26.006,14.004c-15,0-22.002-145-12.002-255c9.004-95,28.008-587.998,35-910
		c7.002-324.004,12.002-374.004,40-402.002c14.004-13.994,35-22.998,55-22.998h32.002l-5.996,162.998
		c-4.004,89.004-9.004,172.998-12.002,187.002s-5,115-5,225c-0.996,160,2.998,217.998,17.998,287.998
		c11.006,47.998,21.006,89.004,22.998,90c42.002,26.006,180,81.006,229.004,91.006c97.002,20.996,320.996,27.998,477.002,15
		l137.998-11.006l60-43.994c32.998-25,70.996-48.008,85-51.006c15.996-2.998,42.998-30,75.996-77.002
		c67.002-92.998,84.004-127.998,132.002-270.996c87.998-262.998,107.998-364.004,96.006-505.996
		c-6.006-78.008-4.004-92.002,10.996-109.004c32.002-35,80-22.998,87.998,20c10,52.998-15,230-50,355
		c-58.994,212.998-95,299.004-207.002,490c-106.992,182.002-101.992,225.996,27.002,277.998
		c64.004,26.006,112.998,66.006,127.998,104.004c26.006,70-10.996,200.996-67.998,240c-25,17.998-172.002,87.002-227.998,107.998
		C4700.995,19887.996,4299.003,19915.994,4289.999,19907z M4685.995,19795.994c150-0.996,151.006-0.996,193.008-30
		c115-80,128.994-142.998,50.996-227.998c-9.004-10-50.996-33.994-94.004-52.998c-72.998-34.004-85-37.002-208.994-42.002
		c-72.998-3.994-160-5-195-3.994c-42.998,0.996-71.006-3.008-91.006-15c-25.996-16.006-30.996-16.006-80,0.996
		c-41.992,14.004-66.992,15-133.994,9.004c-45-5-95-7.002-112.002-6.006c-15.996,2.002-82.998,6.006-147.998,11.006
		c-65,3.994-122.998,12.998-129.004,18.994c-5.996,6.006-12.998,47.002-15.996,91.006c-4.004,78.994-4.004,80.996,25,108.994
		c47.998,44.004,160,72.002,482.998,122.002c132.998,20.996,202.002,27.002,245,22.002
		C4507.997,19799.002,4602.997,19795.994,4685.995,19795.994z"/>
	<path fill="#FFFFFF" d="M6009.003,19882c-13.008-16.006-66.006-60-118.008-97.002c-85-60.996-155.996-127.002-210-195.996
		c-35-46.006-60-106.006-90.996-225c-17.002-65-40-152.002-50.996-193.008c-21.006-76.992-16.006-113.994,15.996-140.996
		c10.996-9.004,15-2.002,20,37.002c7.002,52.998,70,262.998,90.996,302.998c7.002,14.004,31.006,64.004,53.008,110.996
		c40,85,55,102.002,173.994,199.004c11.006,7.998,32.998,27.002,50,42.002c41.006,33.994,112.002,55.996,212.002,63.994
		c145,12.002,197.002-10.996,382.002-161.992c25-21.006,47.002-32.002,57.002-28.008c8.994,3.008,15.996,9.004,15.996,13.008
		c0,3.994-45,43.994-100,90c-54.004,45.996-105.996,92.998-112.998,105c-26.006,37.998-95,63.994-217.002,78.994
		c-62.998,7.998-122.002,17.998-130.996,22.002C6037.997,19909.002,6024.999,19902,6009.003,19882z"/>
	<path fill="#FFFFFF" d="M10914.998,19904.998c-5-2.998-55.996-10.996-112.002-19.004c-90-13.994-107.002-13.994-143.994-0.996
		c-60,22.002-66.006,20-74.004-25.996c-5.996-35-2.002-53.008,30.996-123.008c37.002-75.996,39.004-87.998,45-205.996
		c5-95.996,11.006-137.998,29.004-180c14.004-34.004,32.998-127.998,50-250c70-485.996,75-622.002,25.996-719.004
		c-40-77.998-37.998-106.992,12.002-151.992c57.002-50,107.998-57.002,180-24.004c69.004,30.996,111.006,39.004,145,25.996
		c40-15.996,267.998-15.996,357.998-0.996c56.006,10,87.002,10.996,120,2.002c34.004-7.998,61.006-7.002,114.004,2.998
		c92.002,19.004,187.998,17.998,249.004,0c80.996-25,111.992,0,61.992,50c-25,25-27.998,25.996-205.996,50.996
		c-97.002,13.008-134.004,14.004-247.002,4.004c-127.002-10.996-137.002-10-197.998,10l-64.004,20.996l-52.998-22.998
		c-42.998-17.998-70.996-22.998-145-22.998c-102.998,0-125.996,10-175.996,80.996c-24.004,35-29.004,54.004-37.998,154.004
		c-8.008,92.998-21.006,502.998-19.004,610c0.996,57.998,30,127.002,62.998,152.998c91.006,69.004,235,89.004,661.006,89.004
		c208.994-1.006,313.994,2.998,325.996,10.996c17.998,11.006,19.004,34.004,4.004,107.002l-6.006,25l-17.002-20.996
		c-8.994-12.002-27.998-25-40.996-29.004c-30.996-10-227.998,12.002-310,35c-112.998,30.996-147.998,30.996-265.996,2.998
		c-143.008-33.994-301.006-35-363.008-3.994c-31.992,16.992-40.996,27.998-46.992,55.996c-3.008,19.004-4.004,45.996,0,59.004
		c6.992,26.992,21.992,30,280.996,45.996c87.998,5,225,14.004,305,20c80,5,222.002,10,317.002,10
		c147.002,0,173.994,2.002,187.998,17.002c34.004,32.998-2.002,103.994-59.004,118.994c-25.996,6.006-466.992,15-686.992,14.004
		c-82.002-0.996-151.006,5-194.004,15C10947.996,19909.998,10932.996,19912,10914.998,19904.998z"/>
	<path fill="#FFFFFF" d="M29924.996,19904.002c-15.996-3.008-54.004-14.004-82.996-26.006c-47.004-17.998-66.008-20-151.008-15
		c-80.996,6.006-107.996,4.004-165.996-13.994c-62-18.008-85.996-20-210-14.004c-139.004,5.996-140,5.996-162.996-17.998
		c-33-35-39.004-70-31.008-187.002c6.008-95,4.004-112.998-17.996-184.004c-30-96.992-25.996-135,21.004-170.996l33-25
		l8.992-162.002c5-90,9.004-297.998,9.004-462.998c0.996-202.002,5-312.998,13-340c12.996-45,59.004-97.998,106.004-122.002
		c40.996-20.996,401.992-35.996,535-22.002c58,6.006,198.996,7.002,353.996,3.008c192-5,257-4.004,257,5
		c0,15.996-79.004,170.996-87,170.996c-3,0-67.004-12.002-142.004-25.996c-132.996-26.006-138.992-26.006-300.996-15
		c-260,18.994-482,40.996-520,50.996c-19.004,5-50,7.002-70,4.004c-25.996-4.004-40-2.002-50,10.996
		c-20.996,25-24.004,155.996-5.996,290c20,149.004,20,217.998,0,392.002c-22,192.998-22,207.998,0.996,232.998
		c35,39.004,90.996,67.998,150.996,79.004c33.008,5.996,86.008,15.996,119.004,21.992c33,6.006,155,14.004,270,19.004
		c115.996,4.004,225.996,12.002,245,17.998c19.004,6.006,98,16.006,174.004,22.002c76.992,5.996,150,15.996,163,20.996
		c30,11.006,30,47.002,2,84.004c-19.004,22.998-26.004,25.996-53.008,19.004c-16.992-4.004-223.992-8.008-460.996-9.004
		c-235.996-0.996-469.004-5-517-9.004l-88-8.994v40c0,50.996,14.004,62.998,75,62.998c32.004,0,60.996,7.002,82.004,20
		c65.996,40,387.996,80.996,697.996,89.004l240,5.996l3,27.998c4.004,35-15,57.998-83.996,102.998
		c-50,32.002-53.008,33.008-190,37.002C30017.996,19905.994,29942,19905.994,29924.996,19904.002z"/>
	<path fill="#FFFFFF" d="M8562,19872c-19.004-17.002-32.998-129.004-57.998-467.002c-3.008-37.998-10-85.996-16.006-105.996
		c-8.994-31.006-5.996-56.006,16.006-150c25-103.008,46.992-269.004,76.992-559.004c9.004-94.004,30-237.002,45-312.002
		c8.008-40,36.006-35,68.008,10c22.998,32.998,25.996,47.998,25.996,115c0,42.002-9.004,139.004-20,216.006
		c-17.002,116.992-19.004,176.992-15,390c2.998,210.996,2.002,257.998-12.002,293.994c-10.996,31.006-17.998,107.002-23.994,282.002
		c-5,132.002-13.008,250-19.004,262.002C8614.998,19882,8585.994,19892.996,8562,19872z"/>
	<path fill="#FFFFFF" d="M12329.998,19884.002c0-4.004,12.998-87.002,29.004-183.008c38.994-228.994,60.996-477.998,60.996-670.996
		c0-152.998,0-155.996-30.996-220c-40-84.004-41.006-122.998-4.004-180c27.002-42.002,30-54.004,35.996-180
		c8.008-165,24.004-240,51.006-240c15.996,0,17.998,5,12.002,37.998c-12.002,64.004-9.004,392.998,5,439.004
		c31.992,113.994,180,285.996,293.994,342.998c77.002,37.998,87.998,32.998,179.004-90.996
		c157.002-214.004,258.994-374.004,358.994-566.006c103.008-198.994,111.006-210.996,132.002-217.002
		c12.002-2.998,22.002-3.994,22.998-2.998c4.004,4.004-55,165-86.992,241.006c-109.004,247.998-148.008,315.996-313.008,535.996
		c-97.998,130.996-100,135-103.994,195c-2.002,49.004,0.996,67.002,20,95.996c12.998,20,132.998,150,267.998,289.004
		c135,137.998,252.998,264.004,262.002,277.998c10,17.002,13.994,37.998,10.996,55c-3.994,22.002-10.996,27.002-33.994,27.002
		c-38.008,0-80-37.998-246.006-225c-265-299.004-303.994-340-350.996-370.996c-55-38.008-102.002-82.002-192.998-181.006
		c-59.004-65-70-72.998-102.002-72.998c-52.998,0-82.998,15-95,47.002c-6.006,15-12.998,92.998-15,172.998
		c-4.004,114.004-14.004,190-46.006,360c-25.996,130.996-48.994,224.004-58.994,239.004
		C12372,19865.994,12329.998,19897,12329.998,19884.002z"/>
	<path fill="#FFFFFF" d="M15642,19847.996c-7.002-23.994-19.004-97.002-27.998-162.998c-9.004-65.996-22.002-155.996-30-200
		c-8.008-44.004-19.004-120-24.004-169.004c-7.002-70-12.998-92.998-30.996-111.992c-21.006-22.002-22.002-27.002-10-59.004
		c6.992-20,15.996-122.002,20.996-232.998c10.996-262.998,30-312.002,174.004-460c95-97.998,188.994-171.006,305.996-240
		c119.004-69.004,144.004-76.006,269.004-69.004c125.996,6.006,206.992,32.998,305.996,101.006
		c132.002,90,179.004,87.998,277.002-16.006l65.996-70l17.998,27.002c20,30,20,40.996,9.004,307.002c-5,108.994-2.998,195,4.004,245
		c10,68.994,8.994,87.998-9.004,162.002c-29.004,120-55.996,393.994-59.004,602.998c-2.998,153.994-3.994,162.998-45.996,235
		c-37.002,65.996-59.004,68.994-77.002,10.996c-22.002-70.996-17.998-547.998,5-668.994c17.998-91.006,17.998-102.002,2.002-225
		c-44.004-345-100-431.006-340-516.006c-105.996-37.998-190.996-50-272.002-37.998c-122.998,17.002-207.002,55-270.996,124.004
		c-36.006,37.998-49.004,45.996-79.004,45.996c-28.994,0-43.994,7.998-75,40.996c-42.002,44.004-85,106.006-105.996,154.004
		c-21.006,45.996-17.002,212.998,7.002,319.004c12.998,60,16.992,95.996,10,106.992c-14.004,28.008-11.006,220,5.996,301.006
		c9.004,40,25,92.002,35.996,115.996c20,40,20,44.004,5,76.006c-20,41.992-20,60-0.996,132.998
		c19.004,70.996,12.002,112.998-24.004,147.998l-27.998,25.996L15642,19847.996z"/>
	<path fill="#FFFFFF" d="M17435.994,19882.996c-3.994-3.994-42.998-10-86.992-12.998l-80-5l-35-100
		c-32.002-89.004-34.004-105-25-145c16.992-77.998,22.998-204.004,10.996-235.996c-17.002-42.002-12.998-209.004,10-439.004
		c10-110,22.998-275.996,29.004-370c10.996-205.996,30.996-295,72.998-330c15.996-14.004,33.994-25,38.994-25
		c12.002,0,23.008,47.002,21.006,90c0,19.004-4.004,195.996-7.998,392.002c-6.006,342.998-5,360,13.994,425
		c32.998,107.998,24.004,102.998,217.998,123.994c239.004,26.006,306.006,25,444.004-10.996c62.998-17.002,139.004-30,170-30
		c82.002,0,167.998-25,202.998-60c17.002-17.002,49.004-39.004,72.002-50c54.004-25.996,112.002-87.998,167.998-180
		c56.006-92.998,74.004-152.998,82.002-277.002c7.002-110.996,50-393.994,65.996-435c15-37.002,31.006-40,73.008-12.002
		c41.992,29.004,41.992,32.002,16.992,76.006c-15,25-21.992,67.002-30.996,177.998c-17.998,237.998-35,320-80.996,387.002
		c-21.006,32.002-63.008,93.994-92.002,137.998c-30,44.004-75,102.998-100,132.002c-67.002,72.998-67.998,88.994-7.002,210.996
		c57.002,115,70.996,172.002,59.004,237.002c-8.008,40.996-22.002,67.998-87.002,167.002c-30,45.996-52.998,52.998-220,67.998
		c-67.998,5.996-160,17.998-205,25.996c-45,7.002-142.998,14.004-217.998,14.004c-110,0-164.004,5.996-287.002,30
		C17484.998,19890.994,17447.996,19894.998,17435.994,19882.996z M18184.998,19669.002c34.004-10,87.998-30,119.004-44.004
		c30.996-14.004,88.994-30,128.994-35.996c39.004-6.006,76.006-15,81.006-19.004c13.994-12.998-20-92.002-52.002-122.998
		c-21.006-20-47.998-31.006-106.006-42.002c-115-22.002-205.996-19.004-320,10.996c-53.994,14.004-123.994,25-155,25
		c-30.996,1.006-143.994,1.006-250.996,1.006c-130.996,0-197.002,2.998-202.002,10c-2.998,7.002-5.996,33.994-5.996,62.002
		c0,28.994-2.002,65-6.006,81.992c-5,22.002-1.992,35,9.004,44.004c32.998,27.002,442.002,62.998,612.998,52.998
		C18084.002,19690.994,18149.998,19679.998,18184.998,19669.002z"/>
	<path fill="#FFFFFF" d="M8974.998,19859.002c-25.996-15-65-51.006-65-59.004c0-4.004,35-27.998,77.998-54.004
		c59.004-36.992,89.004-48.994,127.002-51.992c27.998-2.002,70.996-11.006,95-19.004c25-9.004,80.996-20,125-24.004
		c44.004-3.994,94.004-13.994,110-21.992c45-21.006,80.996-103.008,87.998-198.008c2.998-41.992,11.006-122.998,17.002-180.996
		c7.002-70.996,7.998-167.002,2.002-295c-7.998-175,3.994-505.996,22.998-610c5-29.004,55-95,72.002-95
		c28.994,0.996,30.996,22.998,37.002,440c3.994,234.004,8.994,447.998,11.992,475c3.008,27.998-1.992,82.002-10.996,125
		c-22.002,102.002-22.002,212.002,0.996,287.998l18.008,62.002h115.996c69.004,0,140.996,7.002,180,15.996
		c35.996,9.004,124.004,19.004,197.002,22.002c147.998,7.998,165.996,15,138.994,57.002
		c-27.998,42.998-67.998,52.002-251.992,59.004c-125,3.994-192.002,11.992-250,26.992c-71.006,19.004-92.002,20-209.004,13.008
		c-182.998-12.002-319.004-11.006-400,2.998c-37.998,5.996-97.002,12.998-130,15.996s-69.004,7.998-80,11.006
		C9004.002,19867,8985.994,19864.998,8974.998,19859.002z"/>
	<path fill="#FFFFFF" d="M21642,19854.998c-37.998-17.002-190-120.996-231.006-159.004c-43.994-40.996-90.996-140-90.996-190.996
		c0-22.002,10-60,20.996-85c22.002-50,35-62.998,171.006-172.998c47.002-37.998,47.002-40,42.002-85
		c-9.004-66.006-41.006-214.004-55-247.998c-14.004-36.006-33.008-286.006-33.008-454.004c-0.996-115,1.006-130,26.006-182.002
		c22.002-47.998,30.996-57.998,52.002-57.998c27.998,0,40,25,30,64.004c-8.008,31.992,11.992,91.992,36.992,108.994
		c19.004,14.004,19.004,16.006,3.008,92.998c-22.002,105-14.004,280,15.996,379.004c32.998,105,54.004,147.002,105.996,204.004
		C21842,19185.994,22022,19252,22239.998,19252c97.002,0,125.996-4.004,185-25c110.996-40,157.998-62.998,190-97.002l30-30.996
		l2.998-223.008c2.998-186.992,0-236.992-15.996-311.992l-17.998-90l26.992-118.008c30-131.992,74.004-245.996,95-245.996
		c11.006,0,14.004,24.004,14.004,117.998c0,64.004,5,132.998,10,152.002s15.996,59.004,24.004,89.004
		c13.994,48.994,13.994,66.992,0.996,165c-22.002,167.998-55,385.996-60.996,410.996c-3.008,12.002-1.006,100,5,195.996
		c15,237.002-2.002,412.002-50,505c-48.008,96.006-49.004,97.002-207.002,106.006
		C22234.998,19865.994,21672.996,19867.996,21642,19854.998z M22387,19704.998c97.998-20.996,173.994-50,185.996-70.996
		c6.006-10,12.002-61.006,15-114.004c4.004-77.002,2.002-97.998-10.996-107.998c-40-34.004-511.006-22.998-757.002,17.998
		c-62.998,10-155,24.004-205,30c-124.004,14.004-145,20-145,35s127.998,127.998,170,150c35.996,19.004,254.004,45,385,45.996
		c55,0,132.002,7.002,170,14.004C22287.996,19722,22307,19722.996,22387,19704.998z"/>
	<path fill="#FFFFFF" d="M14277.996,19809.998c-97.002-10-212.002-20-255.996-22.998c-101.006-7.002-124.004-20-110-59.004
		c5.996-15,20.996-37.002,35-47.998c22.998-17.998,40.996-20,187.998-20c172.998,0,217.002-7.998,332.998-62.002
		c50-22.998,50-22.998,56.006-77.998c11.992-117.998,25-722.002,17.998-840c-10-180.996-4.004-294.004,18.994-375
		c53.008-180.996,57.002-187.998,82.002-137.002c12.002,22.002,12.998,70,6.006,262.002
		c-12.002,342.998-12.002,360.996,3.994,407.998c14.004,40,14.004,47.002-3.994,87.002c-16.006,35.996-19.004,67.002-19.004,182.002
		c0,75.996-7.998,207.002-17.002,290.996l-15.996,152.002l27.002,29.004c50.996,52.998,107.998,65,325.996,67.998
		c195,2.002,424.004,17.998,447.002,32.002c17.998,8.994-25,88.994-57.998,106.992c-16.006,9.004-62.002,14.004-134.004,14.004
		c-60,0-200,7.002-310,15C14644.998,19832.996,14502.996,19832,14277.996,19809.998z"/>
	<path fill="#FFFFFF" d="M25239.996,19827.996c0-2.002-5-28.994-10-60c-9.004-45-7-77.002,9.004-168.994
		c31.992-184.004,33.996-233.008,16.992-404.004c-21.992-210.996-22.996-284.004-6.992-322.998c10.996-26.006,11.992-60,6.992-145
		c-25-377.998-25-390,16.008-435c13.992-15,35-54.004,47-87.002c46.992-125.996,86.992-145,315-145
		c130,0,161.992,2.998,211.992,20.996c73.008,26.006,180,27.002,284.004,3.008c59.004-13.008,93-15,160-9.004
		c145,14.004,182.004,10.996,239.004-19.004c56.992-28.994,70.996-26.992,70.996,9.004c0,12.998,5,27.002,10,30
		c5.996,2.998,10,20.996,10,40c0,44.004-39.004,72.002-117,85.996c-32.004,6.006-102.004,20-155.996,31.006
		c-85,17.998-119.004,20-245,13.994c-114.004-5-163-2.998-217.004,8.008c-55,11.992-109.004,13.994-250,10
		c-145-5-184.004-3.008-197.996,7.998c-19.004,15-36.008,137.002-37.004,268.994c0,46.006-9.004,92.002-30,154.004
		c-32.996,97.998-30,142.998,10.996,180.996c20,18.008,21.008,26.006,16.008,139.004c-2.004,65.996-1.008,130,3.992,142.002
		c9.004,25,50,43.994,159.004,75.996c87.004,24.004,257.004,29.004,328,7.998c37.996-10.996,46.004-10,75,8.008
		c27.996,16.992,57.996,20.996,247,26.992c118,4.004,225,11.006,238,15c44.004,17.002,54.004,86.006,16.004,123.008
		c-11.004,11.992-36.004,15.996-90,15.996c-42,0-129.004,10.996-197,25.996c-115,24.004-129.004,24.004-242.004,14.004
		c-125.996-10.996-269.004-27.002-370-40c-70-10-140,0.996-164.004,24.004c-18.992,20-20,113.994,0,125.996
		c13.008,9.004,215,22.002,334.004,22.998c47.004,1.006,94.004-7.002,143-22.002c57-17.998,86.004-21.992,130-16.992
		c207,20.996,322,28.994,425,27.998c141.004,0,151.004,5,142,77.002c-9.004,65-15.996,100.996-20,100.996c-2,0-30-7.002-62-15.996
		c-47.004-12.002-93-14.004-253-9.004c-280.996,9.004-302,10.996-540,50C25654.996,19822,25239.996,19834.002,25239.996,19827.996z"
		/>
	<path fill="#FFFFFF" d="M23814.996,19800.994c-10.996-5-100.996-13.994-200-20c-190.994-12.998-424.002-36.992-450.994-47.998
		c-12.002-3.994-15-13.994-11.006-40c7.002-40.996,19.004-57.002,71.006-95c35.996-25.996,45.996-27.998,130-27.998
		c50,0,137.998,7.002,195.994,15.996c197.004,28.008,192.004,28.008,230,2.002c42.004-27.998,85-103.994,100-173.994
		c9.004-43.008,8-59.004-10.996-115c-18.008-55-22-95-26.004-291.006c-5-198.994-3-232.002,12-272.002
		c19.004-48.994,17.004-117.998-5-252.998c-10.996-65.996-10-80.996,10-162.998c12.004-50,32.004-102.002,43-115.996l20-26.006
		l12,22.998c7.004,13.008,15.996,60,20,104.004c4.004,45,17.004,105.996,30,140c38,95.996,43,137.002,45.996,365
		c3.008,212.002,3.008,215.996-20.996,257.002l-24.004,40.996l22.004,69.004c19.004,57.998,22,82.998,17,153.994
		C24019,19427,24027,19512,24044,19534.998c6.992,10.996,55.996,25,130.996,40.996c99.004,20,137.004,23.008,215,18.008
		c79.004-5,108-2.002,170,15c80,21.992,130,60.996,130,100.996c0,30-27,89.004-42.996,95.996c-8,3.008-38-5-68-17.998
		c-46.004-18.994-74.004-22.002-184.004-22.998c-70.996-0.996-177-5-235-10c-102-7.002-107-5.996-187.996,24.004
		C23887.996,19809.998,23850.992,19814.998,23814.996,19800.994z"/>
	<path fill="#FFFFFF" d="M26969,19742.996c-29.004-58.994-34.004-77.998-34.004-142.998c-0.996-40.996-5-155.996-9.004-255
		c-6.992-147.998-5-200,9.004-290c12.004-82.998,15.996-167.998,14.004-345.996c-2-285-9.004-337.002-54.004-442.002
		c-19.004-44.004-35-89.004-35-100c0-10,12.004-31.006,28-46.006c32.996-33.994,89.004-38.994,182-16.992
		c35.996,8.994,99.004,15.996,142.004,15.996c42,0,112,7.002,155,15c125,24.004,368.992,39.004,415,25.996
		c23.992-7.998,43.992-7.998,55-2.998c12,6.006,50,5,107.996-3.994c122.004-19.004,144.004-20,160.996-2.002
		c13.008,12.998,11.008,20.996-13.992,68.994c-35,67.002-56.008,79.004-125,68.008c-59.004-10-135,0.996-235,33.994
		c-59.004,19.004-88,22.002-247.004,21.006c-124.004,0-207.996-6.006-270-17.002c-49.004-9.004-94.004-17.002-97.996-17.002
		c-4.004,0-17.004,19.004-28,42.998c-11.004,22.998-25,49.004-31.004,59.004c-8.996,12.002-8,70.996,2,245
		c20.996,360.996,10.996,1017.998-17,1130.996C27032.996,19829.998,27004.996,19812.996,26969,19742.996z"/>
	<path fill="#FFFFFF" d="M30939.996,19794.002c-19.004-7.002-60.996-13.008-92-13.008l-57.004-0.996l-11.992-42.002
		c-6.004-23.994-12-112.998-13.008-197.998c-0.996-154.004-0.996-155.996,33.008-240c28-72.998,31.992-90.996,25-130
		c-4.004-25-6.004-90-4.004-145c5.996-177.002,5-285-4.004-530c-7.996-234.004-7.996-240.996,13.008-287.998
		c11.992-26.006,28-47.002,35.996-47.002c8,0,15,2.998,15,7.998c0,4.004,10.996,20,25,36.006c25,28.994,25.996,43.994,3,105
		c-10,26.992-8.996,586.992,2,725c7.004,98.994,2.004,91.992,102.004,150.996c78.992,45.996,164.998,74.004,234.998,75.996
		c32.002,1.006,137.002-0.996,232.998-5c197.998-8.994,275.996-25,435.996-87.998c124.004-47.998,213.008-120,237.002-190.996
		c32.002-92.002,67.002-276.006,67.002-355c0-50,5.996-94.004,15.996-117.998c16.006-37.002,15-53.008-5-129.004
		c-7.998-30-5.996-64.004,6.006-137.998c13.994-87.002,18.994-100,43.994-117.998l28.008-20l25.996,82.998
		c37.998,120.996,42.002,165,15.996,220c-25.996,57.998-25.996,65.996,0,93.994l21.006,23.008l-32.998,56.992
		c-26.006,46.006-32.002,67.002-30,105c3.994,92.002-80,304.004-175,442.002c-30,42.998-54.004,84.004-54.004,90
		c0,7.002,9.004,22.998,20,37.002s20,29.004,20,32.998c0,4.004,17.998,35,40.996,67.998c22.002,33.008,47.002,75,54.004,92.002
		c17.002,42.002,10,101.006-20,152.002c-59.004,100.996-134.004,134.004-405,175.996c-180.996,28.008-217.002,31.006-505,33.008
		C31049.996,19805.994,30967,19804.002,30939.996,19794.002z M31825.992,19649.998c65,0,136.006-20,170-49.004
		c28.008-22.998,57.002-78.994,50-96.992c-2.998-8.008-36.992-35-75.996-60c-107.998-70-164.004-78.008-425-63.008
		c-115,7.002-215,16.006-222.002,21.006c-30.996,23.994-73.994,25.996-153.994,7.002c-100-24.004-205-27.002-225-7.002
		c-8.008,7.998-17,30.996-21.004,50.996c-22.004,139.004,112.996,197.002,502,212.998c70.996,2.002,130,6.006,132.002,7.002
		c0.996,2.002,48.994-2.998,105-10C31719,19655.994,31791.998,19650.994,31825.992,19649.998z"/>
	<path fill="#FFFFFF" d="M28479.996,19779.002c-7.996-18.008-5-63.008,14.004-189.004c23.996-162.998,25.996-250.996,10.996-382.002
		c-5.996-53.994-4.004-77.002,9.004-112.998c10-25,23.996-45,31.992-45c17.004,0,17.004,0.996-1.992-72.998
		c-13.008-50-13.008-67.998-3.008-106.006c7.004-27.998,13.008-150,16.008-307.998c3.992-280,7.996-302.998,57.996-382.998
		c17.004-27.002,30-39.004,35.996-32.998c6.008,5.996,17.004,52.002,25,103.994c14.004,85,14.004,107.002,0,224.004
		c-37.996,312.998-45,437.998-25.996,505.996c7.004,27.002,5.996,66.006-4.004,141.006c-7.996,57.002-17.996,147.002-20.996,198.994
		c-9.004,137.002-24.004,220-52,297.002c-13.996,37.002-33,89.004-43,115C28507,19797.996,28494,19809.998,28479.996,19779.002z"/>
	<path fill="#FFFFFF" d="M5520.995,18904.998c5-25,13.008-54.004,19.004-64.004c5-10.996,10-46.992,10-80
		c0-53.994,5.996-72.998,55.996-168.994c68.008-132.002,115-189.004,206.006-247.998c162.998-107.002,255-129.004,487.998-119.004
		c195,9.004,272.002,34.004,360.996,117.002c95,87.998,114.004,138.994,75,197.998c-13.994,22.002-30,40-35,40
		s-35-39.004-66.992-85.996c-61.006-89.004-90-117.002-159.004-152.002c-62.002-30-97.998-35-269.004-34.004h-158.994l-121.006,60
		c-66.992,32.998-130.996,62.998-142.998,67.002c-27.998,7.998-93.994,82.002-127.998,142.998c-30.996,56.006-60.996,171.006-70,270
		c-5.996,57.998-10.996,75-27.998,87.002C5519.999,18960.994,5512.001,18954.002,5520.995,18904.998z"/>
	<path fill="#FFFFFF" d="M8564.998,17447.996c-29.004-15.996-32.002-23.994-54.004-117.998c-20-84.004-30.996-235-45.996-620
		c-2.998-85-12.002-180-19.004-210c-8.994-37.002-15.996-157.998-20-365c-3.994-170-8.994-345.996-11.992-390
		c-3.008-44.004-1.006-142.998,5.996-220c29.004-365,30-402.002,20.996-530c-5.996-70.996-12.998-197.002-15.996-280
		c-2.998-82.002-10.996-225.996-15.996-320c-7.002-100.996-8.008-274.004-4.004-425c5-190.996,2.002-319.004-10-510
		c-9.004-140-17.998-355.996-20-480s-7.998-255.996-14.004-295c-5.996-37.998-10-160.996-10.996-272.002
		c0-110.996-4.004-203.994-9.004-207.002c-10-6.992,6.006-65.996,31.006-110.996c8.994-17.002,37.998-47.998,65-70.996
		c43.994-37.002,85.996-53.008,492.998-187.002c245-81.006,542.002-182.002,660-222.998c617.002-217.002,657.998-230,1290-419.004
		c80-24.004,165-50.996,190-60c185.996-67.998,420.996-142.998,620.996-199.004c131.006-35.996,286.006-83.994,345-105
		c392.002-141.992,404.004-145.996,676.006-210.996c92.002-22.002,222.002-59.004,290-80.996
		c172.998-58.008,312.998-102.002,535.996-169.004c106.006-32.998,196.006-60.996,201.006-65c15-7.998,466.992-132.998,655.996-180
		c94.004-22.998,204.004-52.002,245-64.004c70-20.996,360.996-122.998,405-140.996c159.004-69.004,950-317.998,1252.998-395.996
		c237.998-61.006,265-68.008,424.004-120c75-25,157.002-45,180.996-46.006c27.002,0,87.002,15,162.998,42.002
		c279.004,99.004,387.002,130.996,463.008,135.996c41.992,2.002,102.998,6.006,135.996,9.004c32.998,2.002,80,10.996,105,20
		c132.002,49.004,260.996,85.996,400,115c85,17.998,190.996,45,235,60c44.004,15.996,114.004,40,155,54.004
		c77.002,25.996,262.002,75,455,121.992c205.996,49.004,389.004,105,770,235c577.998,199.004,795,269.004,975,314.004
		c300,75.996,545.996,149.004,815,242.002c252.002,87.002,469.004,145.996,975,267.998c85,20.996,175.996,45.996,202.002,55.996
		c25.996,10,107.002,34.004,180,53.008c72.998,18.994,192.002,55.996,262.998,80.996c72.002,25.996,144.004,50.996,160,55
		c17.002,4.004,77.002,22.002,134.998,37.998c58,16.006,134.004,37.002,170,45c35.996,9.004,220,54.004,410,100
		c190,46.006,392.004,92.998,450,104.004c70.996,13.994,159.004,42.002,270.996,87.002c109.004,42.998,192.004,70,245,77.998
		c61.008,10,101.008,23.994,180,65c55,28.994,109.004,62.002,120,73.994c18.008,20,18.008,21.006-10.996,75
		c-17,31.006-30.996,65-32,77.002c-2.004,12.002-5.996,186.006-8.996,387.002c-7,365.996,3.996,592.002,45.996,1000
		c12.004,112.002,15.996,175,25,330c3,62.998,8,129.004,10,145c22.004,184.004,35,592.998,35,1097.998c0,265,5,545,10,622.002
		c23,347.002,28,615,20,1065C25427,16755.994,25429,16807,25442,16852c13.992,48.994,15,88.994,5.996,305
		c-5,135.996-13.996,257.998-18.996,270.996c-12,30-40,25-55-7.998c-22-45-34.004-345.996-44.004-1055
		c-5.996-385-15-747.002-19.004-805c-5-57.998-10-355-10.996-660c0-305-2.996-602.002-5-660c-7-152.998-24.004-419.004-40-625
		c-7-99.004-15.996-227.002-20-285c-2.996-57.998-7.996-135.996-10-175c-22.996-357.998-30.996-1145.996-12-1232.002
		c14.004-67.002,0-87.998-65-102.998c-28.996-7.002-100-35.996-158-64.004c-57.996-28.994-134.004-60-170-68.994
		c-35.996-9.004-164.004-41.006-285-71.006s-255.996-65.996-300-78.994c-44.004-14.004-115.996-34.004-160-45
		c-422.996-111.006-765.994-207.002-964.998-269.004c-260.996-80.996-520-152.998-720-198.994
		c-190-43.008-324.004-83.008-720-214.004c-422.998-140-657.002-210-895-270c-297.998-74.004-450-119.004-815-240
		c-129.004-42.998-342.998-112.998-475-155c-452.002-145-590.996-185.996-1000-294.004c-82.002-21.992-212.998-58.994-290-80.996
		c-102.998-30-197.998-49.004-355-70.996c-400.996-55-442.998-66.006-815-223.008c-75.996-31.992-110.996-31.992-210-0.996
		c-44.004,14.004-167.998,50.996-275,80.996c-200,57.002-255.996,75-370.996,118.008c-36.006,12.998-107.002,31.992-158.008,40
		c-51.992,8.994-175,43.994-275,77.998c-163.994,55-235.996,80.996-421.992,152.998c-92.002,37.002-224.004,79.004-389.004,125
		c-180.996,50-230.996,65.996-450.996,140c-93.008,32.002-220,67.002-281.006,79.004c-60.996,11.992-170.996,38.994-243.994,60
		c-120,35-227.002,65-534.004,147.998c-49.004,12.998-132.002,32.998-184.004,43.994c-51.992,12.002-163.994,46.006-250,76.006
		c-226.992,80.996-330.996,112.002-465.996,137.998c-112.998,22.002-179.004,40.996-385,114.004
		c-47.002,15.996-235.996,76.992-420,135c-387.998,121.992-872.002,280-915,300c-34.004,15.996-412.002,140-580,190.996
		c-537.998,162.998-1209.004,390.996-1400,475c-19.004,7.998-70.996,27.998-212.998,80.996c-35,13.008-80,38.008-99.004,54.004
		c-33.994,29.004-35,32.998-48.994,150c-16.006,125-12.002,269.004,8.994,327.998c7.002,21.006,12.002,220,14.004,602.002
		c7.002,1272.002,7.002,1272.002,25.996,1425c17.002,129.004,19.004,237.998,21.006,995c1.992,492.002,6.992,925.996,13.994,1030
		c6.006,99.004,16.006,275,22.998,390c6.006,115.996,17.002,244.004,25,285c15,82.002,18.008,150,7.002,150
		C8587.996,17459.998,8575.994,17454.002,8564.998,17447.996z"/>
	<path fill="#FFFFFF" d="M14545.994,17382c-1.992-4.004-6.992-552.002-10-1217.002c-3.994-665.996-7.998-1282.002-10.996-1370
		l-5-160l70.996-72.998c39.004-41.006,72.002-72.002,74.004-70c0.996,2.002,5.996,650.996,10,1443.994L14682,17377l-22.998,5.996
		C14625.994,17392,14552,17392,14545.994,17382z"/>
	<path fill="#FFFFFF" d="M13574.998,14634.998c-425-65.996-735-370.996-810.996-799.004c-34.004-195,2.998-416.992,98.994-595.996
		c130-242.998,366.006-420,637.002-480.996c89.004-20,130.996-21.006,620.996-25l526.006-5l5.996,202.998
		c10,298.994,7.998,770.996-2.998,867.998c-12.002,105-32.998,185.996-67.998,265c-112.002,254.004-300,430-564.004,527.998
		C13904.998,14634.998,13700.994,14654.002,13574.998,14634.998z"/>
	<path fill="#FFFFFF" d="M16929.998,14629.998c-87.002-9.004-184.004-32.002-255-60.996c-80-33.008-155-72.002-155-81.006
		c0-3.994-5.996-7.998-12.998-7.998c-26.006,0-167.998-127.998-232.002-209.004c-197.002-250.996-257.998-573.994-165-875.996
		c20.996-67.998,85.996-215,99.004-225c3.994-2.998,17.998-20.996,30.996-40c35.996-52.002,147.998-167.002,210-215
		c280.996-217.002,715-244.004,1030.996-64.004c284.004,163.008,454.004,425,489.004,752.002c5,51.006,10,302.002,10,557.998
		v467.002l-77.002,4.004C17762.996,14639.998,17007,14637.996,16929.998,14629.998z"/>
	<path fill="#FFFFFF" d="M20174.998,14615.994c-389.004-65-717.998-390-785.996-775.996c-14.004-82.998-12.002-275.996,5-355.996
		c75.996-359.004,335.996-631.006,700.996-732.002c90-25,90.996-25,637.998-29.004l547.002-3.994V13242
		c0,317.998-4.004,547.998-10.996,587.998c-27.002,167.998-116.006,352.002-232.002,480.996c-65,72.002-160,150-217.998,179.004
		c-24.004,12.998-55,30-68.008,39.004C20637.996,14602.996,20354.002,14645.994,20174.998,14615.994z"/>
	<path fill="#FFFFFF" d="M13127,12184.002c-4.004-4.004-7.002-74.004-7.002-157.002v-149.004l-40,32.002
		c-32.002,25-52.998,32.998-99.004,37.002c-76.992,7.002-102.998,0-150-42.002c-58.994-52.998-80.996-115.996-81.992-227.998
		c-1.006-76.006,2.998-102.998,20-142.998c38.994-88.008,88.994-124.004,167.998-123.008c57.002,1.006,98.994,15,142.998,49.004
		c17.998,14.004,35,24.004,39.004,22.998c2.998-0.996,7.998-17.002,10.996-35c4.004-25,10-32.998,25-32.998
		c17.002,0,20.996,7.998,25,65c2.998,35.996,5,209.004,5,385v320l-25,2.998
		C13145.994,12189.998,13130.994,12187.996,13127,12184.002z M13007,11887.996c15-5.996,47.002-30,70.996-52.002l42.002-40v-110.996
		v-112.002l-42.002-42.998c-22.998-22.998-57.998-49.004-75.996-57.002c-71.006-28.994-141.006,6.006-172.002,87.002
		c-22.002,55-17.998,195,7.998,252.002C12872,11887,12937.996,11917,13007,11887.996z"/>
	<path fill="#FFFFFF" d="M15337,12182.996c-4.004-2.998-7.002-178.994-7.002-390v-382.998h24.004c13.994,0,26.992,4.004,30,7.998
		c3.994,7.002,10,687.002,6.992,760C15389.998,12189.998,15347.996,12194.998,15337,12182.996z"/>
	<path fill="#FFFFFF" d="M18819.002,11932.996c0-135.996-1.006-310.996-2.002-387.998l-2.002-140h30h30l2.998,185l2.002,185
		l37.998,37.998c64.004,67.002,121.006,82.998,181.006,52.002c45-22.998,53.994-62.002,60-270c5-172.002,7.998-190,23.994-192.998
		c41.006-7.998,47.002,12.002,47.002,172.002c0,186.992-10.996,256.992-45.996,302.998c-62.002,80.996-196.006,82.998-268.008,3.994
		c-10.996-11.992-22.998-20.996-27.998-20.996s-7.998,70.996-7.002,157.998l1.006,157.002l-31.006,2.998l-30.996,2.998
		L18819.002,11932.996z"/>
	<path fill="#FFFFFF" d="M20602,12167.996c-9.004-8.994-12.002-102.998-12.002-390v-377.998h29.004c16.992,0,30.996,5.996,35,15.996
		c2.998,9.004,5.996,74.004,5.996,146.006v130l35.996-44.004c20-22.998,43.008-52.002,52.002-62.998c10-10.996,35-42.002,56.006-70
		c76.992-97.002,97.998-115,132.998-115c20,0,32.998,5,32.998,12.998c-0.996,6.006-50,71.006-110,142.002
		c-60,72.002-110,135-110,140c0,12.002,15,27.998,129.004,139.004c43.994,42.998,77.998,82.998,75,86.992
		c-3.008,5-19.004,9.004-36.006,9.004c-25.996,0-48.994-17.998-143.994-112.002l-114.004-112.002l-2.002,235
		c-2.998,226.006-3.994,234.004-22.998,237.002C20624.002,12179.002,20609.002,12174.998,20602,12167.996z"/>
	<path fill="#FFFFFF" d="M16800.994,12080.994c-5.996-10.996-10.996-46.992-10.996-80c0-60-0.996-60.996-27.002-61.992
		c-58.994-2.002-227.998,2.998-232.002,6.992c-1.992,2.002-2.998,23.008-2.998,46.006c1.006,55-5,75-22.998,82.002
		c-34.004,12.998-45-4.004-45-70v-64.004h-34.004c-37.998,0-67.998-22.998-60-45c3.008-7.998,23.008-15,47.002-17.002l42.002-2.998
		l5-202.002c5-183.994,7.002-203.994,25.996-228.994c25-35,64.004-46.006,128.008-40c50,5.996,65.996,16.992,65.996,47.998
		c0,15.996-7.002,17.002-57.002,12.002c-50.996-6.006-60-4.004-77.998,15.996s-20,35.996-20,209.004v185.996l132.998,2.998
		l132.002,2.998V11697c0-170,2.002-186.006,22.998-227.002c26.006-52.002,55-70,115-70c56.006,0,82.002,14.004,82.002,45.996
		c0,24.004-2.002,25-44.004,19.004c-96.992-15-105.996,5.996-105.996,240.996v174.004h74.004c60.996,0,75,2.998,80,17.002
		c10.996,27.002-22.002,43.994-79.004,42.998c-27.002-0.996-55-0.996-62.002-0.996c-7.998,0.996-12.998,26.992-15,78.994
		c-2.998,70-5,77.002-25,80C16819.002,12099.998,16807,12094.002,16800.994,12080.994z"/>
	<path fill="#FFFFFF" d="M19684.998,12057.996c-2.002-7.002-5.996-37.998-7.998-67.998l-2.998-55l-41.006-2.998
		c-70.996-5-65.996-62.002,6.006-62.002h35.996V11687c0-100,2.998-194.004,7.002-207.998c12.002-41.006,40.996-67.002,87.002-78.008
		c63.994-13.994,110.996-3.994,121.992,27.002c13.008,34.004,0,44.004-40.996,31.006c-52.002-16.006-85.996,0.996-99.004,47.998
		c-5.996,20.996-10.996,110.996-10.996,200v162.002l77.998,2.998c75,2.998,77.002,3.994,77.002,27.998s-2.002,25-77.002,27.998
		l-77.002,2.998l-2.998,67.002c-2.998,61.006-5,67.002-25.996,70C19699.998,12069.998,19687.996,12064.998,19684.998,12057.996z"/>
	<path fill="#FFFFFF" d="M21122,12057.996c-7.002-7.002-12.002-38.994-12.002-73.994c0-57.002-2.002-62.002-20-57.002
		c-10.996,2.998-30.996,2.002-45-1.006c-20-5-25.996-11.992-22.998-28.994c2.002-17.998,10-22.998,45.996-25l42.002-2.998l0.996-175
		c1.006-96.006,3.008-178.008,4.004-184.004c0.996-5,2.998-19.004,4.004-30c0-10.996,12.998-32.998,28.994-50
		c22.002-25.996,37.002-32.002,82.998-37.002c67.002-7.002,99.004,7.002,99.004,42.998c0,24.004-2.002,25-44.004,19.004
		c-97.998-15-105.996,2.002-105.996,235v180h75c72.998,0,75,0.996,75,25c0,27.002-4.004,27.998-95,29.004l-50,0.996l-2.998,65
		c-2.998,60-12.002,79.004-37.002,80C21139.002,12069.998,21129.002,12064.998,21122,12057.996z"/>
	<path fill="#FFFFFF" d="M13439.998,11934.998c-19.004-7.998-42.998-17.998-52.998-20.996c-17.998-7.002-34.004-50-22.998-61.006
		c2.998-3.994,28.994,4.004,55.996,17.002c50.996,24.004,120.996,30.996,170.996,17.002c36.006-9.004,60-49.004,66.006-111.006
		l5.996-52.998l-98.994-5c-113.008-5.996-164.004-25-204.004-78.994c-17.998-26.006-24.004-47.002-24.004-85
		c0-92.002,57.002-144.004,156.006-144.004c55.996,0,147.998,32.002,147.998,52.002c0,20.996,19.004,3.994,22.002-19.004
		c2.002-22.002,7.998-27.998,27.998-27.998h25l2.998,207.998c2.998,232.002-2.998,257.002-62.002,300
		C13617,11950.994,13494.998,11957.996,13439.998,11934.998z M13657.996,11607c2.998-54.004,1.006-59.004-30-87.998
		c-52.002-48.008-85.996-62.002-135.996-56.006c-55,6.006-82.002,32.002-89.004,84.004c-3.994,32.002,0,43.994,21.006,70
		c31.992,37.998,78.994,52.002,165.996,50l65-2.002L13657.996,11607z"/>
	<path fill="#FFFFFF" d="M14059.998,11930.994c-19.004-10.996-44.004-27.998-54.004-40c-26.992-30-35.996-25.996-35.996,14.004
		c0,32.002-2.002,35-30,35h-30l2.002-262.002c2.998-247.002,3.994-262.998,22.002-265.996c10-2.002,21.992,0,26.992,5
		c4.004,3.994,9.004,90,9.004,188.994l2.002,180l27.998,30c67.998,71.006,119.004,93.008,175.996,74.004
		c27.002-9.004,40-22.002,55-54.004c16.006-35,19.004-66.992,19.004-228.994c0-164.004,2.002-187.998,15.996-194.004
		c9.004-2.998,24.004-2.002,33.008,4.004c13.994,8.994,15.996,37.002,15.996,208.994c0,191.006-0.996,201.006-24.004,240
		C14247,11944.002,14140.994,11972.996,14059.998,11930.994z"/>
	<path fill="#FFFFFF" d="M14875.994,11935.994c-95-35.996-147.998-125.996-148.994-255.996
		c-2.998-190.996,73.994-275,247.998-272.998c117.998,0.996,189.004,32.998,172.002,75.996c-5,14.004-12.002,14.004-61.006-3.994
		c-110.996-39.004-226.992-16.006-261.992,52.998c-9.004,17.002-19.004,55-23.008,83.994l-7.998,54.004l186.006,2.002l185.996,2.998
		l-0.996,65c-1.006,125-68.008,199.004-186.006,205.996C14937.996,11949.002,14900.994,11944.998,14875.994,11935.994z
		 M15037.996,11874.002c34.004-22.002,62.002-74.004,62.002-116.006v-37.998h-150h-150v25c0,14.004,9.004,42.998,19.004,64.004
		C14859.998,11889.002,14964.998,11919.998,15037.996,11874.002z"/>
	<path fill="#FFFFFF" d="M15979.998,11940.994c-40.996-12.998-84.004-37.998-107.002-62.998
		c-85.996-90.996-87.998-317.998-5-412.002c31.006-33.994,112.998-65.996,172.998-65.996c68.008,0,150,37.998,191.006,90
		c85.996,109.004,67.002,337.002-34.004,412.998C16142.996,11944.998,16047,11960.994,15979.998,11940.994z M16139.998,11867
		c47.002-31.006,69.004-72.998,75.996-144.004c17.002-163.994-48.994-262.998-176.992-262.998
		c-119.004,0-188.008,115.996-160,272.002c11.992,70,30.996,102.002,80.996,135.996
		C16005.994,11899.002,16094.002,11899.002,16139.998,11867z"/>
	<path fill="#FFFFFF" d="M14509.002,11764.998c-2.002-385-4.004-357.002,28.994-352.998l27.002,2.998l2.998,262.998l2.002,262.002
		h-30h-30L14509.002,11764.998z"/>
	<path fill="#FFFFFF" d="M17462.996,11922c-53.994-22.002-75.996-42.998-67.002-65c7.002-19.004,34.004-22.998,50-7.998
		c5,5.996,35,16.992,66.006,25c108.994,27.998,172.998-13.008,180-114.004l2.998-45l-85-5.996
		c-120-8.008-147.002-16.006-190.996-56.006c-67.002-60.996-63.008-165.996,8.994-220.996
		c31.006-24.004,44.004-27.002,107.998-27.002c65,0,77.002,2.998,118.008,32.002l45,32.002L17702,11437
		c2.002-26.006,7.002-32.002,27.998-32.002h25l2.998,185c4.004,264.004,0,280.996-77.998,329.004
		C17634.998,11945.994,17525.994,11947,17462.996,11922z M17687.996,11592.996c-2.998-65.996-3.994-67.998-45.996-100
		c-37.002-27.998-52.002-32.998-97.002-32.998c-47.002,0-55.996,2.998-79.004,30.996c-27.998,33.008-31.992,53.008-15.996,93.008
		c17.002,46.992,80,70,197.998,73.994l42.998,1.006L17687.996,11592.996z"/>
	<path fill="#FFFFFF" d="M17952.996,11932.996c-17.002-5.996-18.994-517.998-2.002-527.998c5-4.004,21.006-4.004,35-0.996
		l24.004,5.996v177.998v177.002l45,52.002c49.004,55,84.004,70,127.998,53.994c22.002-8.994,27.998-6.992,36.006,8.008
		c16.992,30.996-13.008,60.996-60,60.996c-47.002,0-72.002-10.996-116.006-52.998l-32.998-31.006V11887
		C18009.998,11925.994,17985.994,11944.998,17952.996,11932.996z"/>
	<path fill="#FFFFFF" d="M18434.998,11922.996c-60-25-107.998-85-130-160.996c-7.002-25-7.998-139.004-0.996-189.004
		c6.992-50,41.992-108.994,81.992-140c31.006-22.998,49.004-27.998,111.006-30.996c63.994-4.004,80-1.006,127.998,22.998
		c50.996,24.004,55,29.004,55,60.996c0,19.004-2.998,34.004-7.998,34.004c-4.004,0-25-12.002-47.002-27.002
		c-45.996-30.996-115.996-40.996-169.004-22.998c-66.992,22.002-103.994,142.998-80.996,264.004
		c14.004,76.992,27.998,101.992,67.998,125.996c54.004,34.004,159.004,20.996,196.006-22.998c16.992-21.006,36.992-22.002,45-1.006
		C18709.998,11904.998,18535.994,11965.994,18434.998,11922.996z"/>
	<path fill="#FFFFFF" d="M20134.998,11920.994c-97.998-45.996-152.998-158.994-142.002-292.998
		c14.004-168.994,117.998-250.996,292.998-232.998c98.008,10.996,146.006,40,131.006,79.004c-5,11.992-17.002,10.996-74.004-6.006
		c-155-47.002-262.002,5-270.996,132.002l-4.004,55l167.002-2.002c100-2.002,174.004,1.006,185.996,7.002
		c24.004,12.998,25,65,4.004,137.002c-25.996,85.996-87.002,132.002-187.998,138.994
		C20190.994,11939.002,20164.998,11934.998,20134.998,11920.994z M20314.002,11852c22.998-21.006,55-89.004,55.996-119.004
		c0-22.998-0.996-22.998-150-22.998h-150v27.998c0,42.002,55,120,92.998,132.002
		C20205.994,11882.996,20289.998,11872.996,20314.002,11852z"/>
	<path fill="#FFFFFF" d="M19409.998,11817.996c0-62.002-2.998-170-5.996-240c-8.008-158.994-4.004-177.998,35.996-177.998h30
		l0.996,237.998c1.006,130,2.002,247.998,3.008,262.002c0.996,20.996-4.004,25-31.006,27.998l-32.998,2.998V11817.996z"/>
</g>
</svg>
