<?xml version="1.0" standalone="no"?>
<!DOCTYPE svg PUBLIC "-//W3C//DTD SVG 20010904//EN"
 "http://www.w3.org/TR/2001/REC-SVG-20010904/DTD/svg10.dtd">
<svg version="1.0" xmlns="http://www.w3.org/2000/svg"
 width="3307.000000pt" height="3307.000000pt" viewBox="0 0 3307.000000 3307.000000"
 preserveAspectRatio="xMidYMid meet">
<metadata>
Created by potrace 1.15, written by Peter Selinger 2001-2017
</metadata>
<g transform="translate(0.000000,3307.000000) scale(0.100000,-0.100000)"
fill="#000000" stroke="none">
<path d="M17040 24026 c-25 -13 -65 -28 -90 -34 -221 -55 -309 -81 -465 -138
-206 -76 -326 -116 -405 -138 -30 -8 -120 -33 -200 -56 -80 -23 -210 -59 -290
-80 -175 -47 -341 -94 -685 -193 -143 -41 -411 -116 -595 -166 -184 -49 -398
-108 -475 -129 -303 -85 -483 -136 -545 -154 -36 -10 -132 -34 -215 -53 -82
-20 -163 -40 -180 -45 -16 -5 -97 -26 -180 -45 -82 -20 -199 -51 -260 -70 -60
-18 -153 -45 -205 -60 -52 -14 -176 -48 -275 -76 -160 -44 -508 -154 -575
-181 -32 -13 -118 -36 -365 -98 -110 -28 -252 -64 -315 -81 -63 -16 -234 -54
-380 -84 -309 -64 -263 -51 -600 -177 -502 -189 -594 -217 -900 -278 -186 -37
-283 -65 -301 -86 -7 -8 -11 -32 -10 -52 1 -20 6 -183 11 -362 10 -346 21
-524 32 -535 17 -18 31 53 44 233 8 108 16 222 18 252 3 30 10 132 16 225 13
187 19 215 50 215 12 0 49 7 83 15 34 8 145 33 247 55 268 59 298 69 665 218
98 40 214 77 335 107 102 26 199 51 215 56 39 12 337 86 440 109 75 17 265 66
490 125 193 51 338 96 595 184 145 49 326 102 550 160 19 5 76 20 125 34 50
14 149 39 220 56 72 17 146 35 165 41 19 5 174 43 343 85 341 83 380 94 772
215 279 86 509 150 785 220 135 34 281 73 325 85 99 29 257 73 310 87 22 6 65
19 95 29 30 10 102 32 160 48 58 16 204 59 325 96 121 37 278 85 349 106 71
22 179 55 240 74 206 64 451 137 486 145 19 5 51 13 70 19 26 8 49 7 90 -3
112 -28 369 -106 416 -127 83 -35 183 -66 319 -99 185 -43 499 -129 685 -187
63 -20 135 -42 160 -49 25 -7 137 -44 250 -84 113 -39 315 -103 450 -141 135
-39 268 -78 295 -86 28 -8 64 -18 80 -23 127 -34 245 -71 270 -84 17 -8 98
-31 180 -50 173 -41 401 -99 495 -126 299 -87 458 -136 735 -226 176 -58 354
-113 395 -124 243 -60 610 -165 845 -242 55 -17 136 -38 212 -54 41 -8 98 -26
127 -39 151 -69 360 -135 736 -231 50 -13 299 -94 440 -145 574 -203 702 -240
909 -259 95 -9 128 -15 138 -28 11 -14 13 -53 9 -197 -4 -99 -9 -301 -12 -450
l-7 -270 28 -105 c15 -58 31 -109 35 -113 4 -4 10 124 14 286 4 162 13 341 21
398 8 57 22 177 31 267 17 161 17 164 -3 190 -22 30 -22 30 -293 111 -291 88
-622 191 -930 291 -151 49 -333 105 -405 125 -271 75 -406 116 -605 183 -113
38 -281 93 -375 121 -93 29 -188 59 -210 66 -22 7 -71 22 -110 33 -38 12 -137
41 -220 65 -82 25 -294 86 -470 136 -176 50 -374 107 -440 126 -66 20 -178 52
-250 71 -249 68 -752 213 -806 233 -100 36 -293 90 -398 111 -58 12 -173 43
-255 70 -554 179 -774 245 -1331 403 -393 112 -545 157 -675 198 -69 22 -176
54 -239 71 -63 16 -147 43 -187 59 -86 35 -134 36 -194 5z"/>
<path d="M2403 19928 c-16 -21 -50 -115 -88 -245 -19 -67 -66 -195 -104 -285
-63 -150 -80 -198 -140 -403 -42 -143 -115 -227 -209 -241 -26 -4 -58 -11 -71
-16 l-23 -8 24 -20 c14 -10 50 -30 81 -43 40 -18 60 -34 73 -59 20 -39 20
-102 -1 -152 -23 -54 -20 -137 6 -170 26 -33 30 -29 57 49 61 176 88 231 136
273 57 50 98 57 331 58 118 0 241 6 280 13 174 31 257 9 328 -87 22 -31 42
-52 43 -47 1 6 5 31 9 58 8 57 30 75 101 84 27 3 51 7 53 9 6 5 -36 68 -63 93
-21 20 -36 24 -98 25 -66 1 -79 5 -136 39 -102 63 -92 47 -370 590 -61 120
-118 242 -126 270 -8 29 -25 91 -38 140 -22 84 -35 101 -55 75z m84 -398 c30
0 78 -59 118 -144 23 -50 61 -125 85 -166 41 -71 160 -306 160 -315 0 -13 -63
-65 -87 -72 -28 -7 -129 -9 -393 -5 l-146 2 4 108 c4 148 7 162 52 229 22 32
40 64 40 70 0 7 13 45 29 85 15 40 41 106 56 146 24 65 30 73 49 68 11 -3 26
-6 33 -6z"/>
<path d="M20018 19919 c-21 -10 -44 -32 -52 -47 -27 -53 -55 -162 -81 -318
-45 -268 -125 -531 -201 -666 -24 -43 -44 -82 -44 -87 0 -15 -27 -27 -105 -45
-156 -38 -160 -52 -50 -164 85 -88 84 -81 65 -275 -10 -107 -4 -138 35 -155
20 -9 25 -6 43 26 11 21 28 64 37 96 24 83 67 175 99 213 19 22 39 33 69 38
23 4 64 19 91 33 60 32 133 34 223 6 54 -16 71 -17 140 -7 100 15 127 9 171
-37 21 -21 48 -40 61 -42 20 -2 27 -13 41 -63 27 -91 100 -278 118 -297 15
-18 43 -24 55 -12 3 3 1 18 -3 32 -106 327 -114 366 -82 395 31 29 106 56 183
67 40 6 88 13 106 16 l31 5 -56 80 -57 80 -132 -2 -131 -2 -41 32 c-42 33
-121 123 -121 137 0 5 -16 32 -36 60 -36 53 -41 73 -29 109 5 16 0 24 -18 34
-38 21 -52 57 -137 369 -21 79 -42 169 -45 200 -11 106 -25 150 -58 182 -36
35 -40 35 -89 9z m99 -495 c24 8 34 -4 52 -59 8 -22 41 -103 74 -180 89 -210
118 -298 101 -308 -11 -6 -13 -18 -8 -42 6 -32 4 -34 -28 -39 -18 -3 -109 -10
-201 -15 -169 -10 -217 -5 -217 21 0 7 -2 54 -4 103 -4 107 10 184 64 332 26
71 50 117 72 141 48 52 62 62 69 50 4 -6 15 -7 26 -4z"/>
<path d="M7841 19874 c-27 -61 -27 -152 -1 -485 33 -403 16 -484 -106 -526
-35 -12 -125 -9 -150 5 -11 6 -33 4 -64 -6 -45 -14 -52 -14 -146 13 -55 15
-106 31 -115 36 -8 4 -28 34 -44 66 -28 56 -29 65 -36 263 -16 439 -33 534
-109 630 l-20 25 -25 -28 c-30 -34 -33 -84 -9 -148 13 -33 19 -100 25 -274 4
-126 11 -271 15 -322 8 -103 -7 -168 -54 -237 -25 -37 -28 -38 -69 -32 -24 3
-54 8 -67 12 -19 4 -26 1 -31 -15 -10 -32 11 -59 73 -90 64 -33 115 -81 132
-126 16 -42 38 -166 46 -260 7 -85 22 -115 58 -115 42 0 56 47 62 197 9 222
22 243 166 274 58 13 151 22 248 26 150 5 156 5 184 -17 36 -29 111 -183 126
-258 20 -106 33 -136 63 -150 16 -8 31 -12 33 -9 14 13 22 122 13 179 -16 110
11 203 79 276 26 28 37 32 84 33 29 1 66 4 82 8 l30 6 -47 41 c-32 28 -69 48
-116 63 -65 21 -71 25 -76 54 -5 36 -20 175 -35 347 -10 109 -74 462 -88 486
-4 6 -26 32 -49 58 l-42 47 -20 -47z"/>
<path d="M4290 19907 c-3 -3 -51 -7 -106 -8 -84 -1 -109 -6 -152 -26 -42 -20
-68 -25 -134 -25 -45 0 -106 -4 -136 -9 -60 -9 -135 3 -163 27 -8 8 -20 14
-26 14 -15 0 -22 -145 -12 -255 9 -95 28 -588 35 -910 7 -324 12 -374 40 -402
14 -14 35 -23 55 -23 l32 0 -6 163 c-4 89 -9 173 -12 187 -3 14 -5 115 -5 225
-1 160 3 218 18 288 11 48 21 89 23 90 42 26 180 81 229 91 97 21 321 28 477
15 l138 -11 60 -44 c33 -25 71 -48 85 -51 16 -3 43 -30 76 -77 67 -93 84 -128
132 -271 88 -263 108 -364 96 -506 -6 -78 -4 -92 11 -109 32 -35 80 -23 88 20
10 53 -15 230 -50 355 -59 213 -95 299 -207 490 -107 182 -102 226 27 278 64
26 113 66 128 104 26 70 -11 201 -68 240 -25 18 -172 87 -228 108 -34 13 -436
41 -445 32z m396 -111 c150 -1 151 -1 193 -30 115 -80 129 -143 51 -228 -9
-10 -51 -34 -94 -53 -73 -34 -85 -37 -209 -42 -73 -4 -160 -5 -195 -4 -43 1
-71 -3 -91 -15 -26 -16 -31 -16 -80 1 -42 14 -67 15 -134 9 -45 -5 -95 -7
-112 -6 -16 2 -83 6 -148 11 -65 4 -123 13 -129 19 -6 6 -13 47 -16 91 -4 79
-4 81 25 109 48 44 160 72 483 122 133 21 202 27 245 22 33 -3 128 -6 211 -6z"/>
<path d="M6009 19882 c-13 -16 -66 -60 -118 -97 -85 -61 -156 -127 -210 -196
-35 -46 -60 -106 -91 -225 -17 -65 -40 -152 -51 -193 -21 -77 -16 -114 16
-141 11 -9 15 -2 20 37 7 53 70 263 91 303 7 14 31 64 53 111 40 85 55 102
174 199 11 8 33 27 50 42 41 34 112 56 212 64 145 12 197 -11 382 -162 25 -21
47 -32 57 -28 9 3 16 9 16 13 0 4 -45 44 -100 90 -54 46 -106 93 -113 105 -26
38 -95 64 -217 79 -63 8 -122 18 -131 22 -11 4 -24 -3 -40 -23z"/>
<path d="M10915 19905 c-5 -3 -56 -11 -112 -19 -90 -14 -107 -14 -144 -1 -60
22 -66 20 -74 -26 -6 -35 -2 -53 31 -123 37 -76 39 -88 45 -206 5 -96 11 -138
29 -180 14 -34 33 -128 50 -250 70 -486 75 -622 26 -719 -40 -78 -38 -107 12
-152 57 -50 108 -57 180 -24 69 31 111 39 145 26 40 -16 268 -16 358 -1 56 10
87 11 120 2 34 -8 61 -7 114 3 92 19 188 18 249 0 81 -25 112 0 62 50 -25 25
-28 26 -206 51 -97 13 -134 14 -247 4 -127 -11 -137 -10 -198 10 l-64 21 -53
-23 c-43 -18 -71 -23 -145 -23 -103 0 -126 10 -176 81 -24 35 -29 54 -38 154
-8 93 -21 503 -19 610 1 58 30 127 63 153 91 69 235 89 661 89 209 -1 314 3
326 11 18 11 19 34 4 107 l-6 25 -17 -21 c-9 -12 -28 -25 -41 -29 -31 -10
-228 12 -310 35 -113 31 -148 31 -266 3 -143 -34 -301 -35 -363 -4 -32 17 -41
28 -47 56 -3 19 -4 46 0 59 7 27 22 30 281 46 88 5 225 14 305 20 80 5 222 10
317 10 147 0 174 2 188 17 34 33 -2 104 -59 119 -26 6 -467 15 -687 14 -82 -1
-151 5 -194 15 -67 15 -82 17 -100 10z"/>
<path d="M29925 19904 c-16 -3 -54 -14 -83 -26 -47 -18 -66 -20 -151 -15 -81
6 -108 4 -166 -14 -62 -18 -86 -20 -210 -14 -139 6 -140 6 -163 -18 -33 -35
-39 -70 -31 -187 6 -95 4 -113 -18 -184 -30 -97 -26 -135 21 -171 l33 -25 9
-162 c5 -90 9 -298 9 -463 1 -202 5 -313 13 -340 13 -45 59 -98 106 -122 41
-21 402 -36 535 -22 58 6 199 7 354 3 192 -5 257 -4 257 5 0 16 -79 171 -87
171 -3 0 -67 -12 -142 -26 -133 -26 -139 -26 -301 -15 -260 19 -482 41 -520
51 -19 5 -50 7 -70 4 -26 -4 -40 -2 -50 11 -21 25 -24 156 -6 290 20 149 20
218 0 392 -22 193 -22 208 1 233 35 39 91 68 151 79 33 6 86 16 119 22 33 6
155 14 270 19 116 4 226 12 245 18 19 6 98 16 174 22 77 6 150 16 163 21 30
11 30 47 2 84 -19 23 -26 26 -53 19 -17 -4 -224 -8 -461 -9 -236 -1 -469 -5
-517 -9 l-88 -9 0 40 c0 51 14 63 75 63 32 0 61 7 82 20 66 40 388 81 698 89
l240 6 3 28 c4 35 -15 58 -84 103 -50 32 -53 33 -190 37 -76 3 -152 3 -169 1z"/>
<path d="M8562 19872 c-19 -17 -33 -129 -58 -467 -3 -38 -10 -86 -16 -106 -9
-31 -6 -56 16 -150 25 -103 47 -269 77 -559 9 -94 30 -237 45 -312 8 -40 36
-35 68 10 23 33 26 48 26 115 0 42 -9 139 -20 216 -17 117 -19 177 -15 390 3
211 2 258 -12 294 -11 31 -18 107 -24 282 -5 132 -13 250 -19 262 -15 35 -44
46 -68 25z"/>
<path d="M12330 19884 c0 -4 13 -87 29 -183 39 -229 61 -478 61 -671 0 -153 0
-156 -31 -220 -40 -84 -41 -123 -4 -180 27 -42 30 -54 36 -180 8 -165 24 -240
51 -240 16 0 18 5 12 38 -12 64 -9 393 5 439 32 114 180 286 294 343 77 38 88
33 179 -91 157 -214 259 -374 359 -566 103 -199 111 -211 132 -217 12 -3 22
-4 23 -3 4 4 -55 165 -87 241 -109 248 -148 316 -313 536 -98 131 -100 135
-104 195 -2 49 1 67 20 96 13 20 133 150 268 289 135 138 253 264 262 278 10
17 14 38 11 55 -4 22 -11 27 -34 27 -38 0 -80 -38 -246 -225 -265 -299 -304
-340 -351 -371 -55 -38 -102 -82 -193 -181 -59 -65 -70 -73 -102 -73 -53 0
-83 15 -95 47 -6 15 -13 93 -15 173 -4 114 -14 190 -46 360 -26 131 -49 224
-59 239 -20 27 -62 58 -62 45z"/>
<path d="M15642 19848 c-7 -24 -19 -97 -28 -163 -9 -66 -22 -156 -30 -200 -8
-44 -19 -120 -24 -169 -7 -70 -13 -93 -31 -112 -21 -22 -22 -27 -10 -59 7 -20
16 -122 21 -233 11 -263 30 -312 174 -460 95 -98 189 -171 306 -240 119 -69
144 -76 269 -69 126 6 207 33 306 101 132 90 179 88 277 -16 l66 -70 18 27
c20 30 20 41 9 307 -5 109 -3 195 4 245 10 69 9 88 -9 162 -29 120 -56 394
-59 603 -3 154 -4 163 -46 235 -37 66 -59 69 -77 11 -22 -71 -18 -548 5 -669
18 -91 18 -102 2 -225 -44 -345 -100 -431 -340 -516 -106 -38 -191 -50 -272
-38 -123 17 -207 55 -271 124 -36 38 -49 46 -79 46 -29 0 -44 8 -75 41 -42 44
-85 106 -106 154 -21 46 -17 213 7 319 13 60 17 96 10 107 -14 28 -11 220 6
301 9 40 25 92 36 116 20 40 20 44 5 76 -20 42 -20 60 -1 133 19 71 12 113
-24 148 l-28 26 -11 -43z"/>
<path d="M17436 19883 c-4 -4 -43 -10 -87 -13 l-80 -5 -35 -100 c-32 -89 -34
-105 -25 -145 17 -78 23 -204 11 -236 -17 -42 -13 -209 10 -439 10 -110 23
-276 29 -370 11 -206 31 -295 73 -330 16 -14 34 -25 39 -25 12 0 23 47 21 90
0 19 -4 196 -8 392 -6 343 -5 360 14 425 33 108 24 103 218 124 239 26 306 25
444 -11 63 -17 139 -30 170 -30 82 0 168 -25 203 -60 17 -17 49 -39 72 -50 54
-26 112 -88 168 -180 56 -93 74 -153 82 -277 7 -111 50 -394 66 -435 15 -37
31 -40 73 -12 42 29 42 32 17 76 -15 25 -22 67 -31 178 -18 238 -35 320 -81
387 -21 32 -63 94 -92 138 -30 44 -75 103 -100 132 -67 73 -68 89 -7 211 57
115 71 172 59 237 -8 41 -22 68 -87 167 -30 46 -53 53 -220 68 -68 6 -160 18
-205 26 -45 7 -143 14 -218 14 -110 0 -164 6 -287 30 -157 31 -194 35 -206 23z
m749 -214 c34 -10 88 -30 119 -44 31 -14 89 -30 129 -36 39 -6 76 -15 81 -19
14 -13 -20 -92 -52 -123 -21 -20 -48 -31 -106 -42 -115 -22 -206 -19 -320 11
-54 14 -124 25 -155 25 -31 1 -144 1 -251 1 -131 0 -197 3 -202 10 -3 7 -6 34
-6 62 0 29 -2 65 -6 82 -5 22 -2 35 9 44 33 27 442 63 613 53 46 -2 112 -13
147 -24z"/>
<path d="M8975 19859 c-26 -15 -65 -51 -65 -59 0 -4 35 -28 78 -54 59 -37 89
-49 127 -52 28 -2 71 -11 95 -19 25 -9 81 -20 125 -24 44 -4 94 -14 110 -22
45 -21 81 -103 88 -198 3 -42 11 -123 17 -181 7 -71 8 -167 2 -295 -8 -175 4
-506 23 -610 5 -29 55 -95 72 -95 29 1 31 23 37 440 4 234 9 448 12 475 3 28
-2 82 -11 125 -22 102 -22 212 1 288 l18 62 116 0 c69 0 141 7 180 16 36 9
124 19 197 22 148 8 166 15 139 57 -28 43 -68 52 -252 59 -125 4 -192 12 -250
27 -71 19 -92 20 -209 13 -183 -12 -319 -11 -400 3 -38 6 -97 13 -130 16 -33
3 -69 8 -80 11 -11 3 -29 1 -40 -5z"/>
<path d="M21642 19855 c-38 -17 -190 -121 -231 -159 -44 -41 -91 -140 -91
-191 0 -22 10 -60 21 -85 22 -50 35 -63 171 -173 47 -38 47 -40 42 -85 -9 -66
-41 -214 -55 -248 -14 -36 -33 -286 -33 -454 -1 -115 1 -130 26 -182 22 -48
31 -58 52 -58 28 0 40 25 30 64 -8 32 12 92 37 109 19 14 19 16 3 93 -22 105
-14 280 16 379 33 105 54 147 106 204 106 117 286 183 504 183 97 0 126 -4
185 -25 111 -40 158 -63 190 -97 l30 -31 3 -223 c3 -187 0 -237 -16 -312 l-18
-90 27 -118 c30 -132 74 -246 95 -246 11 0 14 24 14 118 0 64 5 133 10 152 5
19 16 59 24 89 14 49 14 67 1 165 -22 168 -55 386 -61 411 -3 12 -1 100 5 196
15 237 -2 412 -50 505 -48 96 -49 97 -207 106 -237 14 -799 16 -830 3z m745
-150 c98 -21 174 -50 186 -71 6 -10 12 -61 15 -114 4 -77 2 -98 -11 -108 -40
-34 -511 -23 -757 18 -63 10 -155 24 -205 30 -124 14 -145 20 -145 35 0 15
128 128 170 150 36 19 254 45 385 46 55 0 132 7 170 14 93 17 112 18 192 0z"/>
<path d="M14278 19810 c-97 -10 -212 -20 -256 -23 -101 -7 -124 -20 -110 -59
6 -15 21 -37 35 -48 23 -18 41 -20 188 -20 173 0 217 -8 333 -62 50 -23 50
-23 56 -78 12 -118 25 -722 18 -840 -10 -181 -4 -294 19 -375 53 -181 57 -188
82 -137 12 22 13 70 6 262 -12 343 -12 361 4 408 14 40 14 47 -4 87 -16 36
-19 67 -19 182 0 76 -8 207 -17 291 l-16 152 27 29 c51 53 108 65 326 68 195
2 424 18 447 32 18 9 -25 89 -58 107 -16 9 -62 14 -134 14 -60 0 -200 7 -310
15 -250 18 -392 17 -617 -5z"/>
<path d="M25240 19828 c0 -2 -5 -29 -10 -60 -9 -45 -7 -77 9 -169 32 -184 34
-233 17 -404 -22 -211 -23 -284 -7 -323 11 -26 12 -60 7 -145 -25 -378 -25
-390 16 -435 14 -15 35 -54 47 -87 47 -126 87 -145 315 -145 130 0 162 3 212
21 73 26 180 27 284 3 59 -13 93 -15 160 -9 145 14 182 11 239 -19 57 -29 71
-27 71 9 0 13 5 27 10 30 6 3 10 21 10 40 0 44 -39 72 -117 86 -32 6 -102 20
-156 31 -85 18 -119 20 -245 14 -114 -5 -163 -3 -217 8 -55 12 -109 14 -250
10 -145 -5 -184 -3 -198 8 -19 15 -36 137 -37 269 0 46 -9 92 -30 154 -33 98
-30 143 11 181 20 18 21 26 16 139 -2 66 -1 130 4 142 9 25 50 44 159 76 87
24 257 29 328 8 38 -11 46 -10 75 8 28 17 58 21 247 27 118 4 225 11 238 15
44 17 54 86 16 123 -11 12 -36 16 -90 16 -42 0 -129 11 -197 26 -115 24 -129
24 -242 14 -126 -11 -269 -27 -370 -40 -70 -10 -140 1 -164 24 -19 20 -20 114
0 126 13 9 215 22 334 23 47 1 94 -7 143 -22 57 -18 86 -22 130 -17 207 21
322 29 425 28 141 0 151 5 142 77 -9 65 -16 101 -20 101 -2 0 -30 -7 -62 -16
-47 -12 -93 -14 -253 -9 -281 9 -302 11 -540 50 -45 7 -460 19 -460 13z"/>
<path d="M23815 19801 c-11 -5 -101 -14 -200 -20 -191 -13 -424 -37 -451 -48
-12 -4 -15 -14 -11 -40 7 -41 19 -57 71 -95 36 -26 46 -28 130 -28 50 0 138 7
196 16 197 28 192 28 230 2 42 -28 85 -104 100 -174 9 -43 8 -59 -11 -115 -18
-55 -22 -95 -26 -291 -5 -199 -3 -232 12 -272 19 -49 17 -118 -5 -253 -11 -66
-10 -81 10 -163 12 -50 32 -102 43 -116 l20 -26 12 23 c7 13 16 60 20 104 4
45 17 106 30 140 38 96 43 137 46 365 3 212 3 216 -21 257 l-24 41 22 69 c19
58 22 83 17 154 -6 96 2 181 19 204 7 11 56 25 131 41 99 20 137 23 215 18 79
-5 108 -2 170 15 80 22 130 61 130 101 0 30 -27 89 -43 96 -8 3 -38 -5 -68
-18 -46 -19 -74 -22 -184 -23 -71 -1 -177 -5 -235 -10 -102 -7 -107 -6 -188
24 -84 31 -121 36 -157 22z"/>
<path d="M26969 19743 c-29 -59 -34 -78 -34 -143 -1 -41 -5 -156 -9 -255 -7
-148 -5 -200 9 -290 12 -83 16 -168 14 -346 -2 -285 -9 -337 -54 -442 -19 -44
-35 -89 -35 -100 0 -10 12 -31 28 -46 33 -34 89 -39 182 -17 36 9 99 16 142
16 42 0 112 7 155 15 125 24 369 39 415 26 24 -8 44 -8 55 -3 12 6 50 5 108
-4 122 -19 144 -20 161 -2 13 13 11 21 -14 69 -35 67 -56 79 -125 68 -59 -10
-135 1 -235 34 -59 19 -88 22 -247 21 -124 0 -208 -6 -270 -17 -49 -9 -94 -17
-98 -17 -4 0 -17 19 -28 43 -11 23 -25 49 -31 59 -9 12 -8 71 2 245 21 361 11
1018 -17 1131 -10 42 -38 25 -74 -45z"/>
<path d="M30940 19794 c-19 -7 -61 -13 -92 -13 l-57 -1 -12 -42 c-6 -24 -12
-113 -13 -198 -1 -154 -1 -156 33 -240 28 -73 32 -91 25 -130 -4 -25 -6 -90
-4 -145 6 -177 5 -285 -4 -530 -8 -234 -8 -241 13 -288 12 -26 28 -47 36 -47
8 0 15 3 15 8 0 4 11 20 25 36 25 29 26 44 3 105 -10 27 -9 587 2 725 7 99 2
92 102 151 79 46 165 74 235 76 32 1 137 -1 233 -5 198 -9 276 -25 436 -88
124 -48 213 -120 237 -191 32 -92 67 -276 67 -355 0 -50 6 -94 16 -118 16 -37
15 -53 -5 -129 -8 -30 -6 -64 6 -138 14 -87 19 -100 44 -118 l28 -20 26 83
c38 121 42 165 16 220 -26 58 -26 66 0 94 l21 23 -33 57 c-26 46 -32 67 -30
105 4 92 -80 304 -175 442 -30 43 -54 84 -54 90 0 7 9 23 20 37 11 14 20 29
20 33 0 4 18 35 41 68 22 33 47 75 54 92 17 42 10 101 -20 152 -59 101 -134
134 -405 176 -181 28 -217 31 -505 33 -235 2 -318 0 -345 -10z m886 -144 c65
0 136 -20 170 -49 28 -23 57 -79 50 -97 -3 -8 -37 -35 -76 -60 -108 -70 -164
-78 -425 -63 -115 7 -215 16 -222 21 -31 24 -74 26 -154 7 -100 -24 -205 -27
-225 -7 -8 8 -17 31 -21 51 -22 139 113 197 502 213 71 2 130 6 132 7 1 2 49
-3 105 -10 57 -7 130 -12 164 -13z"/>
<path d="M28480 19779 c-8 -18 -5 -63 14 -189 24 -163 26 -251 11 -382 -6 -54
-4 -77 9 -113 10 -25 24 -45 32 -45 17 0 17 1 -2 -73 -13 -50 -13 -68 -3 -106
7 -28 13 -150 16 -308 4 -280 8 -303 58 -383 17 -27 30 -39 36 -33 6 6 17 52
25 104 14 85 14 107 0 224 -38 313 -45 438 -26 506 7 27 6 66 -4 141 -8 57
-18 147 -21 199 -9 137 -24 220 -52 297 -14 37 -33 89 -43 115 -23 65 -36 77
-50 46z"/>
<path d="M5521 18905 c5 -25 13 -54 19 -64 5 -11 10 -47 10 -80 0 -54 6 -73
56 -169 68 -132 115 -189 206 -248 163 -107 255 -129 488 -119 195 9 272 34
361 117 95 88 114 139 75 198 -14 22 -30 40 -35 40 -5 0 -35 -39 -67 -86 -61
-89 -90 -117 -159 -152 -62 -30 -98 -35 -269 -34 l-159 0 -121 60 c-67 33
-131 63 -143 67 -28 8 -94 82 -128 143 -31 56 -61 171 -70 270 -6 58 -11 75
-28 87 -37 26 -45 19 -36 -30z"/>
<path d="M8565 17448 c-29 -16 -32 -24 -54 -118 -20 -84 -31 -235 -46 -620 -3
-85 -12 -180 -19 -210 -9 -37 -16 -158 -20 -365 -4 -170 -9 -346 -12 -390 -3
-44 -1 -143 6 -220 29 -365 30 -402 21 -530 -6 -71 -13 -197 -16 -280 -3 -82
-11 -226 -16 -320 -7 -101 -8 -274 -4 -425 5 -191 2 -319 -10 -510 -9 -140
-18 -356 -20 -480 -2 -124 -8 -256 -14 -295 -6 -38 -10 -161 -11 -272 0 -111
-4 -204 -9 -207 -10 -7 6 -66 31 -111 9 -17 38 -48 65 -71 44 -37 86 -53 493
-187 245 -81 542 -182 660 -223 617 -217 658 -230 1290 -419 80 -24 165 -51
190 -60 186 -68 421 -143 621 -199 131 -36 286 -84 345 -105 392 -142 404
-146 676 -211 92 -22 222 -59 290 -81 173 -58 313 -102 536 -169 106 -33 196
-61 201 -65 15 -8 467 -133 656 -180 94 -23 204 -52 245 -64 70 -21 361 -123
405 -141 159 -69 950 -318 1253 -396 238 -61 265 -68 424 -120 75 -25 157 -45
181 -46 27 0 87 15 163 42 279 99 387 131 463 136 42 2 103 6 136 9 33 2 80
11 105 20 132 49 261 86 400 115 85 18 191 45 235 60 44 16 114 40 155 54 77
26 262 75 455 122 206 49 389 105 770 235 578 199 795 269 975 314 300 76 546
149 815 242 252 87 469 146 975 268 85 21 176 46 202 56 26 10 107 34 180 53
73 19 192 56 263 81 72 26 144 51 160 55 17 4 77 22 135 38 58 16 134 37 170
45 36 9 220 54 410 100 190 46 392 93 450 104 71 14 159 42 271 87 109 43 192
70 245 78 61 10 101 24 180 65 55 29 109 62 120 74 18 20 18 21 -11 75 -17 31
-31 65 -32 77 -2 12 -6 186 -9 387 -7 366 4 592 46 1000 12 112 16 175 25 330
3 63 8 129 10 145 22 184 35 593 35 1098 0 265 5 545 10 622 23 347 28 615 20
1065 -3 146 -1 197 12 242 14 49 15 89 6 305 -5 136 -14 258 -19 271 -12 30
-40 25 -55 -8 -22 -45 -34 -346 -44 -1055 -6 -385 -15 -747 -19 -805 -5 -58
-10 -355 -11 -660 0 -305 -3 -602 -5 -660 -7 -153 -24 -419 -40 -625 -7 -99
-16 -227 -20 -285 -3 -58 -8 -136 -10 -175 -23 -358 -31 -1146 -12 -1232 14
-67 0 -88 -65 -103 -29 -7 -100 -36 -158 -64 -58 -29 -134 -60 -170 -69 -36
-9 -164 -41 -285 -71 -121 -30 -256 -66 -300 -79 -44 -14 -116 -34 -160 -45
-423 -111 -766 -207 -965 -269 -261 -81 -520 -153 -720 -199 -190 -43 -324
-83 -720 -214 -423 -140 -657 -210 -895 -270 -298 -74 -450 -119 -815 -240
-129 -43 -343 -113 -475 -155 -452 -145 -591 -186 -1000 -294 -82 -22 -213
-59 -290 -81 -103 -30 -198 -49 -355 -71 -401 -55 -443 -66 -815 -223 -76 -32
-111 -32 -210 -1 -44 14 -168 51 -275 81 -200 57 -256 75 -371 118 -36 13
-107 32 -158 40 -52 9 -175 44 -275 78 -164 55 -236 81 -422 153 -92 37 -224
79 -389 125 -181 50 -231 66 -451 140 -93 32 -220 67 -281 79 -61 12 -171 39
-244 60 -120 35 -227 65 -534 148 -49 13 -132 33 -184 44 -52 12 -164 46 -250
76 -227 81 -331 112 -466 138 -113 22 -179 41 -385 114 -47 16 -236 77 -420
135 -388 122 -872 280 -915 300 -34 16 -412 140 -580 191 -538 163 -1209 391
-1400 475 -19 8 -71 28 -213 81 -35 13 -80 38 -99 54 -34 29 -35 33 -49 150
-16 125 -12 269 9 328 7 21 12 220 14 602 7 1272 7 1272 26 1425 17 129 19
238 21 995 2 492 7 926 14 1030 6 99 16 275 23 390 6 116 17 244 25 285 15 82
18 150 7 150 -5 0 -17 -6 -28 -12z"/>
<path d="M14546 17382 c-2 -4 -7 -552 -10 -1217 -4 -666 -8 -1282 -11 -1370
l-5 -160 71 -73 c39 -41 72 -72 74 -70 1 2 6 651 10 1444 l7 1441 -23 6 c-33
9 -107 9 -113 -1z"/>
<path d="M13575 14635 c-425 -66 -735 -371 -811 -799 -34 -195 3 -417 99 -596
130 -243 366 -420 637 -481 89 -20 131 -21 621 -25 l526 -5 6 203 c10 299 8
771 -3 868 -12 105 -33 186 -68 265 -112 254 -300 430 -564 528 -113 42 -317
61 -443 42z"/>
<path d="M16930 14630 c-87 -9 -184 -32 -255 -61 -80 -33 -155 -72 -155 -81 0
-4 -6 -8 -13 -8 -26 0 -168 -128 -232 -209 -197 -251 -258 -574 -165 -876 21
-68 86 -215 99 -225 4 -3 18 -21 31 -40 36 -52 148 -167 210 -215 281 -217
715 -244 1031 -64 284 163 454 425 489 752 5 51 10 302 10 558 l0 467 -77 4
c-140 8 -896 6 -973 -2z"/>
<path d="M20175 14616 c-389 -65 -718 -390 -786 -776 -14 -83 -12 -276 5 -356
76 -359 336 -631 701 -732 90 -25 91 -25 638 -29 l547 -4 0 523 c0 318 -4 548
-11 588 -27 168 -116 352 -232 481 -65 72 -160 150 -218 179 -24 13 -55 30
-68 39 -113 74 -397 117 -576 87z"/>
<path d="M13127 12184 c-4 -4 -7 -74 -7 -157 l0 -149 -40 32 c-32 25 -53 33
-99 37 -77 7 -103 0 -150 -42 -59 -53 -81 -116 -82 -228 -1 -76 3 -103 20
-143 39 -88 89 -124 168 -123 57 1 99 15 143 49 18 14 35 24 39 23 3 -1 8 -17
11 -35 4 -25 10 -33 25 -33 17 0 21 8 25 65 3 36 5 209 5 385 l0 320 -25 3
c-14 2 -29 0 -33 -4z m-120 -296 c15 -6 47 -30 71 -52 l42 -40 0 -111 0 -112
-42 -43 c-23 -23 -58 -49 -76 -57 -71 -29 -141 6 -172 87 -22 55 -18 195 8
252 34 75 100 105 169 76z"/>
<path d="M15337 12183 c-4 -3 -7 -179 -7 -390 l0 -383 24 0 c14 0 27 4 30 8 4
7 10 687 7 760 -1 12 -43 17 -54 5z"/>
<path d="M18819 11933 c0 -136 -1 -311 -2 -388 l-2 -140 30 0 30 0 3 185 2
185 38 38 c64 67 121 83 181 52 45 -23 54 -62 60 -270 5 -172 8 -190 24 -193
41 -8 47 12 47 172 0 187 -11 257 -46 303 -62 81 -196 83 -268 4 -11 -12 -23
-21 -28 -21 -5 0 -8 71 -7 158 l1 157 -31 3 -31 3 -1 -248z"/>
<path d="M20602 12168 c-9 -9 -12 -103 -12 -390 l0 -378 29 0 c17 0 31 6 35
16 3 9 6 74 6 146 l0 130 36 -44 c20 -23 43 -52 52 -63 10 -11 35 -42 56 -70
77 -97 98 -115 133 -115 20 0 33 5 33 13 -1 6 -50 71 -110 142 -60 72 -110
135 -110 140 0 12 15 28 129 139 44 43 78 83 75 87 -3 5 -19 9 -36 9 -26 0
-49 -18 -144 -112 l-114 -112 -2 235 c-3 226 -4 234 -23 237 -11 1 -26 -3 -33
-10z"/>
<path d="M16801 12081 c-6 -11 -11 -47 -11 -80 0 -60 -1 -61 -27 -62 -59 -2
-228 3 -232 7 -2 2 -3 23 -3 46 1 55 -5 75 -23 82 -34 13 -45 -4 -45 -70 l0
-64 -34 0 c-38 0 -68 -23 -60 -45 3 -8 23 -15 47 -17 l42 -3 5 -202 c5 -184 7
-204 26 -229 25 -35 64 -46 128 -40 50 6 66 17 66 48 0 16 -7 17 -57 12 -51
-6 -60 -4 -78 16 -18 20 -20 36 -20 209 l0 186 133 3 132 3 0 -184 c0 -170 2
-186 23 -227 26 -52 55 -70 115 -70 56 0 82 14 82 46 0 24 -2 25 -44 19 -97
-15 -106 6 -106 241 l0 174 74 0 c61 0 75 3 80 17 11 27 -22 44 -79 43 -27 -1
-55 -1 -62 -1 -8 1 -13 27 -15 79 -3 70 -5 77 -25 80 -14 2 -26 -4 -32 -17z"/>
<path d="M19685 12058 c-2 -7 -6 -38 -8 -68 l-3 -55 -41 -3 c-71 -5 -66 -62 6
-62 l36 0 0 -183 c0 -100 3 -194 7 -208 12 -41 41 -67 87 -78 64 -14 111 -4
122 27 13 34 0 44 -41 31 -52 -16 -86 1 -99 48 -6 21 -11 111 -11 200 l0 162
78 3 c75 3 77 4 77 28 0 24 -2 25 -77 28 l-77 3 -3 67 c-3 61 -5 67 -26 70
-12 2 -24 -3 -27 -10z"/>
<path d="M21122 12058 c-7 -7 -12 -39 -12 -74 0 -57 -2 -62 -20 -57 -11 3 -31
2 -45 -1 -20 -5 -26 -12 -23 -29 2 -18 10 -23 46 -25 l42 -3 1 -175 c1 -96 3
-178 4 -184 1 -5 3 -19 4 -30 0 -11 13 -33 29 -50 22 -26 37 -32 83 -37 67 -7
99 7 99 43 0 24 -2 25 -44 19 -98 -15 -106 2 -106 235 l0 180 75 0 c73 0 75 1
75 25 0 27 -4 28 -95 29 l-50 1 -3 65 c-3 60 -12 79 -37 80 -6 0 -16 -5 -23
-12z"/>
<path d="M13440 11935 c-19 -8 -43 -18 -53 -21 -18 -7 -34 -50 -23 -61 3 -4
29 4 56 17 51 24 121 31 171 17 36 -9 60 -49 66 -111 l6 -53 -99 -5 c-113 -6
-164 -25 -204 -79 -18 -26 -24 -47 -24 -85 0 -92 57 -144 156 -144 56 0 148
32 148 52 0 21 19 4 22 -19 2 -22 8 -28 28 -28 l25 0 3 208 c3 232 -3 257 -62
300 -39 28 -161 35 -216 12z m218 -328 c3 -54 1 -59 -30 -88 -52 -48 -86 -62
-136 -56 -55 6 -82 32 -89 84 -4 32 0 44 21 70 32 38 79 52 166 50 l65 -2 3
-58z"/>
<path d="M14060 11931 c-19 -11 -44 -28 -54 -40 -27 -30 -36 -26 -36 14 0 32
-2 35 -30 35 l-30 0 2 -262 c3 -247 4 -263 22 -266 10 -2 22 0 27 5 4 4 9 90
9 189 l2 180 28 30 c68 71 119 93 176 74 27 -9 40 -22 55 -54 16 -35 19 -67
19 -229 0 -164 2 -188 16 -194 9 -3 24 -2 33 4 14 9 16 37 16 209 0 191 -1
201 -24 240 -44 78 -150 107 -231 65z"/>
<path d="M14876 11936 c-95 -36 -148 -126 -149 -256 -3 -191 74 -275 248 -273
118 1 189 33 172 76 -5 14 -12 14 -61 -4 -111 -39 -227 -16 -262 53 -9 17 -19
55 -23 84 l-8 54 186 2 186 3 -1 65 c-1 125 -68 199 -186 206 -40 3 -77 -1
-102 -10z m162 -62 c34 -22 62 -74 62 -116 l0 -38 -150 0 -150 0 0 25 c0 14 9
43 19 64 41 80 146 111 219 65z"/>
<path d="M15980 11941 c-41 -13 -84 -38 -107 -63 -86 -91 -88 -318 -5 -412 31
-34 113 -66 173 -66 68 0 150 38 191 90 86 109 67 337 -34 413 -55 42 -151 58
-218 38z m160 -74 c47 -31 69 -73 76 -144 17 -164 -49 -263 -177 -263 -119 0
-188 116 -160 272 12 70 31 102 81 136 46 31 134 31 180 -1z"/>
<path d="M14509 11765 c-2 -385 -4 -357 29 -353 l27 3 3 263 2 262 -30 0 -30
0 -1 -175z"/>
<path d="M17463 11922 c-54 -22 -76 -43 -67 -65 7 -19 34 -23 50 -8 5 6 35 17
66 25 109 28 173 -13 180 -114 l3 -45 -85 -6 c-120 -8 -147 -16 -191 -56 -67
-61 -63 -166 9 -221 31 -24 44 -27 108 -27 65 0 77 3 118 32 l45 32 3 -32 c2
-26 7 -32 28 -32 l25 0 3 185 c4 264 0 281 -78 329 -45 27 -154 28 -217 3z
m225 -329 c-3 -66 -4 -68 -46 -100 -37 -28 -52 -33 -97 -33 -47 0 -56 3 -79
31 -28 33 -32 53 -16 93 17 47 80 70 198 74 l43 1 -3 -66z"/>
<path d="M17953 11933 c-17 -6 -19 -518 -2 -528 5 -4 21 -4 35 -1 l24 6 0 178
0 177 45 52 c49 55 84 70 128 54 22 -9 28 -7 36 8 17 31 -13 61 -60 61 -47 0
-72 -11 -116 -53 l-33 -31 0 31 c0 39 -24 58 -57 46z"/>
<path d="M18435 11923 c-60 -25 -108 -85 -130 -161 -7 -25 -8 -139 -1 -189 7
-50 42 -109 82 -140 31 -23 49 -28 111 -31 64 -4 80 -1 128 23 51 24 55 29 55
61 0 19 -3 34 -8 34 -4 0 -25 -12 -47 -27 -46 -31 -116 -41 -169 -23 -67 22
-104 143 -81 264 14 77 28 102 68 126 54 34 159 21 196 -23 17 -21 37 -22 45
-1 26 69 -148 130 -249 87z"/>
<path d="M20135 11921 c-98 -46 -153 -159 -142 -293 14 -169 118 -251 293
-233 98 11 146 40 131 79 -5 12 -17 11 -74 -6 -155 -47 -262 5 -271 132 l-4
55 167 -2 c100 -2 174 1 186 7 24 13 25 65 4 137 -26 86 -87 132 -188 139 -46
3 -72 -1 -102 -15z m179 -69 c23 -21 55 -89 56 -119 0 -23 -1 -23 -150 -23
l-150 0 0 28 c0 42 55 120 93 132 43 13 127 3 151 -18z"/>
<path d="M19410 11818 c0 -62 -3 -170 -6 -240 -8 -159 -4 -178 36 -178 l30 0
1 238 c1 130 2 248 3 262 1 21 -4 25 -31 28 l-33 3 0 -113z"/>
</g>
</svg>
